<svg width="188" height="44" viewBox="0 0 188 44" fill="none" xmlns="http://www.w3.org/2000/svg">
<path d="M89.6515 19.0786V35.1811C87.7847 35.1811 85.9179 35.1811 84.0511 35.1811C84.0511 26.1051 84.0511 17.1267 84.0511 8.05078H89.5532C92.5008 12.9303 95.4484 17.8099 98.396 22.787C101.344 17.8099 104.291 12.9303 107.239 8.05078H112.741V35.1811C110.874 35.1811 109.106 35.1811 107.239 35.1811C107.239 29.8136 107.239 24.4461 107.239 19.0786H107.14C104.782 23.0798 102.326 26.9834 99.968 30.9846C98.9855 30.9846 98.003 30.9846 96.9222 30.9846C94.4659 26.9834 92.1078 23.0798 89.6515 19.0786Z" fill="black" fill-opacity="0.4"/>
<path d="M139.564 35.1811C139.564 26.1052 139.564 17.0292 139.564 8.05084C139.662 7.95325 139.76 7.95325 139.859 7.95325C143.985 7.95325 148.112 7.95325 152.238 7.95325C154.695 7.95325 156.758 8.73397 158.527 10.5882C160.786 13.028 161.376 16.7364 158.723 19.5666C158.428 19.8593 158.035 20.1521 157.741 20.4449C157.839 20.5425 157.937 20.5425 158.035 20.6401C160.197 21.8112 161.278 23.5678 161.572 25.91C161.769 27.8618 161.572 29.8136 160.393 31.4727C159.116 33.4245 157.151 34.4004 154.891 34.8883C154.007 35.0835 153.024 35.1811 152.14 35.1811C148.21 35.1811 144.182 35.1811 140.252 35.1811C139.957 35.1811 139.76 35.1811 139.564 35.1811ZM145.066 30.0088C145.164 30.0088 145.262 30.0088 145.262 30.0088C147.719 30.0088 150.175 30.0088 152.533 30.0088C152.828 30.0088 153.123 29.9112 153.319 29.9112C154.891 29.5208 155.874 27.9594 155.677 26.4955C155.481 24.8365 154.105 23.5678 152.435 23.5678C150.077 23.5678 147.621 23.5678 145.262 23.5678C145.164 23.5678 145.066 23.5678 144.968 23.6654C145.066 25.7148 145.066 27.8618 145.066 30.0088ZM145.066 18.5907C145.164 18.5907 145.164 18.5907 145.164 18.5907C147.522 18.5907 149.88 18.5907 152.238 18.5907C153.81 18.5907 154.989 17.322 154.989 15.7605C154.989 14.1991 153.712 13.1256 152.14 13.1256C149.88 13.1256 147.719 13.1256 145.459 13.1256C145.361 13.1256 145.164 13.1256 145.066 13.1256V18.5907Z" fill="black" fill-opacity="0.4"/>
<path d="M135.437 35.1811C129.444 35.1811 123.45 35.1811 117.457 35.1811C117.457 26.1051 117.457 17.1267 117.457 8.05078H122.959V29.716H135.437V35.1811Z" fill="black" fill-opacity="0.4"/>
<path d="M163.832 35.1811C163.439 34.986 163.636 34.5956 163.537 34.4004C163.341 34.498 163.341 34.7908 163.046 34.8884C162.85 34.7908 162.85 34.498 162.653 34.4004C162.555 34.5956 162.653 34.8884 162.555 35.0835C162.457 35.1811 162.457 35.0835 162.358 35.0835C162.358 34.5956 162.358 34.2052 162.358 33.6197C162.85 33.6197 162.85 34.2052 163.144 34.3028C163.439 34.1076 163.439 33.6197 163.93 33.5221V35.1811H163.832Z" fill="black" fill-opacity="0.4"/>
<path d="M162.064 33.8149C161.965 34.1076 161.769 33.9124 161.572 34.1076V35.1811C161.179 35.1811 161.278 34.8884 161.278 34.6932C161.278 34.498 161.278 34.3028 161.278 34.1076C161.179 33.9124 160.983 34.01 160.885 33.9124C160.786 33.7173 160.885 33.7173 161.081 33.7173C161.376 33.7173 161.769 33.6197 162.064 33.8149Z" fill="black" fill-opacity="0.4"/>
<path d="M59.6844 7.85571C62.8285 11.9545 66.0709 16.0534 69.2149 20.2498C69.1167 20.7377 68.9202 21.2257 68.8219 21.7136C68.1342 21.3233 67.4464 20.9329 66.7586 20.7377C66.3656 20.6401 65.8743 20.6401 65.3831 20.6401C64.0075 20.6401 62.5338 20.6401 61.1582 20.6401C60.667 20.6401 60.5687 20.5425 60.3722 20.0546C60.2739 19.5666 60.2739 18.9811 60.3722 18.4931C60.5687 18.3955 60.7652 18.4931 60.9617 18.3955C60.9617 18.1028 60.9617 17.81 61.06 17.5172C61.06 16.3461 60.9617 15.2726 60.5687 14.1991C60.1757 13.2232 59.4879 12.4425 58.6037 11.8569C56.8351 10.7834 54.9683 10.2955 52.905 10.6858C50.6452 11.0762 49.1714 12.7353 48.8766 14.9798C48.8766 15.2726 48.7784 15.663 48.7784 15.9558C48.2871 16.3461 47.6976 16.6389 47.2063 17.0293C46.7151 17.4196 46.1256 17.81 45.5361 18.2003H49.4662C49.5644 18.3955 49.5644 18.5907 49.6627 18.7859C49.2697 19.6642 48.8766 20.4449 48.4836 21.4208C49.0731 21.616 49.5644 21.5184 50.0557 21.5184C50.4487 21.9088 50.6452 23.0799 50.3504 23.5679C48.2871 24.251 47.4029 25.91 46.8133 27.7643C46.2238 29.4233 46.1256 31.1799 46.1256 32.9366C46.1256 33.0342 46.1256 33.0342 46.1256 33.1318H48.3854C48.7784 33.8149 49.1714 34.4004 49.4662 35.0836C49.3679 35.1812 49.2697 35.1812 49.1714 35.1812C42.8832 35.1812 36.6933 35.1812 30.4051 35.1812C28.5383 35.1812 27.1628 33.9125 27.1628 31.9607C27.1628 25.0317 27.1628 18.0052 27.1628 11.0762C27.1628 9.22199 28.4401 7.85571 30.4051 7.85571H59.5862H59.6844ZM31.1912 28.7402C31.1912 29.9113 32.1737 30.8872 33.2545 30.8872C34.4335 30.8872 35.416 29.9113 35.416 28.7402C35.416 27.5691 34.4335 26.5932 33.2545 26.5932C32.1737 26.5932 31.1912 27.5691 31.1912 28.7402Z" fill="black" fill-opacity="0.4"/>
<path d="M71.573 35.1812C71.573 34.498 71.573 33.9125 71.573 33.2294C71.6713 33.1318 71.7695 33.2294 71.8678 33.2294C73.2433 33.2294 74.5206 33.2294 75.8961 33.2294C76.3874 33.2294 76.7804 33.1318 77.1734 32.7414C78.0577 31.9607 78.6472 30.8872 79.0402 29.8137C79.1385 29.6185 79.0402 29.4233 78.9419 29.2281C78.7454 29.0329 78.6472 28.8378 78.4507 28.6426C78.1559 28.2522 77.8612 27.7643 77.6647 27.2763C77.4682 26.6908 77.1734 26.3004 76.5839 26.0076C75.9944 25.7148 75.4049 25.3245 74.9136 24.8365C74.9136 24.4462 74.9136 24.0558 74.9136 23.6654C74.7171 23.4703 74.6188 23.2751 74.4223 23.0799C74.2258 23.0799 74.1276 22.9823 73.9311 22.9823C73.9311 22.2992 73.7346 21.9088 72.9485 21.7136C73.0468 21.2257 72.8503 20.9329 72.5555 20.6401C72.359 20.6401 72.1625 20.5425 71.8678 20.5425C69.3132 16.3461 66.8569 12.1497 64.3023 7.9533C64.4006 7.85571 64.4988 7.85571 64.5971 7.85571C68.9202 7.85571 73.2433 7.85571 77.5664 7.85571C79.2367 7.85571 80.6122 9.12439 80.6122 10.7834C80.6122 12.4425 80.6122 14.1015 80.6122 15.663C80.6122 21.1281 80.6122 26.4956 80.6122 31.9607C80.6122 33.5221 79.6297 34.7908 78.1559 35.0836C77.9594 35.0836 77.7629 35.1812 77.5664 35.1812C75.6996 35.1812 73.7346 35.1812 71.8678 35.1812C71.7695 35.1812 71.6713 35.1812 71.573 35.1812Z" fill="black" fill-opacity="0.4"/>
<path d="M81.3983 35.2787C80.907 35.2787 80.514 34.8884 80.6122 34.4004C80.6122 33.9125 81.0052 33.5221 81.4965 33.5221C81.9878 33.5221 82.3808 33.9125 82.2825 34.4004C82.2825 34.8884 81.8895 35.2787 81.3983 35.2787ZM81.3983 33.7173C81.0052 33.7173 80.7105 34.01 80.7105 34.4004C80.7105 34.7908 81.0052 35.0835 81.3983 35.0835C81.7913 35.0835 82.086 34.7908 82.086 34.4004C82.086 34.01 81.7913 33.7173 81.3983 33.7173Z" fill="black" fill-opacity="0.4"/>
<path d="M81.1035 34.8884C81.0053 34.5956 81.1035 34.3029 81.1035 34.0101C81.3 33.9125 81.5948 33.9125 81.7913 34.0101C81.9878 34.2053 81.8895 34.4004 81.693 34.498C81.7913 34.5956 81.7913 34.6932 81.8895 34.7908C81.5948 34.8884 81.693 34.498 81.3983 34.498C81.2018 34.5956 81.3 34.7908 81.1035 34.8884ZM81.3 34.1077C81.3 34.2053 81.3 34.3029 81.3983 34.3029C81.4965 34.3029 81.693 34.3029 81.693 34.2053C81.5948 34.0101 81.3983 34.1077 81.3 34.1077Z" fill="black" fill-opacity="0.4"/>
</svg>
