<svg width="188" height="44" viewBox="0 0 188 44" fill="none" xmlns="http://www.w3.org/2000/svg">
<g clip-path="url(#clip0_187_252)">
<mask id="mask0_187_252" style="mask-type:luminance" maskUnits="userSpaceOnUse" x="75" y="0" width="38" height="44">
<path d="M112.065 0.22998H75.3038V43.46H112.065V0.22998Z" fill="white"/>
</mask>
<g mask="url(#mask0_187_252)">
<path fill-rule="evenodd" clip-rule="evenodd" d="M99.8437 38.7318C97.4105 39.4667 94.8683 41.4121 93.7424 42.5361C92.6167 41.4121 90.0742 39.4667 87.6408 38.7318C87.3947 38.6585 87.1131 38.5816 86.8032 38.4968C83.636 37.6308 77.5041 35.9542 75.9822 29.2212C75.0075 25.0192 76.0585 20.4304 76.8201 17.105C77.1084 15.846 77.3552 14.768 77.4351 13.9607C77.6728 11.5752 76.989 6.27678 76.8106 4.89452C76.7983 4.79905 76.7884 4.72227 76.7814 4.66641C76.5997 3.45597 77.7258 3.02367 78.4882 3.28323C79.7231 3.75858 82.3743 4.62318 85.4252 4.66641C88.6939 4.70982 92.7254 2.33218 93.7424 0.732666C94.7956 2.33218 98.8269 4.70982 102.096 4.66641C105.147 4.62301 107.798 3.75858 109.033 3.28323C109.759 3.02367 110.886 3.45615 110.74 4.66641C110.595 5.53101 109.833 11.4105 110.086 13.9607C110.166 14.768 110.413 15.8458 110.701 17.1047C111.462 20.4301 112.514 25.0191 111.539 29.2212C110.013 35.9695 103.857 37.6384 100.669 38.5027C100.364 38.5851 100.087 38.6603 99.8437 38.7318ZM93.9759 2.12951L93.7424 1.94064L93.5089 2.12952C91.6155 3.66059 88.5687 5.25003 85.9947 5.33273C83.2582 5.41746 80.1842 4.6524 79.1235 4.27411C78.8573 4.1758 78.6135 4.10001 78.4052 4.07641C78.1993 4.05308 77.9359 4.07148 77.7437 4.27869C77.569 4.46705 77.5399 4.72445 77.5424 4.93754C77.545 5.16442 77.5867 5.44427 77.6505 5.77035C77.7038 6.09152 77.9013 7.56574 78.0407 9.3004C78.1815 11.0508 78.2595 13.0256 78.0836 14.3441L78.0829 14.3494C77.9674 15.3225 77.731 16.4287 77.4631 17.6419L77.3925 17.9612C77.1452 19.0783 76.8803 20.2747 76.6735 21.5079C76.2207 24.2087 76.037 27.1326 76.9363 29.8978L76.9366 29.8989C78.2278 33.8303 81.6393 36.3519 87.2553 37.8374L87.2569 37.8378C88.2186 38.0875 89.4339 38.5926 90.5867 39.2201C91.7421 39.849 92.8039 40.5843 93.475 41.2806L93.7424 41.5582L94.0098 41.2807C94.6804 40.585 95.7506 39.8499 96.9153 39.2207C98.0773 38.5931 99.3024 38.0877 100.264 37.8378L100.266 37.8372C105.843 36.3524 109.294 33.8313 110.549 29.8964C111.447 27.1322 111.273 24.2095 110.825 21.5085C110.613 20.2311 110.338 18.9933 110.081 17.8418L110.037 17.6414C109.767 16.4282 109.526 15.3215 109.401 14.3474C109.243 13.0258 109.322 11.0491 109.462 9.30032C109.603 7.54901 109.801 6.08126 109.867 5.78526L109.869 5.77545L109.871 5.76553C109.926 5.43924 109.962 5.15901 109.962 4.93316C109.962 4.72291 109.933 4.46625 109.759 4.27872C109.566 4.07108 109.302 4.05324 109.096 4.07635C108.885 4.09978 108.638 4.17527 108.363 4.27346C107.304 4.65173 104.264 5.4175 101.527 5.33273C98.9517 5.24999 95.8683 3.65961 93.9759 2.12951ZM86.0184 6.07531C88.7107 5.98888 91.7715 4.41869 93.7425 2.89197C95.7173 4.41953 98.8112 5.98891 101.503 6.07531C104.358 6.16377 107.493 5.37296 108.612 4.97311C108.883 4.87668 109.061 4.8278 109.178 4.81471C109.191 4.81325 109.203 4.81234 109.212 4.81182C109.216 4.83743 109.219 4.87637 109.219 4.93326C109.219 5.09097 109.193 5.31595 109.14 5.63336C109.059 6.00477 108.861 7.50748 108.721 9.2408C108.581 10.9929 108.495 13.0355 108.663 14.4375L108.664 14.4404C108.794 15.4545 109.043 16.5954 109.311 17.8026L109.355 17.9978C109.611 19.1533 109.883 20.373 110.092 21.6302C110.533 24.2893 110.686 27.0721 109.841 29.6681V29.6701C108.698 33.2573 105.54 35.664 100.077 37.1189C99.042 37.3878 97.7607 37.9197 96.5622 38.5671C95.5014 39.1401 94.4805 39.8169 93.7426 40.5028C93.0072 39.8175 91.995 39.1409 90.9419 38.5677C89.7525 37.9202 88.4802 37.388 87.4444 37.1189C81.9474 35.6648 78.822 33.2582 77.6426 29.6674C76.7988 27.0723 76.9603 24.2902 77.4062 21.6308C77.6097 20.4175 77.8704 19.2396 78.1183 18.12L78.1886 17.8021C78.455 16.5955 78.6997 15.4546 78.8204 14.4397C79.0073 13.0348 78.922 10.991 78.7813 9.24086C78.6399 7.48277 78.439 5.98026 78.3823 5.6425L78.3804 5.63259C78.3177 5.31232 78.2871 5.08588 78.2853 4.92888C78.2846 4.87462 78.2877 4.83701 78.2911 4.81194C78.2999 4.81247 78.31 4.81332 78.3216 4.81464C78.4352 4.82751 78.6083 4.87575 78.8679 4.97171L78.8718 4.97313C79.9924 5.3732 83.1635 6.16375 86.0184 6.07531ZM98.6049 41.4297C98.7424 41.4297 98.8799 41.4297 98.8799 41.2331C98.8799 41.1021 98.7424 41.0692 98.6324 41.0692H98.3852V41.4299L98.6049 41.4297ZM98.3851 42.0518H98.2196V40.9383H98.6599C98.9075 40.9383 99.045 41.0365 99.045 41.2654C99.045 41.4621 98.935 41.5604 98.7699 41.5604L99.0725 42.0518H98.8799L98.5775 41.5604H98.3851V42.0518ZM98.6049 42.3137C99.045 42.3137 99.4026 41.9536 99.4026 41.4951C99.4026 41.0365 99.045 40.6764 98.6049 40.6764C98.1648 40.6764 97.8069 41.0365 97.8069 41.4951C97.8071 41.9536 98.1649 42.3137 98.6049 42.3137ZM97.6145 41.4951C97.6145 40.9383 98.055 40.5125 98.6049 40.5125C99.1275 40.5125 99.5952 40.9383 99.5952 41.4951C99.5952 42.0518 99.1275 42.4775 98.6049 42.4775C98.0549 42.4775 97.6145 42.0518 97.6145 41.4951ZM94.7232 6.26593C94.7316 6.35778 94.7423 6.44961 94.7529 6.54256C94.7874 6.84358 94.8234 7.15641 94.7956 7.5196C94.6867 7.21718 94.396 6.87134 94.0331 6.87134C93.5973 6.87134 93.2342 7.17376 93.0524 7.5196C92.9798 8.125 92.9798 8.68699 93.0888 9.29185C93.2311 9.24352 93.3622 9.14086 93.4947 9.03711C93.5987 8.95566 93.7035 8.87354 93.8154 8.8165C94.0434 8.67272 94.3259 8.62334 94.6043 8.57466C95.0797 8.49155 95.5433 8.4105 95.7039 7.86526L95.7398 7.82185C95.8264 7.99408 95.7522 8.22144 95.6816 8.43785C95.6636 8.49303 95.6458 8.5475 95.631 8.60018C95.3302 9.10589 94.8219 9.15961 94.3254 9.21212C93.8035 9.2673 93.2943 9.32113 93.0524 9.89725C93.0645 10.1416 93.0565 10.3955 93.0485 10.651C93.0324 11.164 93.016 11.6833 93.1615 12.145C93.2703 12.2751 93.4519 12.2317 93.5971 12.1884C94.5778 11.886 95.1225 10.9348 95.3766 10.0702H95.4132C95.4036 10.2074 95.3965 10.3507 95.3892 10.4969L95.3891 10.4978C95.369 10.9037 95.3478 11.332 95.2679 11.7131C94.1781 12.4046 93.0886 13.0528 91.999 13.615C92.3286 12.9704 92.2919 12.1803 92.255 11.3862C92.235 10.9557 92.2149 10.524 92.2532 10.1138C92.1805 9.42226 92.1805 8.81687 92.1805 8.12519C92.1805 7.99513 92.035 7.86562 91.9263 7.77935C91.8719 7.75777 91.8084 7.74696 91.7449 7.73614C91.6813 7.7253 91.6176 7.71445 91.563 7.6927C91.6356 7.5632 91.8171 7.43368 91.9989 7.34687C92.4882 7.04297 92.9899 6.78358 93.4895 6.52529C93.8428 6.34266 94.195 6.16057 94.541 5.96369M94.7232 6.26593C94.6967 6.2346 94.6894 6.18028 94.6821 6.12595L94.7232 6.26593ZM106.963 8.16834C107.152 8.74884 107.059 9.37771 106.97 9.9829C106.938 10.1885 106.909 10.3915 106.89 10.5888C106.672 12.4045 106.599 14.3498 107.145 15.9926C107.181 16.1221 106.999 16.1221 106.926 16.0792C106.547 15.8739 106.364 15.4349 106.192 15.0213L106.164 14.955C105.975 14.6177 105.82 14.2559 105.664 13.891C105.46 13.4141 105.253 12.9318 104.965 12.4911L104.929 12.5774L104.965 16.2089C105.002 16.3384 105.147 16.4251 105.255 16.4679C104.991 16.7445 104.634 16.9127 104.298 17.0714L104.203 17.1167C104.203 17.0351 104.227 16.9535 104.252 16.8674C104.281 16.771 104.311 16.6688 104.311 16.5546C104.311 14.6526 104.311 12.707 104.239 10.8484C104.181 10.6426 103.964 10.5727 103.768 10.5095C103.717 10.493 103.667 10.477 103.621 10.4591C103.912 10.1996 104.275 9.98327 104.638 9.81035C104.784 9.76748 104.893 9.89699 104.929 10.0267C105.107 10.3731 105.263 10.7366 105.42 11.1019C105.616 11.5575 105.813 12.0158 106.055 12.4477C106.073 12.4477 106.081 12.4369 106.091 12.426C106.1 12.4152 106.109 12.4044 106.128 12.4044C106.128 11.9015 106.162 11.4058 106.197 10.9114C106.249 10.1729 106.302 9.43762 106.236 8.68673C106.221 8.57692 106.128 8.49811 106.035 8.4208C105.911 8.31538 105.79 8.21271 105.873 8.03792C105.895 8.02226 105.916 8.00597 105.939 7.98957C106.099 7.87041 106.267 7.74594 106.49 7.82177C106.649 7.82191 106.75 7.93634 106.849 8.04879C106.886 8.09096 106.923 8.13286 106.963 8.16834ZM90.5463 8.72996C90.5826 8.55704 90.6554 8.34126 90.7279 8.16834C90.4756 8.2182 90.2598 8.35514 90.0523 8.48678C89.9015 8.58248 89.7551 8.67538 89.6023 8.72996C89.5713 8.78549 89.5205 8.80943 89.4724 8.83208C89.4078 8.86247 89.3482 8.89054 89.3482 8.98953H89.4569C89.6023 9.03294 89.7111 9.16245 89.7476 9.29195L89.7839 10.9781L89.7111 11.1508C89.5139 11.2412 89.3294 11.3617 89.147 11.4809C88.8926 11.6471 88.6424 11.8106 88.3675 11.8859C88.3577 11.8743 88.3479 11.8659 88.3389 11.8579C88.3143 11.8365 88.2949 11.8195 88.2949 11.7564C88.3069 11.5124 88.2869 11.2493 88.2668 10.9845C88.2263 10.452 88.1853 9.91264 88.4038 9.50829C87.9317 9.68121 87.423 9.94077 87.0235 10.2866C87.0586 10.3283 87.1087 10.3655 87.1605 10.404C87.2698 10.4853 87.3869 10.5722 87.3869 10.7185L87.4956 15.5174C87.4593 15.7764 87.3867 16.0794 87.2777 16.2952C87.8224 16.0794 88.3673 15.7764 88.8394 15.3873H88.6939C88.5486 15.3445 88.4036 15.2579 88.3673 15.0849C88.2579 14.4995 88.272 13.8406 88.2857 13.2006C88.2901 12.99 88.2947 12.7808 88.2947 12.5776C88.4284 12.4409 88.6026 12.3403 88.7799 12.2378C88.9394 12.1457 89.1014 12.052 89.2388 11.9293C89.2957 11.9158 89.3525 11.8811 89.4093 11.8464C89.5342 11.7702 89.6589 11.694 89.7837 11.8427L89.8201 14.3933L89.7476 14.7825C89.6919 14.7825 89.6999 14.8328 89.7068 14.8759C89.7089 14.8892 89.7109 14.9018 89.7109 14.912C89.806 14.8605 89.9072 14.8091 90.0108 14.7566C90.3421 14.5882 90.6969 14.408 90.9459 14.1771L90.7279 14.0476C90.6241 13.9551 90.613 13.8622 90.6019 13.7697C90.5974 13.7325 90.593 13.6954 90.5826 13.6583L90.5463 8.72996ZM86.314 10.8861C86.3507 11.397 86.3865 11.8945 86.6239 12.3179C86.3235 12.1617 86.2075 11.9015 86.0903 11.6388C85.9808 11.3931 85.8701 11.1452 85.6069 10.9782C85.4787 10.9017 85.379 11.0272 85.3075 11.1172C85.2979 11.1292 85.2888 11.1407 85.2801 11.1509C85.2318 12.4765 85.2801 13.7252 85.3285 14.9736C85.3527 15.5982 85.3769 16.223 85.389 16.8571C85.4616 16.9871 85.5704 17.0734 85.6795 17.1166H85.8972C85.5707 17.35 85.2047 17.5367 84.8388 17.7232C84.5947 17.8478 84.3503 17.9724 84.1179 18.1107C84.5424 17.6688 84.5015 17.0419 84.4629 16.4496C84.4488 16.2313 84.4348 16.0177 84.4446 15.8197L84.372 11.8426C84.3596 11.8131 84.3555 11.7785 84.3514 11.7423C84.3435 11.6725 84.3348 11.5969 84.2632 11.5402C83.9169 11.6351 83.805 11.9857 83.6985 12.3196C83.6597 12.4411 83.6216 12.5604 83.5732 12.6643C83.5563 12.7511 83.5412 12.8399 83.5259 12.9295C83.4424 13.4201 83.3549 13.9347 82.9557 14.2637H82.8831C83.1289 13.8247 83.1206 13.2895 83.1121 12.7512C83.1056 12.3351 83.0991 11.9171 83.2099 11.5402C83.6139 11.3265 84.0116 11.0908 84.4108 10.8543C84.9808 10.5165 85.5539 10.1769 86.1518 9.89743L86.2244 10.0702C86.2747 10.34 86.2945 10.615 86.314 10.8861ZM101.406 13.0099C101.479 12.6208 101.624 12.1021 102.096 11.972C102.406 11.9315 102.585 12.2011 102.726 12.4137L102.75 12.4481C103.04 13.9179 103.003 15.6035 102.714 17.0301C102.682 17.1124 102.657 17.1987 102.631 17.2847C102.535 17.605 102.439 17.9225 102.096 18.0246C101.779 18.0625 101.628 17.7379 101.522 17.5109C101.507 17.4778 101.492 17.4468 101.479 17.4192C101.042 16.0792 101.188 14.3931 101.406 13.0099ZM103.185 17.5921C103.949 15.9065 104.057 13.745 103.331 12.0154C103.076 11.6263 102.714 11.2805 102.205 11.3237C100.933 11.5401 100.571 12.88 100.353 13.8745C100.098 15.3443 100.244 17.0301 101.006 18.2409C101.297 18.4999 101.696 18.6728 102.096 18.5866C102.604 18.4999 102.931 18.0246 103.185 17.5921ZM99.9892 12.5343C99.9734 12.6496 99.9282 12.7649 99.884 12.8801C99.828 13.0242 99.772 13.1684 99.772 13.3126V16.209C99.772 17.2463 99.772 18.2839 99.8437 19.2349C99.9164 19.3644 100.026 19.4513 100.135 19.4945L100.098 19.5808C99.662 19.8838 99.2268 20.1427 98.7542 20.3591C98.9723 19.9698 99.045 19.4513 99.0086 18.8891L98.9359 14.9986L98.8632 13.6582C98.8338 13.5512 98.7296 13.4734 98.6324 13.401C98.6117 13.3858 98.5917 13.3708 98.5727 13.3558C98.763 13.1971 98.9733 13.0859 99.1884 12.9726C99.383 12.8696 99.5814 12.7649 99.772 12.6209C99.8074 12.6209 99.8437 12.5993 99.8801 12.5776C99.9165 12.556 99.9528 12.5343 99.9892 12.5343ZM98.2417 15.1232C98.2331 14.6811 98.2241 14.2268 98.1374 13.7879C98.1374 13.745 98.0278 13.7016 97.9554 13.7016C97.5199 13.9391 97.0753 14.1982 96.6308 14.4573C96.1856 14.7168 95.7402 14.9765 95.3038 15.2143L95.2314 15.3872C95.2314 15.5544 95.239 15.7349 95.2467 15.9215C95.2631 16.3148 95.2806 16.7356 95.2314 17.1167H95.2681C95.4086 16.8933 95.4685 16.6298 95.5288 16.3641C95.6085 16.013 95.6891 15.6581 95.9581 15.3872C96.067 15.3011 96.2124 15.3011 96.2846 15.4307L96.3575 18.0246V21.1804L96.2488 21.7858C96.7207 21.6561 97.1566 21.3965 97.5561 21.0507C97.3744 20.9646 97.229 20.8345 97.1566 20.6616L97.1202 18.7163V15.0849L97.1566 14.912C97.1687 14.8977 97.1808 14.8828 97.1928 14.8678C97.2905 14.7472 97.3944 14.619 97.5561 14.6958C97.8691 14.845 97.9422 15.1225 98.0167 15.4053C98.072 15.6148 98.128 15.8272 98.2827 15.9928C98.2532 15.7142 98.2475 15.4215 98.2417 15.1232ZM92.6892 16.8572C92.5441 17.1164 92.4955 17.4141 92.4471 17.7117C92.4228 17.8608 92.3986 18.01 92.3621 18.1543L92.1445 19.3216L91.5271 22.6934C91.4208 22.9938 91.3729 23.3346 91.3245 23.678C91.2407 24.2733 91.1559 24.8758 90.7644 25.2873C90.7644 24.9029 90.6795 24.5591 90.591 24.2005C90.55 24.0344 90.5083 23.8651 90.4737 23.6873L89.5659 20.2293L89.5474 20.1549C89.4431 19.7347 89.3172 19.2274 88.8031 19.1051V19.0617C88.953 18.9725 89.0998 18.8758 89.2462 18.7793C89.5962 18.5486 89.9443 18.3192 90.3284 18.1973C90.1253 18.4386 90.1744 18.8304 90.2117 19.1275L90.2196 19.1914C90.3166 19.8547 90.478 20.4795 90.6394 21.1044C90.7201 21.4164 90.8007 21.7282 90.8733 22.045C90.8915 22.045 90.9097 22.0557 90.9278 22.0664C90.946 22.0771 90.9642 22.0878 90.9824 22.0878C91.1332 21.6006 91.2073 21.0828 91.2805 20.5707C91.3307 20.2198 91.3806 19.8713 91.4545 19.5372C91.472 19.4022 91.4999 19.2621 91.5283 19.1201C91.6178 18.6713 91.7114 18.2022 91.4907 17.8082C91.4545 17.722 91.3453 17.6353 91.2727 17.6353C91.6361 17.3329 92.1081 17.0733 92.5802 16.857L92.6892 16.8572ZM106.309 20.4454C106.454 20.1427 106.454 19.7102 106.309 19.4512C106.271 19.4062 106.242 19.3559 106.214 19.3076C106.162 19.2171 106.113 19.1337 106.019 19.1055C105.728 18.976 105.364 18.9326 105.074 19.1055C105.074 19.1201 105.066 19.1393 105.057 19.1617C105.038 19.2066 105.014 19.2641 105.038 19.3219C105.401 19.4514 105.582 19.8404 105.582 20.2297C105.513 20.9475 105.25 21.5949 104.985 22.2507C104.835 22.6215 104.683 22.9949 104.566 23.3853C104.52 23.4032 104.494 23.4506 104.468 23.4971C104.432 23.5627 104.397 23.6264 104.311 23.6009C104.157 23.3486 104.043 23.0839 103.928 22.8132C103.826 22.5745 103.722 22.3313 103.585 22.0882C103.399 21.793 103.504 21.4036 103.584 21.1078C103.598 21.057 103.611 21.0089 103.621 20.9646C103.231 21.097 102.885 21.3311 102.532 21.5692C102.424 21.6418 102.316 21.7151 102.205 21.7858L102.495 22.0019C102.967 22.8663 103.403 23.7308 103.803 24.5954C103.911 25.3739 103.911 26.2381 103.911 27.0598C103.891 27.2634 103.819 27.4369 103.748 27.6069C103.699 27.7258 103.651 27.8429 103.621 27.9673C103.844 27.8042 104.083 27.6701 104.319 27.5375C104.583 27.389 104.844 27.2426 105.074 27.0598C105.045 27.0072 104.997 26.9617 104.952 26.9176C104.884 26.8528 104.819 26.7911 104.819 26.714C104.747 26.0219 104.747 25.2009 104.784 24.5093C104.998 23.8807 105.242 23.2698 105.486 22.6605L105.487 22.6604C105.78 21.9291 106.072 21.2001 106.309 20.4454ZM87.895 21.0506C87.895 22.6067 87.895 24.1632 87.9676 25.7192C87.9901 25.7593 88.0021 25.7994 88.0134 25.8369C88.0386 25.9209 88.06 25.9921 88.1855 26.0218C88.3302 26.0909 88.4289 26.0225 88.5365 25.948C88.5638 25.9292 88.5919 25.9096 88.6212 25.8921C88.8955 25.6067 88.9676 25.2345 89.0397 24.862C89.1204 24.445 89.2013 24.0274 89.5658 23.7306H89.7108C89.4932 24.2494 89.4566 24.8114 89.4932 25.3735C89.4749 25.4599 89.4749 25.5572 89.4749 25.6545C89.4749 25.7517 89.4749 25.849 89.4566 25.9355C88.8692 26.32 88.2342 26.6764 87.6093 27.0272L87.6081 27.0278L87.6062 27.0289C87.4595 27.1112 87.3134 27.1933 87.1686 27.2753L87.1322 27.2319L87.1686 26.4542L87.1322 22.5204L87.0961 20.8344C86.987 20.5753 86.7328 20.4452 86.4787 20.4452C86.6751 20.3282 86.8631 20.2016 87.0485 20.0767C87.4117 19.832 87.7646 19.5942 88.1493 19.4511C87.9266 19.7827 87.9174 20.2411 87.9088 20.6705C87.9061 20.8014 87.9035 20.9295 87.895 21.0506ZM101.373 22.5966C101.409 22.4672 101.442 22.3427 101.442 22.2182C101.398 22.2392 101.354 22.2596 101.311 22.2799C100.999 22.4252 100.716 22.5576 100.462 22.8234C100.418 22.9665 100.375 23.109 100.332 23.2509C100.049 24.1798 99.774 25.0848 99.5539 26.0224C99.5284 26.0374 99.5117 26.0734 99.495 26.1103C99.4635 26.1795 99.4301 26.2517 99.3358 26.1953C99.1364 25.8712 98.9458 25.5364 98.7552 25.2014L98.7542 25.2012C98.5638 24.8664 98.3731 24.5314 98.1733 24.2072C97.8611 24.2407 97.5933 24.433 97.3351 24.6185C97.263 24.6703 97.1916 24.7216 97.1202 24.7687C97.3383 24.8555 97.5925 24.985 97.6649 25.2446L97.7378 27.6652L97.7737 30.5183C97.7737 30.7757 97.6943 30.9951 97.6194 31.202C97.5812 31.3078 97.5442 31.4102 97.5195 31.5127C97.5695 31.488 97.62 31.4631 97.6708 31.4382C98.0624 31.2457 98.4696 31.0455 98.7905 30.7778C98.7336 30.6764 98.6324 30.6013 98.5392 30.5319C98.5132 30.5125 98.4876 30.4936 98.4639 30.4747C98.4045 29.7202 98.4099 29.017 98.4154 28.3091C98.4199 27.7195 98.4245 27.1263 98.3917 26.4976C98.3917 26.4547 98.4641 26.4113 98.5371 26.4113C98.7002 26.6297 98.8171 26.8616 98.934 27.092C99.0253 27.272 99.1157 27.451 99.2268 27.6217C99.2995 27.7949 99.4085 27.9676 99.5539 28.0108C99.7504 27.5172 99.9076 27.0238 100.065 26.5302C100.169 26.2025 100.273 25.8746 100.389 25.5469C100.425 25.5035 100.462 25.4602 100.498 25.5035L100.534 28.6162C100.534 28.7288 100.54 28.8379 100.546 28.9454C100.561 29.2091 100.575 29.4636 100.498 29.7396C100.933 29.5673 101.297 29.3511 101.696 29.0481L101.694 29.0469C101.55 28.9609 101.406 28.8748 101.37 28.7023L101.297 25.3303V23.0393C101.297 22.8821 101.336 22.7365 101.373 22.5966ZM82.5197 22.996C82.0476 23.6008 82.1201 24.6388 82.3381 25.3304C82.1151 25.3304 81.9776 25.1775 81.8436 25.0284C81.8031 24.9833 81.7628 24.9385 81.7206 24.8984C81.6951 24.8984 81.6654 24.9009 81.6342 24.9033C81.5324 24.9115 81.413 24.921 81.3573 24.8552C81.4665 24.6818 81.5391 24.4661 81.5391 24.2932C81.5391 23.9901 81.4301 23.7311 81.1396 23.601C80.7763 23.3854 80.2678 23.4286 79.9046 23.6877C79.6139 23.9901 79.396 24.336 79.5776 24.7252C79.8385 25.3465 80.3767 25.7513 80.9223 26.1618C81.4401 26.5515 81.9647 26.9461 82.2653 27.5355C82.6286 28.4433 82.5195 29.6107 81.9386 30.3885C81.4301 30.9939 80.6673 31.3397 79.7957 31.2099C79.251 31.0802 78.7426 30.6482 78.5974 30.1292C78.4158 29.5675 78.6336 29.0916 79.0331 28.7893C79.3236 28.573 79.7597 28.573 80.0138 28.7893C80.1592 28.8758 80.2318 29.0055 80.2318 29.1784C80.1933 29.2472 80.1342 29.2307 80.071 29.2131C80.0152 29.1975 79.9561 29.181 79.905 29.2216C79.7597 29.3079 79.578 29.4375 79.5417 29.5675C79.5417 29.6237 79.54 29.6739 79.5385 29.7197C79.5329 29.8849 79.5291 29.994 79.6143 30.1292C79.8685 30.4321 80.1954 30.5182 80.5951 30.4748C81.0672 30.3458 81.5754 29.8266 81.6482 29.2651C81.7697 28.1328 81.0006 27.5374 80.2202 26.9333C79.5997 26.4528 78.972 25.9669 78.7789 25.201C78.561 24.3794 78.8515 23.601 79.5056 23.1691C80.1592 22.7371 80.9946 22.7801 81.6846 23.0828C81.9024 22.9094 82.2292 22.7369 82.5199 22.8233L82.5197 22.996ZM84.6989 23.4716L84.8443 23.4283L85.1712 25.5031C85.0263 25.7105 84.7886 25.8071 84.5509 25.9039C84.4908 25.9283 84.4307 25.9528 84.3722 25.9789C84.3722 25.4605 84.4807 24.8128 84.5828 24.2031C84.6254 23.9487 84.6669 23.7007 84.6989 23.4716ZM84.9895 21.4832C84.9895 21.2668 84.9895 20.9644 85.1711 20.7915C84.7732 20.9006 84.6073 21.2864 84.4562 21.6378C84.428 21.7033 84.4004 21.7677 84.3719 21.8289C84.1659 22.885 83.9806 23.9576 83.795 25.0323C83.5552 26.4208 83.3147 27.8132 83.0281 29.1779C82.9965 29.272 82.9509 29.3665 82.9036 29.4645C82.8425 29.5911 82.7785 29.7237 82.7376 29.8696C82.8523 29.8059 82.9734 29.7423 83.0976 29.6769C83.5633 29.4321 84.0719 29.1645 84.4446 28.7888C84.3997 28.8156 84.3686 28.8093 84.3257 28.8005C84.2992 28.7951 84.2682 28.7888 84.2266 28.7888C83.7646 28.569 83.9561 27.8505 84.069 27.4265C84.0892 27.3509 84.1069 27.2844 84.1179 27.2321C84.1245 27.2006 84.1299 27.1649 84.1357 27.1268C84.1613 26.9565 84.1938 26.7411 84.372 26.6706C84.4169 26.6528 84.4926 26.6129 84.5813 26.5662C84.708 26.4996 84.8613 26.419 84.9895 26.3682C85.0095 26.3586 85.0281 26.3491 85.0457 26.3402C85.1875 26.2676 85.2557 26.2329 85.3528 26.5406L85.3738 26.6054C85.5502 27.1493 85.7384 27.7297 85.389 28.2701C85.7964 28.1315 86.1573 27.9097 86.5088 27.6936L86.5099 27.693C86.5968 27.6396 86.683 27.5866 86.7693 27.5352C86.7894 27.4147 86.7195 27.3212 86.6473 27.2245C86.5898 27.1477 86.5309 27.0689 86.5147 26.9731C86.2427 26.0662 85.9978 25.1487 85.753 24.2311C85.5076 23.3115 85.2623 22.3919 84.9895 21.4832ZM95.1592 26.5841C94.9773 26.5841 94.7591 26.7141 94.7232 26.8867C94.6504 27.7084 94.6867 28.659 94.7232 29.524C94.7591 29.6535 94.9046 29.6535 95.0139 29.6535C95.3404 29.6535 95.631 29.4374 95.7763 29.1782C96.0303 28.4433 96.2486 27.4492 95.8127 26.7571C95.631 26.6274 95.4134 26.5841 95.1592 26.5841ZM96.8659 26.8003C97.229 27.578 96.9746 28.5727 96.5388 29.178C96.4678 29.3305 96.3297 29.4364 96.1947 29.5402C95.985 29.7011 95.7825 29.8566 95.8487 30.1722C96.1034 31.2097 96.3934 32.2905 97.3383 32.939C97.5561 33.0686 97.8466 33.0686 98.1007 33.0254C98.1007 33.2848 97.8102 33.4144 97.5925 33.4577C96.4081 33.5005 95.7915 32.2775 95.3563 31.4143L95.3404 31.3827C95.1592 30.9504 95.0139 30.5178 94.9046 30.1288L94.7957 30.0425L94.7233 30.1288C94.7051 30.562 94.7142 31.0058 94.7233 31.4496C94.7323 31.892 94.7414 32.3343 94.7233 32.7661C94.7566 32.8255 94.8205 32.8578 94.88 32.8876C94.9501 32.9229 95.014 32.955 95.014 33.0252C94.6504 33.3281 94.251 33.5442 93.8155 33.7167C93.9202 33.268 93.8918 32.8047 93.8631 32.3353C93.842 31.9911 93.8208 31.6436 93.8515 31.2962C93.8336 30.6474 93.8245 29.9663 93.8155 29.2796C93.8063 28.5936 93.7972 27.902 93.7789 27.2322C93.7063 27.1032 93.5974 26.9732 93.4523 26.9732H93.2346C93.4219 26.7129 93.7439 26.5482 94.0385 26.3973C94.0863 26.373 94.1332 26.3489 94.1788 26.3249C94.7597 25.9791 95.6313 25.7629 96.2492 26.1514C96.5029 26.3249 96.7207 26.5841 96.8659 26.8003ZM90.9459 30.0423L91.055 29.6967C91.2305 30.1145 91.3264 30.5641 91.423 31.0166C91.4862 31.3128 91.5497 31.6103 91.6359 31.9009C91.6721 31.9877 91.6721 32.0743 91.6359 32.2038C91.5631 32.2472 91.4916 32.2924 91.4207 32.3372C91.1386 32.5156 90.8657 32.6881 90.5464 32.7226C90.5717 32.0856 90.6866 31.47 90.8031 30.8457C90.8526 30.5803 90.9025 30.3132 90.9459 30.0423ZM92.9796 33.7166L92.2533 30.6045C92.1661 30.1029 92.0441 29.6152 91.922 29.1274C91.7389 28.3961 91.556 27.6648 91.4904 26.8865C91.1254 27.1762 90.9895 27.5572 90.8484 27.9529C90.8211 28.0296 90.7936 28.1068 90.7641 28.184C90.6118 29.1157 90.4203 30.0477 90.2289 30.98C90.1006 31.6042 89.9724 32.2285 89.8559 32.8529C89.7984 33.1493 89.7484 33.4458 89.6987 33.7407C89.5602 34.5635 89.4236 35.3741 89.1296 36.1377C89.0961 36.2375 89.0317 36.3188 88.9685 36.3986C88.8947 36.4919 88.8224 36.5833 88.8028 36.6997C89.3477 36.4836 89.8926 36.1377 90.4008 35.7919L90.4373 35.7056C90.2918 35.7056 90.1465 35.6624 90.0739 35.4895C90.0255 35.086 90.1063 34.6827 90.1869 34.2792C90.2273 34.0774 90.2677 33.8756 90.2918 33.6738C90.6539 33.3718 91.0883 33.1563 91.523 32.9408L91.5267 32.9389C91.6358 32.8954 91.8537 32.8092 91.8898 32.9817C91.9195 33.0875 91.9552 33.1969 91.9916 33.3087C92.1341 33.7458 92.2889 34.2205 92.1444 34.6683C92.5075 34.5382 92.9068 34.3653 93.2701 34.0624C93.2482 34.0363 93.2129 34.0102 93.1745 33.9817C93.0857 33.916 92.9796 33.8376 92.9796 33.7166ZM94.0331 18.2409L93.9238 18.2839C93.7786 19.0188 93.5972 20.0133 93.5972 20.7483C93.662 20.7151 93.7316 20.6848 93.8028 20.6537C94.0111 20.5631 94.234 20.4659 94.3962 20.2724L94.0331 18.2409ZM94.8683 18.8458C94.9745 19.2431 95.0679 19.6553 95.162 20.0701C95.293 20.6485 95.4252 21.2317 95.5944 21.7856C95.6132 21.8527 95.6807 21.9083 95.7414 21.9582C95.7979 22.0048 95.8485 22.0464 95.8485 22.0881C95.449 22.391 95.0137 22.6501 94.5776 22.823C94.65 22.5205 94.723 22.1314 94.6864 21.7856L94.5047 21.1373C94.4686 21.0073 94.3233 21.0507 94.2145 21.0939C94.1076 21.2028 93.9623 21.2735 93.8163 21.3446C93.6147 21.4428 93.4117 21.5416 93.3064 21.7423C93.3064 21.9583 93.2623 22.1594 93.2186 22.3581C93.1576 22.6362 93.0977 22.9096 93.1614 23.2122C93.234 23.3851 93.4517 23.3851 93.6696 23.3851C93.489 23.4926 93.3154 23.6042 93.1434 23.7149C92.7753 23.9517 92.4143 24.1838 92.0071 24.3602C92.4161 23.3784 92.5957 22.3114 92.7734 21.2566C92.8764 20.6444 92.9788 20.0363 93.1249 19.4514C93.2301 19.0198 93.3015 18.575 93.3729 18.1296C93.5232 17.1917 93.6739 16.2517 94.1419 15.4309L94.2147 15.3874C94.192 16.1422 94.3811 16.8466 94.5707 17.5528C94.6853 17.9793 94.8 18.4064 94.8683 18.8458ZM92.0071 24.3602L91.9992 24.3793H91.9626L92.0071 24.3602Z" fill="black" fill-opacity="0.4"/>
</g>
</g>
<defs>
<clipPath id="clip0_187_252">
<rect width="186.67" height="43.23" fill="white" transform="translate(0.349609 0.22998)"/>
</clipPath>
</defs>
</svg>
