<svg width="188" height="44" viewBox="0 0 188 44" fill="none" xmlns="http://www.w3.org/2000/svg">
<path d="M54.4793 27.9526C51.8326 27.9526 49.3182 26.3752 48.2596 23.8776C47.2009 21.3801 47.7302 18.4882 49.7152 16.6479C51.5679 14.6761 54.4793 14.1503 56.9936 15.2019C59.508 16.2535 61.096 18.6196 61.096 21.3801C61.2283 24.9292 58.1846 27.9526 54.4793 27.9526ZM54.4793 12.1786C50.7739 12.1786 47.4656 14.4132 46.0099 17.8309C44.5542 21.2486 45.3482 25.1921 47.9949 27.8211C50.6416 30.4501 54.6116 31.2389 58.0523 29.7929C61.493 28.3469 63.7427 25.0607 63.7427 21.3801C63.6103 16.2535 59.6403 12.1786 54.4793 12.1786Z" fill="black" fill-opacity="0.4"/>
<path d="M88.4892 12.7043C88.3569 12.7043 88.3569 12.7043 88.2245 12.8358L78.8288 25.5865L69.4331 12.8358C69.4331 12.7043 69.3007 12.7043 69.1684 12.7043C69.0361 12.7043 68.9037 12.8358 68.9037 12.9672V29.9243H71.4181V19.9341L78.6965 29.6614L78.8288 29.7929C78.8288 29.7929 78.9611 29.7929 78.9611 29.6614L86.2395 19.9341V29.9243H88.7539V12.9672C88.7539 12.9672 88.7539 12.8358 88.6215 12.8358C88.6215 12.7043 88.4892 12.7043 88.4892 12.7043Z" fill="black" fill-opacity="0.4"/>
<path d="M103.84 21.2486H98.0173V15.2019H103.84C105.56 15.2019 106.884 16.5164 106.884 18.2252C106.884 19.9341 105.56 21.2486 103.84 21.2486ZM103.84 12.7043H95.5029V29.9243H98.0173V23.7462H103.84C106.884 23.7462 109.398 21.2486 109.398 18.2252C109.398 15.2019 106.884 12.7043 103.84 12.7043Z" fill="black" fill-opacity="0.4"/>
<path d="M33.9675 27.9526C30.7914 27.9526 28.1448 25.8494 27.3508 22.8261C26.6891 19.8027 28.1448 16.6479 31.0561 15.3334C33.8351 14.0189 37.2758 14.8076 39.1285 17.3052L40.9812 15.5963C38.4668 12.573 34.4968 11.5214 30.7914 12.8359C27.0861 14.1504 24.7041 17.5681 24.7041 21.3801C24.7041 25.1922 27.0861 28.6099 30.7914 29.9244C34.3645 31.2389 38.4668 30.0558 40.9812 27.1639L39.1285 25.4551C37.9375 27.0325 36.0848 27.9526 33.9675 27.9526Z" fill="black" fill-opacity="0.4"/>
<path d="M138.909 19.8028L137.056 19.4084C135.071 19.014 134.806 17.5681 134.806 17.1738C134.806 15.7278 135.997 14.9391 137.85 14.9391C139.835 14.9391 141.291 16.2536 141.82 16.7794L143.54 15.0706C141.952 13.3617 140.1 12.573 137.85 12.573C134.542 12.573 132.292 14.4133 132.292 17.1738C132.292 18.0939 132.292 20.7229 136.791 21.7745L138.909 22.3003C140.894 22.8261 141.82 23.7463 141.82 25.1922C141.82 26.7696 140.232 27.9527 137.982 27.9527C135.6 27.9527 134.145 26.3753 133.615 25.718L131.895 27.4268C133.086 28.7414 135.071 30.3188 137.982 30.3188C141.555 30.3188 144.334 28.0841 144.334 25.1922C144.334 22.4318 142.482 20.5915 138.909 19.8028Z" fill="black" fill-opacity="0.4"/>
<path d="M155.715 19.8028L153.862 19.4084C151.877 19.014 151.613 17.5681 151.613 17.1738C151.613 15.7278 152.804 14.9391 154.656 14.9391C156.641 14.9391 158.097 16.2536 158.626 16.7794L160.347 15.0706C158.759 13.3617 156.774 12.573 154.656 12.573C151.348 12.573 149.098 14.4133 149.098 17.1738C149.098 18.0939 149.098 20.7229 153.598 21.7745L155.715 22.3003C157.7 22.8261 158.626 23.7463 158.626 25.1922C158.626 26.7696 157.038 27.9527 154.789 27.9527C152.407 27.9527 150.951 26.3753 150.422 25.718L148.701 27.4268C149.892 28.7414 151.877 30.3188 154.789 30.3188C158.362 30.3188 161.141 28.0841 161.141 25.1922C161.008 22.4318 159.156 20.5915 155.715 19.8028Z" fill="black" fill-opacity="0.4"/>
<path d="M116.676 22.9576L119.588 17.5681L122.499 22.9576H116.676ZM119.588 12.573C119.455 12.573 119.455 12.573 119.323 12.7044L110.192 29.9244H112.971L115.353 25.5866H123.69L126.072 29.9244H128.851L119.72 12.7044L119.588 12.573Z" fill="black" fill-opacity="0.4"/>
<path d="M50.6416 23.4833L52.3619 25.1922L58.4493 19.1455L56.729 17.4366L50.6416 23.4833Z" fill="black" fill-opacity="0.4"/>
</svg>
