<svg width="188" height="44" viewBox="0 0 188 44" fill="none" xmlns="http://www.w3.org/2000/svg">
<mask id="mask0_187_337" style="mask-type:luminance" maskUnits="userSpaceOnUse" x="50" y="1" width="88" height="41">
<path d="M50.0588 1.6062V41.6203H137.952V1.6062H50.0588Z" fill="white"/>
</mask>
<g mask="url(#mask0_187_337)">
<path d="M137.417 41.2397L137.24 40.7907C137.343 40.7025 137.356 40.6449 137.356 40.5491C137.355 40.3825 137.235 40.28 137.041 40.28H136.798V41.2407H136.934V40.8091H137.1L137.273 41.2397H137.417ZM136.934 40.6995V40.3972H137.025C137.156 40.3972 137.212 40.4538 137.213 40.5435C137.213 40.6225 137.171 40.6995 137.025 40.6995H136.934Z" fill="black" fill-opacity="0.4"/>
</g>
<mask id="mask1_187_337" style="mask-type:luminance" maskUnits="userSpaceOnUse" x="50" y="1" width="88" height="41">
<path d="M50.0588 1.6062V41.6203H137.952V1.6062H50.0588Z" fill="white"/>
</mask>
<g mask="url(#mask1_187_337)">
<path d="M137.08 41.6204C136.598 41.6204 136.206 41.229 136.206 40.7473C136.206 40.2673 136.598 39.877 137.08 39.877C137.56 39.877 137.952 40.2673 137.952 40.7473C137.952 41.229 137.56 41.6204 137.08 41.6204ZM137.08 39.987C136.659 39.987 136.317 40.33 136.317 40.7473C136.317 41.1693 136.659 41.5077 137.08 41.5077C137.498 41.5077 137.839 41.1693 137.839 40.7473C137.839 40.33 137.498 39.987 137.08 39.987Z" fill="black" fill-opacity="0.4"/>
</g>
<mask id="mask2_187_337" style="mask-type:luminance" maskUnits="userSpaceOnUse" x="50" y="1" width="88" height="41">
<path d="M50.0588 1.6062V41.6203H137.952V1.6062H50.0588Z" fill="white"/>
</mask>
<g mask="url(#mask2_187_337)">
<path d="M91.1156 32.6254L88.7708 39.9034L85.9465 32.6703H85.2218L88.6174 41.5449H88.9359L91.3632 33.7216L93.8318 41.5449H94.1508L97.53 32.6703H96.7886L94.0045 39.8973L91.6297 32.6254H91.1156Z" fill="black" fill-opacity="0.4"/>
</g>
<mask id="mask3_187_337" style="mask-type:luminance" maskUnits="userSpaceOnUse" x="50" y="1" width="88" height="41">
<path d="M50.0588 1.6062V41.6203H137.952V1.6062H50.0588Z" fill="white"/>
</mask>
<g mask="url(#mask3_187_337)">
<path d="M100.46 32.6626V41.4726H104.77V40.9048H101.143V32.6626H100.46Z" fill="black" fill-opacity="0.4"/>
</g>
<mask id="mask4_187_337" style="mask-type:luminance" maskUnits="userSpaceOnUse" x="50" y="1" width="88" height="41">
<path d="M50.0588 1.6062V41.6203H137.952V1.6062H50.0588Z" fill="white"/>
</mask>
<g mask="url(#mask4_187_337)">
<path d="M106.026 32.6626V41.4726H110.336V40.9048H106.706V32.6626H106.026Z" fill="black" fill-opacity="0.4"/>
</g>
<mask id="mask5_187_337" style="mask-type:luminance" maskUnits="userSpaceOnUse" x="50" y="1" width="88" height="41">
<path d="M50.0588 1.6062V41.6203H137.952V1.6062H50.0588Z" fill="white"/>
</mask>
<g mask="url(#mask5_187_337)">
<path d="M111.537 41.4726H112.22V32.6637H111.537V41.4726Z" fill="black" fill-opacity="0.4"/>
</g>
<mask id="mask6_187_337" style="mask-type:luminance" maskUnits="userSpaceOnUse" x="50" y="1" width="88" height="41">
<path d="M50.0588 1.6062V41.6203H137.952V1.6062H50.0588Z" fill="white"/>
</mask>
<g mask="url(#mask6_187_337)">
<path d="M98.5177 41.4726H99.2051V32.6637H98.5177V41.4726Z" fill="black" fill-opacity="0.4"/>
</g>
<mask id="mask7_187_337" style="mask-type:luminance" maskUnits="userSpaceOnUse" x="50" y="1" width="88" height="41">
<path d="M50.0588 1.6062V41.6203H137.952V1.6062H50.0588Z" fill="white"/>
</mask>
<g mask="url(#mask7_187_337)">
<path d="M116.829 32.6167L113.186 41.4726H113.821L115.069 38.4296H118.92L120.165 41.4726H120.804L117.162 32.6167H116.829ZM116.988 33.7247L118.689 37.8649H115.302L116.988 33.7247Z" fill="black" fill-opacity="0.4"/>
</g>
<mask id="mask8_187_337" style="mask-type:luminance" maskUnits="userSpaceOnUse" x="50" y="1" width="88" height="41">
<path d="M50.0588 1.6062V41.6203H137.952V1.6062H50.0588Z" fill="white"/>
</mask>
<g mask="url(#mask8_187_337)">
<path d="M129.136 32.6799L125.785 36.7692L122.434 32.6799H121.749V41.4725H122.434V33.6757H122.459L125.785 37.7838L129.108 33.6757H129.136V41.4725H129.82V32.6799H129.136Z" fill="black" fill-opacity="0.4"/>
</g>
<mask id="mask9_187_337" style="mask-type:luminance" maskUnits="userSpaceOnUse" x="50" y="1" width="88" height="41">
<path d="M50.0588 1.6062V41.6203H137.952V1.6062H50.0588Z" fill="white"/>
</mask>
<g mask="url(#mask9_187_337)">
<path d="M135.472 34.1069C134.915 33.3878 134.124 33.217 133.517 33.217C132.462 33.217 131.663 33.9402 131.663 34.8968C131.663 37.2406 135.85 36.1209 135.85 39.2016C135.85 40.5542 134.73 41.6101 133.298 41.6101C132.577 41.6101 131.804 41.4134 131.041 40.8365V40.0379C131.899 40.8508 132.577 40.9798 133.259 40.9798C134.305 40.9798 135.113 40.2183 135.113 39.2266C135.113 36.7258 130.927 37.8201 130.927 34.9223C130.927 33.6222 132.059 32.5912 133.454 32.5872C134.163 32.5872 135.068 32.8771 135.472 33.3603V34.1069Z" fill="black" fill-opacity="0.4"/>
</g>
<mask id="mask10_187_337" style="mask-type:luminance" maskUnits="userSpaceOnUse" x="50" y="1" width="88" height="41">
<path d="M50.0588 1.6062V41.6203H137.952V1.6062H50.0588Z" fill="white"/>
</mask>
<g mask="url(#mask10_187_337)">
<path d="M63.2003 32.6901V41.497H67.7277V40.3591H64.4657V32.6901H63.2003Z" fill="black" fill-opacity="0.4"/>
</g>
<mask id="mask11_187_337" style="mask-type:luminance" maskUnits="userSpaceOnUse" x="50" y="1" width="88" height="41">
<path d="M50.0588 1.6062V41.6203H137.952V1.6062H50.0588Z" fill="white"/>
</mask>
<g mask="url(#mask11_187_337)">
<path d="M68.5385 32.6901V41.497H73.0659V40.3591H69.8043V32.6901H68.5385Z" fill="black" fill-opacity="0.4"/>
</g>
<mask id="mask12_187_337" style="mask-type:luminance" maskUnits="userSpaceOnUse" x="50" y="1" width="88" height="41">
<path d="M50.0588 1.6062V41.6203H137.952V1.6062H50.0588Z" fill="white"/>
</mask>
<g mask="url(#mask12_187_337)">
<path d="M73.8818 32.6901V41.497H78.9964V40.3591H75.1472V37.6239H78.7522V36.4859H75.1472V33.826H78.8796V32.6901H73.8818Z" fill="black" fill-opacity="0.4"/>
</g>
<mask id="mask13_187_337" style="mask-type:luminance" maskUnits="userSpaceOnUse" x="50" y="1" width="88" height="41">
<path d="M50.0588 1.6062V41.6203H137.952V1.6062H50.0588Z" fill="white"/>
</mask>
<g mask="url(#mask13_187_337)">
<path d="M85.4949 41.4949L83.8642 37.3807C84.834 36.5796 84.9436 36.0359 84.9329 35.1547C84.9191 33.6309 83.8244 32.6901 82.0414 32.6901H79.8204V41.4981H81.0863V37.5596C81.0863 37.5596 82.1315 37.5606 82.5943 37.5576L84.1863 41.4949H85.4949ZM81.0863 36.5393V33.7751H81.8991C83.1263 33.7751 83.617 34.2796 83.6303 35.1048C83.6436 35.8427 83.2552 36.5393 81.8991 36.5393H81.0863Z" fill="black" fill-opacity="0.4"/>
</g>
<mask id="mask14_187_337" style="mask-type:luminance" maskUnits="userSpaceOnUse" x="50" y="1" width="88" height="41">
<path d="M50.0588 1.6062V41.6203H137.952V1.6062H50.0588Z" fill="white"/>
</mask>
<g mask="url(#mask14_187_337)">
<path d="M57.2693 32.6901V41.4827H62.3737V40.3463H58.5332V37.6142H62.1295V36.4803H58.5332V33.825H62.2584V32.6901H57.2693Z" fill="black" fill-opacity="0.4"/>
</g>
<mask id="mask15_187_337" style="mask-type:luminance" maskUnits="userSpaceOnUse" x="50" y="1" width="88" height="41">
<path d="M50.0588 1.6062V41.6203H137.952V1.6062H50.0588Z" fill="white"/>
</mask>
<g mask="url(#mask15_187_337)">
<path d="M55.0163 32.6901L54.5694 33.1737L51.3266 36.7024V32.6901H50.0634V41.4649H51.3266V38.4525L52.7322 36.9124L54.5724 41.4669H55.8766V41.4659L55.4164 40.3335L53.6327 35.9237L55.5525 33.822L56.5864 32.6901H55.0163Z" fill="black" fill-opacity="0.4"/>
</g>
<mask id="mask16_187_337" style="mask-type:luminance" maskUnits="userSpaceOnUse" x="50" y="1" width="88" height="41">
<path d="M50.0588 1.6062V41.6203H137.952V1.6062H50.0588Z" fill="white"/>
</mask>
<g mask="url(#mask16_187_337)">
<path d="M50.0588 1.6062V28.2476H53.7759V21.9985L56.5018 19.2894L60.2929 28.2476H64.0589L59.0524 16.3615L62.5673 12.4675L69.3834 28.2476H70.8144L75.9285 16.0425L81.125 28.2476H82.5356L90.3246 10.2796H86.5106L81.8221 21.1817L77.2749 10.2796H74.6442L70.0587 21.1817L65.3442 10.2796H60.4004L53.7759 16.8916V1.6062H50.0588Z" fill="black" fill-opacity="0.4"/>
</g>
</svg>
