<svg width="187" height="44" viewBox="0 0 187 44" fill="none" xmlns="http://www.w3.org/2000/svg">
<path d="M158.772 23.9455C157.927 23.9455 157.24 23.2587 157.24 22.4138C157.24 21.5688 157.927 20.8821 158.772 20.8821C159.616 20.8821 160.302 21.5617 160.302 22.4138C160.302 23.2659 159.623 23.9455 158.772 23.9455ZM158.772 21.1356C158.063 21.1356 157.493 21.6982 157.493 22.4138C157.493 23.1293 158.065 23.692 158.772 23.692C159.477 23.692 160.049 23.1149 160.049 22.4138C160.049 21.7127 159.479 21.1356 158.772 21.1356ZM159.183 23.2947L158.728 22.6008H158.446V23.2947H158.178V21.5383H158.893C159.19 21.5383 159.487 21.7486 159.487 22.074C159.487 22.4641 159.14 22.5936 159.039 22.5936L159.509 23.2947H159.183ZM158.893 21.763H158.446V22.3707H158.893C159.045 22.3707 159.212 22.2556 159.212 22.074C159.212 21.878 159.046 21.763 158.893 21.763Z" fill="black" fill-opacity="0.4"/>
<path d="M26.6404 22.998L29.0359 23.3522C29.0719 23.7027 29.1833 23.9526 29.3666 24.1018C29.5517 24.2492 29.8428 24.3248 30.2418 24.3248C30.7019 24.3248 31.074 24.2492 31.3579 24.0982C31.5573 23.9885 31.7119 23.807 31.8215 23.5535C31.9312 23.3 31.9851 22.8506 31.9851 22.2087V20.8011C31.6706 21.3224 31.3165 21.7126 30.923 21.9732C30.5294 22.2339 30.0944 22.3634 29.6165 22.3634C28.7394 22.3634 28.0008 21.9661 27.4023 21.1733C26.7122 20.2636 26.3671 19.0339 26.3671 17.4824C26.3671 15.8339 26.6924 14.5899 27.343 13.7503C27.9936 12.9108 28.7825 12.4918 29.708 12.4918C30.1987 12.4918 30.6444 12.6231 31.0469 12.8874C31.4496 13.1498 31.8072 13.5454 32.1234 14.0721V12.7184H34.0842V21.3728C34.0842 22.7588 33.9565 23.7638 33.7032 24.3876C33.448 25.0115 33.0562 25.4825 32.5278 25.7989C31.9977 26.1171 31.2645 26.2753 30.3263 26.2753C29.4601 26.2753 28.7682 26.1603 28.247 25.9302C27.7258 25.7001 27.3286 25.3567 27.0537 24.9C26.7787 24.4433 26.6404 23.9149 26.6404 23.3162V22.998ZM28.5093 17.3368C28.5093 18.367 28.6747 19.1203 29.0036 19.593C29.3324 20.0658 29.7314 20.3032 30.1969 20.3032C30.6983 20.3032 31.1278 20.064 31.4854 19.584C31.8431 19.1058 32.0211 18.3778 32.0211 17.4016C32.0211 16.4254 31.8503 15.6506 31.5088 15.1687C31.1674 14.6869 30.745 14.446 30.2418 14.446C29.7386 14.446 29.3324 14.6834 29.0036 15.1562C28.6729 15.6289 28.5093 16.3571 28.5093 17.3386" fill="black" fill-opacity="0.4"/>
<path d="M42.0796 22.3634V20.9216C41.7901 21.4448 41.4092 21.8529 40.9383 22.1495C40.4674 22.4443 39.975 22.5917 39.4611 22.5917C38.947 22.5917 38.4762 22.4551 38.0665 22.1836C37.6567 21.9104 37.3493 21.5238 37.1463 21.0205C36.9432 20.5171 36.8426 19.7872 36.8426 18.8308V12.7184H38.9399V17.1499C38.9399 18.4155 38.9722 19.2191 39.0351 19.5607C39.0981 19.9022 39.2382 20.1684 39.4557 20.3554C39.6731 20.5423 39.9355 20.6375 40.2428 20.6375C40.5933 20.6375 40.9149 20.5153 41.2115 20.2709C41.5062 20.0263 41.7021 19.7117 41.7955 19.327C41.8891 18.9422 41.9357 18.0973 41.9357 16.7886V12.7203H44.033V22.3634H42.0813H42.0796Z" fill="black" fill-opacity="0.4"/>
<path d="M48.5133 15.6524L46.6155 15.2353C46.8455 14.261 47.2248 13.5598 47.7549 13.1338C48.285 12.7077 49.0453 12.4938 50.0373 12.4938C50.9215 12.4938 51.5954 12.6178 52.0609 12.8658C52.5264 13.114 52.8606 13.452 53.0602 13.8798C53.2596 14.3077 53.3602 15.0843 53.3602 16.2116L53.3423 19.1922C53.3423 20.0282 53.3747 20.652 53.4429 21.0601C53.5095 21.47 53.6334 21.9033 53.8149 22.3635H51.7446L51.4733 21.3099C51.1156 21.7343 50.7328 22.0524 50.3249 22.2682C49.9168 22.4821 49.482 22.5899 49.0219 22.5899C48.2527 22.5899 47.6237 22.3311 47.1331 21.8134C46.6424 21.2956 46.398 20.6053 46.398 19.7441C46.398 19.1994 46.4987 18.723 46.6982 18.3167C46.8976 17.9104 47.1798 17.5869 47.5428 17.3441C47.9058 17.1014 48.4864 16.8875 49.2861 16.6987C50.2547 16.474 50.9287 16.2655 51.3097 16.0713C51.3097 15.5356 51.272 15.185 51.1965 15.016C51.121 14.8488 50.9808 14.7122 50.7795 14.6043C50.5765 14.4983 50.2907 14.4443 49.9222 14.4443C49.5538 14.4443 49.2519 14.5288 49.0381 14.6978C48.8224 14.8668 48.6498 15.185 48.5169 15.6506M51.3133 17.7306C51.0473 17.8403 50.6322 17.968 50.0696 18.1136C49.4227 18.2826 48.9985 18.4713 48.7991 18.678C48.5995 18.8848 48.4989 19.1509 48.4989 19.4798C48.4989 19.8501 48.6086 20.1612 48.8296 20.4129C49.0507 20.6645 49.3275 20.7904 49.6599 20.7904C49.9564 20.7904 50.2494 20.6879 50.5405 20.4848C50.8316 20.2817 51.0329 20.0408 51.1443 19.7603C51.2558 19.4816 51.3115 18.9746 51.3115 18.2394V17.7288L51.3133 17.7306Z" fill="black" fill-opacity="0.4"/>
<path d="M58.1801 22.3634H56.0828V12.7184H58.0255V14.0901C58.358 13.4483 58.6563 13.0222 58.9204 12.8101C59.1829 12.5979 59.4883 12.4918 59.8335 12.4918C60.3114 12.4918 60.768 12.6519 61.2047 12.9736L60.5505 15.1993C60.2054 14.9207 59.8784 14.7822 59.5693 14.7822C59.2781 14.7822 59.0229 14.8901 58.8019 15.1059C58.5808 15.3215 58.4226 15.7099 58.3256 16.2743C58.2286 16.8389 58.1801 17.8743 58.1801 19.3827V22.3652V22.3634Z" fill="black" fill-opacity="0.4"/>
<path d="M64.4084 15.6524L62.5107 15.2353C62.7407 14.261 63.1199 13.5598 63.65 13.1338C64.1802 12.7077 64.9404 12.4938 65.9324 12.4938C66.8167 12.4938 67.4906 12.6178 67.956 12.8658C68.4215 13.114 68.7558 13.452 68.9553 13.8798C69.1547 14.3077 69.2554 15.0843 69.2554 16.2116L69.2375 19.1922C69.2375 20.0282 69.2698 20.652 69.3381 21.0601C69.4046 21.47 69.5286 21.9033 69.7101 22.3635H67.6398L67.3684 21.3099C67.0108 21.7343 66.6279 22.0524 66.22 22.2682C65.8121 22.4821 65.3771 22.5899 64.917 22.5899C64.1479 22.5899 63.5189 22.3311 63.0282 21.8134C62.5376 21.2956 62.2932 20.6053 62.2932 19.7441C62.2932 19.1994 62.3939 18.723 62.5933 18.3167C62.7928 17.9104 63.075 17.5869 63.438 17.3441C63.8011 17.1014 64.3815 16.8875 65.1812 16.6987C66.15 16.474 66.8238 16.2655 67.2048 16.0713C67.2048 15.5356 67.1671 15.185 67.0916 15.016C67.0162 14.8488 66.876 14.7122 66.6747 14.6043C66.4716 14.4983 66.1859 14.4443 65.8175 14.4443C65.4491 14.4443 65.1471 14.5288 64.9333 14.6978C64.7176 14.8668 64.5451 15.185 64.412 15.6506M67.2085 17.7306C66.9425 17.8403 66.5273 17.968 65.9649 18.1136C65.3178 18.2826 64.8937 18.4713 64.6942 18.678C64.4947 18.8848 64.3941 19.1509 64.3941 19.4798C64.3941 19.8501 64.5037 20.1612 64.7248 20.4129C64.9458 20.6645 65.2226 20.7904 65.5551 20.7904C65.8516 20.7904 66.1445 20.6879 66.4357 20.4848C66.7268 20.2817 66.9281 20.0408 67.0395 19.7603C67.1509 19.4816 67.2067 18.9746 67.2067 18.2394V17.7288L67.2085 17.7306Z" fill="black" fill-opacity="0.4"/>
<path d="M79.2577 22.3634H77.1604V17.4357C77.1604 16.4487 77.1209 15.7908 77.0419 15.4636C76.9628 15.1364 76.8154 14.8847 76.6015 14.7085C76.3859 14.5324 76.1433 14.4442 75.8701 14.4442C75.5196 14.4442 75.2016 14.5575 74.9175 14.7858C74.6336 15.0123 74.4342 15.3269 74.3191 15.726C74.2041 16.127 74.1466 16.8802 74.1466 17.9894V22.3616H72.0493V12.7184H73.9921V14.126C74.3371 13.5813 74.7253 13.1732 75.1584 12.9C75.5915 12.6285 76.0714 12.4918 76.598 12.4918C77.209 12.4918 77.7248 12.6501 78.1453 12.9682C78.5659 13.2865 78.8552 13.6946 79.0169 14.1962C79.1769 14.696 79.2577 15.4186 79.2577 16.3642V22.3634Z" fill="black" fill-opacity="0.4"/>
<path d="M85.7385 12.7186V14.7519H84.3133V18.6439C84.3133 19.4871 84.3349 19.9744 84.3762 20.1074C84.4607 20.3501 84.6332 20.4705 84.8938 20.4705C85.0879 20.4705 85.3665 20.3897 85.7295 20.226L85.911 22.2053C85.4258 22.4588 84.8794 22.5864 84.2684 22.5864C83.7364 22.5864 83.3087 22.4588 82.9888 22.2053C82.6671 21.9501 82.4532 21.5852 82.3437 21.1051C82.2592 20.7528 82.2161 20.039 82.2161 18.9604V14.7519H81.2545V12.7186H82.2161V10.8021L84.3133 9.3136V12.7186H85.7385Z" fill="black" fill-opacity="0.4"/>
<path d="M92.5355 19.3018L94.6148 19.7278C94.3362 20.6969 93.9032 21.416 93.3154 21.8852C92.7277 22.3544 92.0125 22.5899 91.1714 22.5899C90.0015 22.5899 89.0993 22.1979 88.4631 21.416C87.7119 20.5063 87.3363 19.2334 87.3363 17.5957C87.3363 15.958 87.7137 14.6906 88.4703 13.7197C89.1118 12.9017 89.9403 12.4918 90.9576 12.4918C92.0898 12.4918 92.9758 12.9108 93.6174 13.7467C94.356 14.7049 94.7244 16.1179 94.7244 17.984L94.7155 18.2753H89.4785C89.4911 19.0411 89.6618 19.6344 89.9925 20.0532C90.3231 20.4722 90.7221 20.6824 91.1894 20.6824C91.8633 20.6824 92.3126 20.2222 92.5372 19.3018M92.6469 16.713C92.6289 15.9598 92.4689 15.3934 92.1653 15.0123C91.8633 14.633 91.5021 14.4425 91.0851 14.4425C90.643 14.4425 90.271 14.6402 89.9691 15.0357C89.66 15.4366 89.509 15.9957 89.5144 16.713H92.6469Z" fill="black" fill-opacity="0.4"/>
<path d="M101.758 19.3018L103.838 19.7278C103.559 20.6969 103.125 21.416 102.538 21.8852C101.95 22.3544 101.235 22.5899 100.394 22.5899C99.2239 22.5899 98.322 22.1979 97.6856 21.416C96.9344 20.5063 96.5588 19.2334 96.5588 17.5957C96.5588 15.958 96.9361 14.6906 97.6927 13.7197C98.3348 12.9017 99.163 12.4918 100.18 12.4918C101.313 12.4918 102.198 12.9108 102.839 13.7467C103.578 14.7049 103.947 16.1179 103.947 17.984L103.938 18.2753H98.7013C98.714 19.0411 98.884 19.6344 99.2151 20.0532C99.5452 20.4722 99.9451 20.6824 100.412 20.6824C101.086 20.6824 101.535 20.2222 101.76 19.3018M101.87 16.713C101.851 15.9598 101.692 15.3934 101.387 15.0123C101.086 14.633 100.724 14.4425 100.308 14.4425C99.8655 14.4425 99.4931 14.6402 99.1915 15.0357C98.882 15.4366 98.7317 15.9957 98.7366 16.713H101.87Z" fill="black" fill-opacity="0.4"/>
<path d="M113.631 22.3636H111.688V20.9469C111.366 21.4917 110.989 21.9016 110.554 22.1766C110.119 22.4517 109.67 22.5901 109.21 22.5901C108.326 22.5901 107.556 22.1497 106.9 21.2669C106.245 20.3842 105.916 19.124 105.916 17.4862C105.916 15.8485 106.235 14.5919 106.875 13.7523C107.515 12.9127 108.304 12.4921 109.24 12.4921C109.68 12.4921 110.094 12.6035 110.476 12.8282C110.859 13.053 111.212 13.3891 111.533 13.8368V9.05115H113.631V22.3636ZM108.057 17.3317C108.057 18.2053 108.131 18.8579 108.278 19.2858C108.426 19.7137 108.638 20.0354 108.913 20.2512C109.188 20.4669 109.497 20.5748 109.841 20.5748C110.298 20.5748 110.697 20.3267 111.035 19.8287C111.373 19.3308 111.542 18.581 111.542 17.5798C111.542 16.4688 111.377 15.6687 111.048 15.1797C110.719 14.6907 110.3 14.4462 109.793 14.4462C109.286 14.4462 108.9 14.6871 108.562 15.1654C108.224 15.6453 108.055 16.3681 108.055 17.3335" fill="black" fill-opacity="0.4"/>
<path fill-rule="evenodd" clip-rule="evenodd" d="M115.936 4.99536V24.9936H107.466L133.885 38.6962L160.302 24.9936H151.847V4.99536H115.936ZM117.927 22.3636V9.05119H122.566C123.752 9.05119 124.598 9.17163 125.107 9.40894C125.616 9.64804 126.033 10.0634 126.36 10.653C126.687 11.2427 126.85 11.9492 126.85 12.7725C126.85 13.8135 126.601 14.653 126.101 15.2876C125.601 15.924 124.891 16.3232 123.971 16.4868C124.444 16.8265 124.834 17.1968 125.144 17.5995C125.452 18.0023 125.873 18.7231 126.405 19.7659L127.729 22.3636H125.101L123.508 19.4674C122.934 18.4193 122.544 17.7649 122.338 17.5007C122.131 17.2364 121.913 17.0548 121.683 16.9559C121.453 16.8553 121.085 16.8068 120.576 16.8068H120.122V22.3636H117.927ZM120.124 14.6818H121.757C122.756 14.6818 123.391 14.6387 123.664 14.5505C123.937 14.4624 124.156 14.2863 124.327 14.0184C124.496 13.7524 124.581 13.3982 124.581 12.9559C124.581 12.5136 124.496 12.1919 124.327 11.9348C124.158 11.6777 123.928 11.4997 123.637 11.4026C123.43 11.3361 122.836 11.302 121.849 11.302H120.124V14.6799V14.6818ZM128.946 15.2354L130.844 15.6524L130.848 15.6507C130.98 15.1849 131.153 14.8668 131.369 14.6978C131.583 14.5288 131.884 14.4443 132.253 14.4443C132.621 14.4443 132.907 14.4983 133.11 14.6043C133.311 14.7122 133.451 14.8488 133.527 15.016C133.603 15.1849 133.64 15.5355 133.64 16.0713C133.259 16.2654 132.585 16.474 131.616 16.6987C130.816 16.8874 130.237 17.1014 129.873 17.3441C129.511 17.5868 129.228 17.9104 129.028 18.3167C128.829 18.723 128.729 19.1993 128.729 19.7441C128.729 20.6052 128.973 21.2956 129.463 21.8134C129.954 22.3311 130.584 22.59 131.353 22.59C131.813 22.59 132.248 22.4839 132.656 22.2682C133.063 22.0524 133.446 21.7342 133.804 21.31L134.075 22.3635H136.145C135.964 21.9032 135.84 21.47 135.773 21.0601C135.705 20.652 135.673 20.0282 135.673 19.1922L135.69 16.2115C135.69 15.0843 135.59 14.3077 135.391 13.8798C135.191 13.4519 134.857 13.1139 134.392 12.8659C133.926 12.6178 133.252 12.4938 132.368 12.4938C131.375 12.4938 130.616 12.7077 130.085 13.1338C129.555 13.5598 129.176 14.2609 128.946 15.2354ZM133.642 17.7314C133.376 17.8408 132.961 17.9683 132.4 18.1136C131.753 18.2826 131.329 18.4713 131.13 18.678C130.93 18.8847 130.829 19.1508 130.829 19.4798C130.829 19.8502 130.939 20.1612 131.16 20.4128C131.381 20.6645 131.658 20.7904 131.99 20.7904C132.287 20.7904 132.58 20.6879 132.871 20.4847C133.163 20.2817 133.362 20.0408 133.475 19.7603C133.586 19.4816 133.642 18.9746 133.642 18.2393V17.7314ZM141.745 12.7186V14.7519H140.32V18.6439C140.32 19.4871 140.341 19.9743 140.383 20.1074C140.467 20.35 140.64 20.4705 140.9 20.4705C141.095 20.4705 141.373 20.3896 141.737 20.226L141.917 22.2053C141.432 22.4588 140.886 22.5865 140.275 22.5865C139.743 22.5865 139.316 22.4588 138.995 22.2053C138.674 21.95 138.46 21.5851 138.35 21.1051C138.265 20.7528 138.222 20.0391 138.222 18.9604V14.7519H137.261V12.7186H138.222V10.8021L140.32 9.3136V12.7186H141.745ZM148.174 19.3022C148.174 19.3021 148.174 19.3023 148.174 19.3022V19.3022ZM150.251 19.7279L148.174 19.3022C147.949 20.2225 147.5 20.6826 146.826 20.6826C146.358 20.6826 145.959 20.4723 145.628 20.0533C145.298 19.6345 145.127 19.0413 145.114 18.2754H150.352L150.361 17.9842C150.361 16.118 149.992 14.705 149.253 13.7469C148.612 12.9109 147.726 12.492 146.594 12.492C145.576 12.492 144.748 12.9019 144.106 13.7198C143.35 14.6907 142.973 15.9581 142.973 17.5958C142.973 19.2336 143.348 20.5064 144.099 21.4161C144.735 22.1981 145.638 22.5901 146.807 22.5901C147.648 22.5901 148.364 22.3545 148.952 21.8853C149.539 21.4161 149.973 20.697 150.251 19.7279ZM147.801 15.0124C148.105 15.3935 148.265 15.9598 148.283 16.7131H145.151C145.145 15.9958 145.296 15.4368 145.606 15.0358C145.907 14.6403 146.28 14.4426 146.722 14.4426C147.138 14.4426 147.5 14.6331 147.801 15.0124Z" fill="black" fill-opacity="0.4"/>
</svg>
