<svg width="187" height="44" viewBox="0 0 187 44" fill="none" xmlns="http://www.w3.org/2000/svg">
<path fill-rule="evenodd" clip-rule="evenodd" d="M159.171 14.354H156.315L152.691 24.0011L149.024 14.3422H146.445L143.07 23.2661L139.667 14.354H136.052L141.934 29.4467H143.572L147.396 19.2289L151.321 29.4467H153.402L159.171 14.354ZM136.216 21.7345C136.216 20.9823 136.118 20.2687 135.923 19.594C135.727 18.9194 135.451 18.2973 135.093 17.7279C134.736 17.1586 134.304 16.6456 133.795 16.1885C133.287 15.7317 132.724 15.3435 132.106 15.0235C131.487 14.7038 130.819 14.4578 130.098 14.2853C129.377 14.1132 128.621 14.0272 127.832 14.0272C127.042 14.0272 126.287 14.1132 125.566 14.2853C124.845 14.4578 124.176 14.7019 123.557 15.0182C122.939 15.3346 122.376 15.723 121.867 16.1832C121.36 16.6438 120.927 17.1586 120.57 17.7279C120.212 18.2973 119.936 18.9212 119.741 19.5992C119.545 20.2777 119.447 20.9962 119.447 21.7555C119.447 22.5287 119.545 23.2615 119.741 23.9535C119.936 24.646 120.212 25.2874 120.57 25.878C120.927 26.4683 121.36 26.9992 121.867 27.47C122.376 27.9409 122.939 28.3418 123.557 28.6719C124.176 29.0025 124.845 29.2569 125.566 29.4362C126.287 29.6157 127.042 29.705 127.832 29.705C128.621 29.705 129.377 29.6191 130.098 29.4469C130.819 29.2747 131.487 29.025 132.106 28.6983C132.724 28.3713 133.287 27.9743 133.795 27.5069C134.304 27.0395 134.736 26.5107 135.093 25.92C135.451 25.3297 135.727 24.6832 135.923 23.9801C136.118 23.2773 136.216 22.5287 136.216 21.7345ZM132.219 21.7829C132.219 22.5434 132.125 23.2457 131.937 23.8898C131.748 24.5338 131.468 25.0903 131.097 25.5594C130.726 26.0287 130.268 26.3949 129.722 26.6585C129.177 26.9224 128.545 27.0541 127.832 27.0541C127.11 27.0541 126.475 26.9224 125.926 26.6585C125.376 26.3949 124.919 26.0287 124.551 25.5594C124.183 25.0903 123.906 24.5338 123.718 23.8898C123.528 23.2457 123.433 22.5434 123.433 21.7829C123.433 21.0335 123.528 20.3465 123.718 19.722C123.906 19.0972 124.183 18.5604 124.551 18.1106C124.919 17.6609 125.376 17.311 125.926 17.0614C126.475 16.8114 127.11 16.6867 127.832 16.6867C128.545 16.6867 129.177 16.8114 129.722 17.0614C130.268 17.311 130.726 17.6609 131.097 18.1106C131.468 18.5604 131.748 19.0972 131.937 19.722C132.125 20.3465 132.219 21.0335 132.219 21.7829ZM108.012 29.4467H119.179V26.7884H111.599V14.354H108.005V29.3678H108.012V29.4467ZM102.827 29.3678H106.504L99.6336 14.0272H97.6735L90.5146 29.3678H93.3706L94.972 25.9575H101.302L102.827 29.3678ZM100.133 23.2994H96.2277L98.2117 19.0142L100.133 23.2994ZM88.1506 28.5349C88.6175 28.317 88.9254 28.0815 89.3992 27.8284V21.5786L89.3987 21.5589H89.3922V21.206H83.4368V23.6881H86.1366V26.2943C85.8003 26.5406 85.4294 26.7251 85.0242 26.8479C84.6187 26.9708 84.1899 27.0324 83.7365 27.0324C82.9744 27.0324 82.0354 26.9422 81.3657 26.6786C80.6962 26.415 80.1143 26.0287 79.6199 25.5187C79.1254 25.0093 78.7341 24.3801 78.4455 23.6316C78.2791 23.2079 78.1491 22.3771 78.1491 21.7127C78.1491 21.1442 78.2465 20.6824 78.3939 20.2182C78.6652 19.452 79.0375 18.8037 79.5116 18.2731C79.9853 17.7424 80.5484 17.3382 81.2009 17.0606C81.8532 16.7829 82.7837 16.6025 83.5461 16.6025C84.047 16.6025 84.5158 16.6835 84.9518 16.8448C85.3878 17.0067 85.7965 17.2299 86.1776 17.5145C86.4967 17.7529 86.6629 17.8941 87.0167 18.2054L88.5726 16.2737C88.1067 15.8363 87.5817 15.4476 86.9967 15.1078C86.4095 14.767 85.7727 14.4946 85.0859 14.2907C84.3992 14.087 83.6815 13.985 82.9333 13.985C82.0885 13.985 81.2883 14.073 80.5333 14.2486C79.7776 14.4244 79.0792 14.6773 78.4369 15.0077C77.7947 15.3383 77.3834 15.7404 76.8647 16.2149C76.3464 16.6894 75.9069 17.2254 75.5465 17.8227C75.186 18.4203 74.9079 19.0738 74.712 19.7838C74.5163 20.4939 74.4185 21.2459 74.4185 22.0401C74.4185 23.1787 74.6347 24.2119 75.0676 25.1399C75.5 26.0678 76.1026 26.862 76.8753 27.5228C77.6477 28.1836 78.3973 28.6947 79.462 29.0566C80.5262 29.4186 81.6903 29.5997 82.9539 29.5997C83.7434 29.5997 84.4524 29.5558 85.081 29.4679C85.7093 29.3799 86.2911 29.2569 86.8267 29.0989C87.3624 28.9407 87.6836 28.7527 88.1506 28.5349ZM72.0813 29.4467H72.4315V14.3605H72.0813V14.354H69.663V23.9063L61.2992 14.354L58.8953 14.3106V14.3238L58.6413 14.3172V29.4034L61.3452 29.4467V19.1325L70.3636 29.4467H70.7109H72.0813ZM55.5359 26.1994C55.7935 25.5071 55.9224 24.7743 55.9224 24.0011V14.354H53.3074V22.7895C53.3074 23.3732 53.2198 23.9196 53.0448 24.429C52.8697 24.9389 52.6188 25.3834 52.2926 25.7628C51.9666 26.1423 51.5718 26.4428 51.1081 26.6643C50.6447 26.8857 50.2513 26.9546 49.6747 26.9546C49.0977 26.9546 48.7977 26.8857 48.3309 26.6643C47.8639 26.4428 47.4675 26.1423 47.1414 25.7628C46.815 25.3834 46.5643 24.9389 46.3895 24.429C46.2143 23.9196 46.1268 23.3732 46.1268 22.7895V14.354H42.5215V23.9696C42.5215 24.7496 42.664 25.4877 42.949 26.1837C43.234 26.8796 43.6546 27.4893 44.2108 28.0129C44.7669 28.5367 45.4554 28.9496 46.276 29.2517C47.0967 29.5539 48.0459 29.705 49.1241 29.705C50.3258 29.705 51.3576 29.5539 52.2195 29.2517C53.081 28.9496 53.785 28.5384 54.3308 28.0181C54.8769 27.498 55.2786 26.8921 55.5359 26.1994ZM39.8847 26.7497C40.1489 26.2281 40.2811 25.6648 40.2811 25.0603C40.2811 24.6214 40.2075 24.2074 40.0597 23.8189C39.9121 23.4302 39.7059 23.0775 39.4417 22.7608C39.1773 22.4444 38.8647 22.1655 38.5046 21.9242C38.1437 21.6833 37.7473 21.4909 37.3146 21.3468C37.7334 21.0947 38.0872 20.843 38.3757 20.5909C38.6642 20.3391 38.894 20.0766 39.0658 19.803C39.2374 19.5296 39.3609 19.24 39.4366 18.934C39.5121 18.6281 39.5499 18.2917 39.5499 17.9245C39.5499 17.3345 39.4091 16.7984 39.1274 16.316C38.8461 15.834 38.4529 15.42 37.9481 15.0747C37.4436 14.729 36.8391 14.4631 36.1353 14.2757C35.4313 14.0888 34.6573 13.9949 33.8126 13.9949H27.519V29.3678H34.7394C35.5704 29.3678 36.3274 29.2562 37.0109 29.033C37.6941 28.81 38.2778 28.5042 38.7618 28.1154C39.2461 27.7267 39.6203 27.2718 39.8847 26.7497ZM35.9034 18.4776C35.9034 18.753 35.8484 19.0053 35.7386 19.235C35.6287 19.4644 35.4708 19.6629 35.2648 19.8303C35.0588 19.9977 34.8065 20.1289 34.5079 20.2232C34.209 20.3179 33.8707 20.3651 33.4934 20.3651H31.1138V16.4441H32.4631C33.0607 16.4441 33.5758 16.494 34.0083 16.5939C34.4408 16.6939 34.7978 16.8328 35.0795 17.011C35.3608 17.1894 35.5688 17.4039 35.7026 17.6551C35.8365 17.9064 35.9034 18.1806 35.9034 18.4776ZM36.4906 24.9373C36.4906 25.2293 36.4236 25.4976 36.2899 25.7426C36.1559 25.9879 35.9498 26.1984 35.6718 26.3744C35.3937 26.5509 35.0416 26.6899 34.616 26.7916C34.1899 26.8936 33.6854 26.9447 33.1018 26.9447H31.1138V22.6247H32.9782C33.6235 22.6247 34.1713 22.6837 34.6211 22.8021C35.0707 22.9206 35.4331 23.083 35.7078 23.2894C35.9823 23.496 36.1815 23.7396 36.3053 24.0206C36.4287 24.3012 36.4906 24.6069 36.4906 24.9373Z" fill="black" fill-opacity="0.4"/>
</svg>
