<svg width="187" height="44" viewBox="0 0 187 44" fill="none" xmlns="http://www.w3.org/2000/svg">
<path fill-rule="evenodd" clip-rule="evenodd" d="M59.6621 6.125C63.4545 6.125 65.7396 7.90953 67.5877 10.2346L67.9294 10.6765C68.1032 10.8848 68.0334 11.1626 67.7556 11.267C66.1602 11.9184 64.1064 13.1804 62.7393 14.4519L62.4754 14.7062L62.0587 15.1232L63.2746 17.1378C65.1507 20.2294 65.8105 22.2099 65.8105 24.8154C65.8105 32.4929 59.4534 37.565 51.4634 37.565C48.9224 37.565 47.2342 37.0208 45.7472 36.3697L45.2836 36.1611L43.7623 35.4473C42.2811 34.7715 40.6958 34.1952 38.2969 34.1952C36.5196 34.1952 34.8359 34.4759 32.3892 35.2733L31.9743 35.4111L30.7585 35.8281C30.5152 35.8971 30.2375 35.7583 30.2375 35.4805C30.2375 35.3314 30.3086 35.218 30.4252 35.064L30.5851 34.8552L51.0817 10.4329C53.4088 7.65352 56.1881 6.125 59.6621 6.125ZM51.3594 13.3855L41.4933 25.1276C41.4933 30.2695 45.3149 35.4805 50.5951 35.4805C54.6596 35.4805 57.4039 32.423 57.4039 29.1926C57.4039 27.3494 56.4683 25.4439 55.3361 23.5058L53.6287 20.6303L53.2445 19.9696C52.1779 18.0917 51.3244 16.1632 51.3244 14.1846C51.3244 13.9992 51.3244 13.8293 51.3347 13.6543L51.3594 13.3855ZM53.4085 13.9424C53.4085 10.8155 55.7361 8.20994 59.6617 8.20994C61.7111 8.20994 63.6911 8.90477 64.9074 10.4333C63.7961 10.9883 61.9894 12.3086 60.6691 13.6287L60.1132 14.1846L60.017 14.2883C59.6632 14.7005 59.6804 15.0854 59.905 15.4704L61.4727 18.176L61.8231 18.7979C62.8586 20.6744 63.7261 22.6565 63.7261 24.9197C63.7261 29.0537 61.1901 32.1807 57.4034 34.3346C58.8625 32.6323 59.4878 30.9649 59.4878 29.1931C59.4878 26.692 58.307 24.3987 56.917 22.0715L55.1949 19.1758C54.1774 17.4463 53.4085 15.7401 53.4085 13.9424ZM83.9516 15.119C85.5138 15.119 87.2647 15.5675 88.9347 16.9372L89.1846 17.1496L87.6225 18.9459C86.5031 17.9044 85.1494 17.4358 83.8736 17.4358C82.0773 17.4358 81.0099 18.3211 81.0094 19.6224C81.0094 20.6305 81.6367 21.4066 82.7152 21.9064L82.9101 21.9917L85.4092 23.0331C87.0491 23.7101 89.1841 25.0638 89.1841 27.9796C89.1841 30.8954 87.0232 32.9521 83.4826 32.9521C81.519 32.9521 79.6273 32.3117 78.0101 30.7588L77.781 30.5308L79.291 28.7344C80.4624 29.8804 81.8681 30.6351 83.5344 30.6351C85.617 30.6351 86.6845 29.4637 86.6845 28.11C86.6845 26.796 85.6456 25.9305 84.5796 25.4463L81.7122 24.2051C80.1242 23.5542 78.5103 22.1485 78.5103 19.7792C78.5103 16.9932 80.7491 15.119 83.9516 15.119ZM104.117 26.4176C104.117 22.9028 101.279 19.987 97.6082 19.987C93.9112 19.987 91.0735 22.9028 91.0735 26.4176C91.0735 29.9583 93.9112 32.8741 97.6082 32.8741C101.279 32.8741 104.117 29.9583 104.117 26.4176ZM141.376 19.987C145.152 19.987 147.65 22.7729 147.651 26.418L147.648 26.776C147.646 26.841 147.644 26.9077 147.64 26.9743L147.625 27.1728H137.446C137.758 29.2554 139.347 30.7655 141.664 30.7655C142.975 30.7655 144.174 30.2891 145.069 29.6118L145.256 29.4637L146.245 31.2601C145.099 32.2231 143.616 32.8741 141.689 32.8741C137.601 32.8741 135.102 29.8284 135.102 26.3915C135.102 22.9547 137.784 19.987 141.376 19.987ZM34.9972 32.8401L39.5132 27.4209L39.6067 27.8383C39.9735 29.3711 40.6076 30.9237 41.5632 32.3885C40.764 32.2147 39.9998 32.1452 39.2005 32.1452C37.8109 32.1452 36.3864 32.354 34.9972 32.8401ZM132.799 15.1445V32.5879H130.56V29.3334H130.404C129.466 32.0673 127.514 32.8222 125.796 32.8222C122.49 32.8222 119.782 30.0367 119.782 26.3916C119.782 22.7465 122.49 19.987 125.927 19.987C127.515 19.987 129.446 20.5731 130.275 23.1426L130.352 23.3974H130.534L130.496 22.4073L130.444 21.2062L130.431 20.6304L130.43 15.1445H132.799ZM117.607 25.3586C117.507 21.4292 115.265 19.987 112.898 19.987C111.102 19.987 109.436 20.7942 108.68 23.6581H108.498V20.2212H106.337V32.5879H108.68V26.1573L108.684 25.9101C108.76 23.3988 109.997 22.2259 112.065 22.2259C114.096 22.2259 115.241 23.3974 115.241 25.8446V32.5874H117.61V25.6368L117.607 25.3586ZM157.112 19.987V22.2519H156.696C153.918 22.2519 152.39 23.329 152.3 25.602L152.296 25.8186V32.5879H149.953V20.2212H152.165V23.5797H152.322C153.078 20.8305 154.398 20.0362 156.302 19.9893L156.487 19.987H157.112ZM93.4947 26.4176C93.4947 24.1786 95.187 22.2259 97.6082 22.2259C100.003 22.2259 101.721 24.1786 101.721 26.4176C101.721 28.7089 100.003 30.6351 97.6082 30.6351C95.187 30.6351 93.4947 28.7085 93.4947 26.4176ZM126.291 22.2C124.001 22.2 122.204 24.0748 122.204 26.3916C122.204 28.7085 123.974 30.6092 126.291 30.6092C128.608 30.6092 130.43 28.735 130.431 26.3916C130.431 24.0743 128.609 22.2 126.291 22.2ZM137.539 25.2002C137.975 23.3373 139.544 22.148 141.429 22.148C143.616 22.148 145.047 23.4238 145.308 25.4024H137.497L137.539 25.2002Z" fill="black" fill-opacity="0.4"/>
</svg>
