<svg width="187" height="44" viewBox="0 0 187 44" fill="none" xmlns="http://www.w3.org/2000/svg">
<path fill-rule="evenodd" clip-rule="evenodd" d="M50.3792 6.87744V36.3524H21.6144V6.87744H50.3792ZM30.5332 14.1489C30.4775 14.1489 30.4166 14.1594 30.3553 14.1732L30.1507 14.2219C30.26 14.4645 30.3776 14.7029 30.4984 14.9406L30.6811 15.2971L30.6865 15.3077C30.7956 15.5195 30.9052 15.7325 31.0114 15.9486L32.2478 18.3283L32.2749 18.3805C33.1358 20.0389 33.9932 21.6905 34.8611 23.3416C34.9432 23.4753 34.9576 23.6205 34.9586 23.7613L34.957 23.9081L34.9567 29.5917H36.9652V23.8037C36.9652 23.6821 36.9892 23.5605 37.037 23.4631L38.0808 21.4386L39.1291 19.414L39.1487 19.3763L39.1493 19.375C39.8419 18.0383 40.5346 16.7015 41.2214 15.3649L41.3236 15.1468L41.4335 14.9343C41.5536 14.7057 41.6734 14.4776 41.7475 14.2219C41.3777 14.157 41.0078 14.1475 40.638 14.149L40.3606 14.1517H40.3538C40.1248 14.1543 39.8959 14.157 39.6672 14.1489L39.0407 15.4184L38.42 16.6879C37.8002 17.9574 37.1805 19.2268 36.5349 20.4963C36.3675 20.8367 36.2 21.1772 36.0088 21.4934C35.9076 21.3285 35.8191 21.1593 35.7345 20.9875L35.6093 20.7283L35.6079 20.7256C35.5368 20.577 35.4651 20.4271 35.3871 20.2774C34.9056 19.2857 34.4302 18.2879 33.9578 17.2901L32.5656 14.3435C32.5418 14.2705 32.494 14.1732 32.3984 14.1976L31.9321 14.1763C31.4658 14.1535 30.9995 14.1307 30.5332 14.1489ZM137.271 20.2287C137.247 18.9885 136.243 17.8941 135.071 17.6752C134.785 17.6266 134.498 17.6266 134.21 17.6508H133.636C132.298 17.6266 131.031 18.1859 129.882 18.8426L129.829 18.8733C129.707 18.9524 129.608 19.0826 129.691 19.2317C129.85 19.5336 130.04 19.8022 130.238 20.0789C130.279 20.1365 130.319 20.1944 130.361 20.2531C131.221 19.6208 132.202 19.1588 133.254 19.0372L133.446 19.0094C133.959 18.9482 134.481 18.9939 134.928 19.2317C135.357 19.4749 135.574 19.9613 135.644 20.4234C135.717 20.9826 135.764 21.542 135.741 22.1014L134.6 22.1392L134.043 22.1744C132.824 22.2715 131.533 22.5148 130.528 23.2931C129.691 23.9253 129.165 24.9711 129.165 26.041C129.141 27.1355 129.691 28.3028 130.671 28.8379C131.269 29.154 131.963 29.2756 132.632 29.2512L132.861 29.2506C133.545 29.2252 134.201 28.9911 134.761 28.6189C134.856 28.5643 134.945 28.5034 135.029 28.4396L135.52 28.0444L135.789 27.865C136.027 28.3271 136.314 28.7892 136.721 29.1053L136.829 29.1795C136.969 29.2711 137.146 29.3593 137.295 29.2269C137.481 29.0518 137.634 28.8417 137.776 28.6281L138.06 28.2056L137.752 27.9592C137.583 27.8168 137.435 27.6553 137.39 27.4273C137.295 27.0625 137.271 26.6977 137.271 26.333L137.268 24.6646L137.295 22.4467C137.302 21.7074 137.3 20.9681 137.271 20.2287ZM75.4583 17.6205L76.0113 17.6266L76.4647 17.6428C76.7658 17.6536 77.0634 17.6752 77.3504 17.7726C78.3546 18.1129 79.1915 18.8183 79.7174 19.7424C80.1717 20.5449 80.4827 21.4447 80.5065 22.3689L80.53 23.0494C80.5576 24.0746 80.5327 25.1148 80.2196 26.0897C79.8609 27.2084 79.0957 28.2056 78.0437 28.7648C77.0156 29.2999 75.7722 29.4215 74.6723 29.1053C73.6681 28.8378 72.8073 28.1568 72.2333 27.2814C71.5879 26.333 71.3726 25.19 71.3487 24.0469L71.3374 23.3882C71.3306 22.508 71.3726 21.6248 71.6596 20.7882C71.9943 19.7667 72.6399 18.8183 73.5485 18.2346C73.9549 17.967 74.4092 17.7482 74.8875 17.6508C75.0788 17.6266 75.2701 17.6205 75.4583 17.6205ZM142.889 17.8941C142.915 16.7998 142.985 15.7297 143.082 14.6596C142.507 14.757 141.933 14.9029 141.384 15.0732C141.318 15.4983 141.283 15.9285 141.246 16.3593V16.3603C141.205 16.8652 141.163 17.3714 141.072 17.8698H139.663C139.638 18.2832 139.638 18.721 139.663 19.1344H141.097V23.0254C141.107 23.5312 141.109 24.0408 141.111 24.5512V24.5527C141.113 25.3181 141.116 26.0852 141.144 26.8436C141.15 26.8922 141.156 26.9416 141.16 26.9914L141.199 27.4471C141.24 27.8542 141.32 28.2542 141.623 28.546C142.173 29.154 143.033 29.2756 143.798 29.2512L143.812 29.25C144.358 29.2018 144.926 29.1518 145.4 28.8865C145.425 28.546 145.352 28.1812 145.209 27.865C144.683 27.9867 144.109 28.0353 143.56 27.9137C143.249 27.8164 142.915 27.5489 142.889 27.184C142.826 26.6004 142.826 26.006 142.826 25.408C142.826 25.1089 142.826 24.809 142.818 24.509C142.832 24.0418 142.821 23.5658 142.809 23.0915V23.0905C142.803 22.7753 142.795 22.4605 142.795 22.15V19.1588H145.065C145.258 18.7696 145.425 18.3562 145.568 17.9428C145.125 17.9307 144.677 17.9246 144.228 17.9185C143.78 17.9124 143.332 17.9063 142.889 17.8941ZM153.1 17.6996C154.08 17.9428 154.966 18.5508 155.538 19.3776C156.017 20.0586 156.327 20.8367 156.471 21.6636C156.571 22.3121 156.621 22.9776 156.606 23.6316L156.591 24.0226C156.567 25.3115 156.184 26.6004 155.419 27.6218C154.797 28.4487 153.841 28.9351 152.86 29.1297C151.664 29.3486 150.374 29.1297 149.369 28.4001C148.485 27.7678 147.935 26.7463 147.625 25.7249C147.513 25.3683 147.465 25.0115 147.431 24.6477L147.385 24.0956C147.361 23.1715 147.361 22.2473 147.528 21.3475C147.768 20.326 148.27 19.329 149.035 18.5994C149.608 18.0644 150.326 17.7239 151.092 17.6266C151.761 17.5537 152.43 17.5779 153.1 17.6996ZM102.483 13.1058C102.448 12.9284 102.375 12.7328 102.17 12.714C101.732 12.714 101.314 12.8364 100.861 12.9691L100.735 13.0058C100.843 13.6138 100.873 14.2278 100.884 14.8449L100.897 15.7725C100.901 16.0822 100.909 16.3923 100.927 16.7023L100.959 20.5063C100.974 22.4125 100.979 24.324 100.95 26.2355L100.931 27.011C100.909 27.6594 100.865 28.3096 100.711 28.935C101.042 28.9933 101.363 28.9991 101.686 28.9945L102.337 28.9836C102.396 28.7898 102.45 28.6021 102.504 28.4143C102.558 28.2253 102.613 28.0357 102.672 27.8407L103.106 28.2236C103.252 28.3513 103.401 28.4729 103.557 28.5702C104.585 29.2268 105.852 29.3727 107 28.9593C107.717 28.6917 108.291 28.1567 108.722 27.5487C109.462 26.503 109.797 25.214 109.893 23.9251C109.964 22.8308 109.869 21.7121 109.534 20.6663C109.175 19.572 108.458 18.5505 107.431 18.0157C106.474 17.5048 105.278 17.5048 104.297 17.9426C103.854 18.1164 103.471 18.3893 103.097 18.6818L102.648 19.037C102.648 18.0886 102.648 17.1644 102.601 16.2159C102.601 15.2188 102.576 14.246 102.504 13.2491L102.483 13.1058ZM67.8398 13.8863L68.0969 14.0029C68.4796 14.1731 68.8621 14.3677 69.1968 14.6595C69.0774 14.8662 68.9399 15.0608 68.7964 15.2492L68.36 15.8026L67.9078 15.536C67.6828 15.4047 67.4562 15.2821 67.2123 15.1946C66.208 14.8298 65.0603 14.7568 64.056 15.1702C63.2193 15.5108 62.5257 16.1673 62.0954 16.9698C61.8085 17.5292 61.5454 18.1372 61.4258 18.7695C61.3303 19.3774 61.2824 20.0097 61.2585 20.6421L61.226 21.6428C61.2117 22.146 61.2059 22.6509 61.2346 23.147C61.378 24.3143 61.7607 25.4817 62.5497 26.3571C63.2193 27.1597 64.2234 27.6217 65.2515 27.719C65.7776 27.7433 66.3276 27.7433 66.8536 27.6217C67.2225 27.5383 67.5602 27.3915 67.8935 27.2309L68.3933 26.9862C68.4772 26.9457 68.5616 26.906 68.6469 26.8678C68.9818 27.2083 69.2926 27.5974 69.5795 28.0108C69.1491 28.254 68.6947 28.4973 68.2165 28.6917C66.9731 29.2024 65.5624 29.2268 64.2473 29.0809C63.2909 28.8863 62.4063 28.3755 61.6649 27.7433C60.8042 26.9894 60.1825 25.9923 59.8238 24.8979C59.5608 24.1684 59.4413 23.3901 59.3695 22.6362L59.3301 21.9444C59.3112 21.6012 59.3026 21.2598 59.3456 20.9095C59.3669 19.9367 59.5015 18.9832 59.8334 18.0661L59.9673 17.7237C60.4455 16.4592 61.2106 15.2675 62.3106 14.4893C63.1236 13.9299 64.08 13.4921 65.0843 13.4921C66.0189 13.47 66.9734 13.5284 67.8398 13.8863ZM125.842 18.8913C125.483 18.3318 124.884 17.9914 124.288 17.7726C123.259 17.3834 122.159 17.7726 121.25 18.3076C121.059 18.4145 120.884 18.541 120.712 18.6729L120.201 19.071L119.935 19.256C119.864 18.721 119.745 18.1859 119.552 17.6752C119.177 17.6752 118.802 17.7745 118.434 17.8932L117.998 18.04L118.126 18.5668C118.19 18.8318 118.248 19.1003 118.261 19.3776C118.33 20.5446 118.338 21.6991 118.345 22.8592V22.8603C118.348 23.3193 118.351 23.7796 118.358 24.2415L118.369 25.8222C118.373 26.0858 118.377 26.3494 118.381 26.613C118.393 27.4032 118.405 28.1935 118.405 28.9838C118.572 28.9918 118.74 28.9946 118.907 28.9946L119.912 28.9838L119.901 23.4209L119.912 20.6422C120.581 20.0828 121.323 19.5721 122.135 19.256C122.517 19.1101 122.924 19.1101 123.306 19.1344C123.833 19.1588 124.311 19.5721 124.478 20.0828C124.538 20.6179 124.556 21.1468 124.562 21.6758L124.567 22.7355L124.574 23.2687C124.574 24.2172 124.587 25.1717 124.598 26.1262C124.61 27.0808 124.622 28.0353 124.622 28.9838C125.196 29.0081 125.769 29.0081 126.344 28.9838C126.344 28.4001 126.337 27.8225 126.331 27.2449C126.326 26.6673 126.32 26.0897 126.32 25.5061L126.322 23.415C126.32 22.3737 126.306 21.3378 126.248 20.3017C126.201 19.8154 126.128 19.2803 125.842 18.8913ZM114.556 17.6023C114.599 18.5362 114.608 19.47 114.608 20.4039L114.604 22.2715V28.9838C114.03 29.0081 113.456 29.0081 112.882 28.9838L112.872 25.7799L112.882 19.3776C112.894 19.1344 112.894 18.8852 112.894 18.6359C112.894 18.3866 112.894 18.1374 112.906 17.8941C113.456 17.8211 114.005 17.7239 114.556 17.6023ZM96.696 18.5291L96.4551 18.2832C95.9052 17.7726 95.1639 17.5293 94.4226 17.6023C93.6096 17.6752 92.8684 18.04 92.2229 18.5021C92.1591 18.5467 92.0973 18.5933 92.0367 18.6409L91.6789 18.9308C91.4996 19.0736 91.3143 19.2073 91.099 19.3047C90.9078 18.9642 90.7165 18.6237 90.4535 18.3562C90.2175 18.1381 89.924 17.9786 89.6417 17.8253L89.5448 17.7726C89.3535 17.6752 89.1623 17.6266 88.9471 17.6023C88.0145 17.5537 87.1059 17.8941 86.3648 18.4535L86.1711 18.5922L85.8035 18.8895C85.6799 18.9875 85.5518 19.0809 85.4083 19.1588C85.3604 18.6237 85.2409 18.0887 85.0257 17.6023C84.4997 17.6996 83.9975 17.8211 83.4954 17.9914C83.5244 18.1539 83.5712 18.3165 83.6194 18.4845C83.6506 18.593 83.6825 18.7038 83.7106 18.8183C83.7465 19.1222 83.7644 19.4323 83.7763 19.7454L83.8062 20.6908C83.8472 22.2736 83.857 23.8564 83.8667 25.4347C83.8741 26.6209 83.8814 27.8046 83.9019 28.9838C84.4039 29.0081 84.9061 29.0081 85.4083 28.9838L85.409 20.8128C85.4121 20.7171 85.4274 20.6275 85.5039 20.5693C86.1495 19.9613 86.9147 19.4262 87.7755 19.2074C88.3254 19.0614 89.0188 19.1588 89.3774 19.6695C89.5269 19.9582 89.5643 20.285 89.5771 20.6142L89.5863 21.0081L89.6095 21.6951C89.6166 22.0284 89.6166 22.3689 89.6166 22.7093V28.9594H91.3381V20.9341L91.3343 20.8309C91.3343 20.7755 91.343 20.72 91.386 20.6908C91.5054 20.5815 91.6308 20.4783 91.7562 20.375C91.8817 20.2716 92.0076 20.168 92.1273 20.0586L92.4467 19.8107C92.879 19.4847 93.3419 19.1928 93.8967 19.1344C94.2792 19.1101 94.7095 19.0857 95.0443 19.3047C95.3312 19.5235 95.5225 19.8639 95.5704 20.2287C95.6277 20.9146 95.6421 21.6004 95.6443 22.2862L95.6421 23.6578V28.9838C95.8413 28.9918 96.0379 28.9946 96.2327 28.9946L97.3875 28.9838V25.433C97.3733 25.0781 97.3646 24.722 97.3591 24.3654L97.3412 22.2218C97.3331 21.507 97.3158 20.793 97.2681 20.0828C97.2441 19.7424 97.1962 19.4019 97.0768 19.0857C96.9971 18.8749 96.8537 18.6966 96.696 18.5291ZM165.056 17.6023V17.7482C164.916 18.0458 164.809 18.3599 164.702 18.6762C164.624 18.9026 164.548 19.1301 164.457 19.3533C164.442 19.4182 164.373 19.429 164.307 19.429L164.219 19.4262C163.765 19.4262 163.263 19.4262 162.856 19.6695C162.448 19.9127 162.09 20.2287 161.804 20.6179C161.58 20.9015 161.56 21.2736 161.562 21.6309L161.565 21.9311C161.539 22.5633 161.516 23.1957 161.539 23.828V28.9594C160.967 28.9838 160.393 28.9838 159.819 28.9594V23.2443C159.819 21.9555 159.819 20.6422 159.771 19.3533L159.72 19.0246L159.582 18.3581C159.562 18.2453 159.544 18.1312 159.532 18.0157L160.567 17.713C160.738 17.6644 160.911 17.6185 161.086 17.5779C161.372 18.1129 161.421 18.7453 161.445 19.329C161.577 19.2317 161.696 19.1161 161.812 18.9946L162.161 18.6237C162.903 17.8698 164.002 17.4078 165.056 17.6023ZM133.716 23.3004L134.354 23.2443C134.526 23.2249 134.698 23.2288 134.87 23.2405L135.386 23.2833L135.644 23.2931C135.636 23.5929 135.633 23.8929 135.631 24.1928C135.626 24.7926 135.621 25.3926 135.574 25.9925C135.55 26.5031 135.19 26.8922 134.832 27.2084C134.401 27.5489 133.899 27.865 133.326 27.9379C132.847 27.9867 132.345 27.9623 131.915 27.7678C131.533 27.6218 131.269 27.257 131.126 26.868C131.043 26.6595 131.024 26.4272 131.023 26.1938L131.031 25.6763L131.05 25.3599C131.07 25.0952 131.109 24.8321 131.246 24.6062C131.58 24.0469 132.155 23.6335 132.775 23.4633C133.077 23.3758 133.395 23.332 133.716 23.3004ZM75.1506 19.0372C74.5767 19.1831 74.0268 19.5235 73.7159 20.0342C73.2616 20.7882 73.1898 21.6879 73.142 22.5392C73.0943 23.1707 73.1419 23.8023 73.1897 24.4338L73.1898 24.4361C73.2855 25.19 73.429 25.9925 73.7875 26.6733C74.1702 27.4029 74.9832 27.7678 75.7722 27.8164C76.5135 27.865 77.3264 27.6705 77.8524 27.0869C78.2829 26.6004 78.522 25.9925 78.6176 25.3359C78.7372 24.5334 78.7133 23.7308 78.6893 22.9282C78.6654 22.1014 78.5937 21.2259 78.259 20.4477C78.0677 19.9613 77.709 19.5478 77.2547 19.3047C76.633 18.9155 75.8439 18.8669 75.1506 19.0372ZM149.489 20.5205C149.752 19.7667 150.397 19.1101 151.212 19.0128C151.784 18.9398 152.383 18.9398 152.885 19.0857C153.411 19.329 153.841 19.7424 154.151 20.2287C154.486 20.8854 154.582 21.6393 154.63 22.3689C154.678 23.0742 154.654 23.7794 154.63 24.4846L154.59 24.9892C154.553 25.4118 154.497 25.8362 154.344 26.2356C154.177 26.6977 153.864 27.1598 153.435 27.4029C153.075 27.5976 152.693 27.7191 152.286 27.7678L152.096 27.792H151.904C151.714 27.792 151.497 27.7678 151.306 27.7191C150.805 27.6217 150.303 27.3543 149.968 26.941C149.608 26.5274 149.441 25.9925 149.346 25.4574C149.25 24.9224 149.218 24.3874 149.2 23.8523L149.179 23.0498L149.196 22.1941C149.213 21.6231 149.266 21.0556 149.489 20.5205ZM104.752 19.2315C103.892 19.3531 103.198 19.9611 102.648 20.5933C102.636 20.7028 102.636 20.8062 102.636 20.9096C102.636 21.013 102.636 21.1163 102.624 21.2258V26.2842C102.601 26.4544 102.744 26.576 102.863 26.6732C103.7 27.5001 104.944 27.8892 106.091 27.5974C106.642 27.4515 107.119 27.0868 107.382 26.576C107.789 25.8707 107.933 25.0438 108.004 24.2413L108.053 23.627C108.084 23.2145 108.1 22.7984 108.051 22.3931C108.028 21.6878 107.884 20.9339 107.526 20.3259C107.239 19.8152 106.761 19.4018 106.187 19.2802C105.708 19.1829 105.231 19.1829 104.752 19.2315ZM115.034 14.0272C114.89 13.6868 114.675 13.395 114.364 13.2003C114.03 13.0544 113.647 13.0301 113.313 13.1517C112.691 13.4192 112.332 14.1975 112.571 14.8298C112.739 15.4134 113.36 15.7538 113.934 15.6808C114.675 15.5837 115.249 14.7568 115.034 14.0272Z" fill="black" fill-opacity="0.4"/>
</svg>
