<svg width="188" height="44" viewBox="0 0 188 44" fill="none" xmlns="http://www.w3.org/2000/svg">
<path d="M39.8829 13.0727C39.6796 13.2029 39.4645 13.4057 39.2375 13.6817C38.9284 14.0557 38.6159 14.4984 38.299 15.0098C37.9822 15.5219 37.7022 16.0454 37.4583 16.5816L31.5127 29.4481L26.9317 18.9209L21.7417 29.4481L15.9177 16.533C15.6901 16.0133 15.414 15.4853 15.089 14.9489C14.764 14.4128 14.4636 13.9826 14.1875 13.6577C13.96 13.3816 13.716 13.1741 13.4564 13.0362C13.1965 12.8984 12.8309 12.764 12.3602 12.6341V12.3905H21.3027V12.6341C20.9452 12.7802 20.6896 12.947 20.5351 13.1336C20.3806 13.3206 20.3036 13.5685 20.3036 13.8766C20.3036 14.1368 20.377 14.4372 20.5231 14.7784L24.3244 23.5024L26.8098 18.5068L25.3721 15.1439C24.9496 14.1693 24.5516 13.4951 24.178 13.1211C24.048 12.9916 23.8979 12.89 23.7273 12.817C23.5569 12.7436 23.317 12.6826 23.0084 12.6341V12.3905H31.8296V12.6341C30.9525 12.7802 30.5137 13.2516 30.5137 14.0473C30.5137 14.2423 30.5581 14.5103 30.6476 14.8518C30.7367 15.1928 30.855 15.5424 31.0012 15.8994L34.0469 23.1368L34.656 21.8938C35.2736 20.6109 35.7486 19.4248 36.0816 18.3362C36.4143 17.2479 36.5812 16.2891 36.5812 15.4608C36.5812 14.5187 36.3778 13.7956 35.9721 13.292C35.8256 13.1134 35.6632 12.9794 35.4846 12.89C35.3057 12.801 35.0377 12.7154 34.6804 12.6341V12.3905H40.7966V12.6341C40.3905 12.7965 40.086 12.943 39.8829 13.0727Z" fill="black" fill-opacity="0.4"/>
<path d="M49.2167 24.879C49.1029 25.147 48.9893 25.3871 48.8758 25.598C48.7619 25.8091 48.6358 26.0122 48.4978 26.2072C48.3598 26.4021 48.2014 26.6132 48.0227 26.8408C47.4538 27.5229 46.7717 28.0469 45.9761 28.4126C45.18 28.778 44.3024 28.9606 43.3442 28.9606C42.4342 28.9606 41.5857 28.8021 40.798 28.4855C40.0099 28.1684 39.3275 27.7299 38.7508 27.1693C38.1742 26.6092 37.7237 25.9475 37.3987 25.1836C37.0733 24.4204 36.9112 23.5918 36.9112 22.6979C36.9112 21.7886 37.0821 20.9355 37.4231 20.1394C37.7642 19.3437 38.2351 18.6492 38.8362 18.056C39.4374 17.463 40.1399 16.9959 40.944 16.655C41.7481 16.3135 42.6131 16.1433 43.5393 16.1433C44.3513 16.1433 45.0988 16.2649 45.7809 16.5085C46.4631 16.7524 47.0641 17.1019 47.5842 17.5562C48.1038 18.0116 48.5303 18.5637 48.8633 19.2133C49.1964 19.8634 49.4118 20.5864 49.5093 21.3821H41.4435C41.4596 24.4204 42.8162 25.9391 45.5129 25.9391C46.5365 25.9391 47.4053 25.6875 48.1203 25.1836C48.3963 25.0051 48.6154 24.8224 48.7783 24.6351C48.9404 24.4489 49.1438 24.1684 49.3873 23.7948L49.6069 23.892C49.4604 24.2819 49.3304 24.611 49.2167 24.879ZM45.1961 20.3753C45.1961 20.1785 45.192 20.0025 45.1839 19.8462C45.1755 19.6902 45.1676 19.5464 45.1594 19.4152C45.1515 19.2842 45.139 19.1367 45.123 18.972C45.0579 18.0857 44.8954 17.4411 44.6358 17.0388C44.3758 16.6371 44.0023 16.4354 43.5149 16.4354C42.8327 16.4354 42.3167 16.8339 41.9676 17.6299C41.6181 18.4264 41.4435 19.58 41.4435 21.0896H45.1961V20.3753Z" fill="black" fill-opacity="0.4"/>
<path d="M62.9408 28.5343C62.3241 28.8344 61.708 28.9849 61.0921 28.9849C59.7785 28.9849 58.9678 28.2052 58.6605 26.6456C58.3683 27.052 58.1251 27.3524 57.9305 27.5476C57.7358 27.7421 57.4927 27.9372 57.2009 28.1322C56.3902 28.6844 55.4174 28.9608 54.2829 28.9608C53.2615 28.9608 52.4263 28.7168 51.7777 28.2297C51.1293 27.7421 50.8054 27.1009 50.8054 26.3044C50.8054 25.2808 51.3736 24.4446 52.5111 23.7946C53.9888 22.9661 56.036 22.1703 58.6516 21.4064V20.1392C58.6516 18.9374 58.5942 18.1333 58.4808 17.727C58.3993 17.4349 58.2452 17.2033 58.0181 17.0327C57.7903 16.8618 57.5222 16.7767 57.214 16.7767C56.9861 16.7767 56.7631 16.8173 56.5435 16.8983C56.3244 16.9801 56.1331 17.0853 55.9709 17.2153C55.7599 17.3942 55.6014 17.6294 55.4959 17.9219C55.39 18.2144 55.297 18.6209 55.2159 19.1405L55.1184 19.8716C55.0208 20.6513 54.7407 21.2648 54.2777 21.7113C53.8147 22.1583 53.2421 22.3814 52.5596 22.3814C52.056 22.3814 51.646 22.2229 51.329 21.9063C51.0124 21.5894 50.854 21.1793 50.854 20.6754C50.854 19.49 51.7956 18.4663 53.6807 17.6053C54.6877 17.1342 55.7314 16.7727 56.812 16.5207C57.8922 16.2691 58.885 16.1432 59.7903 16.1432C60.7269 16.1432 61.4624 16.3622 61.9952 16.8012C62.3504 17.0935 62.5968 17.4388 62.7342 17.8368C62.8711 18.2348 62.9401 18.7914 62.9401 19.5057V25.1108C62.9401 25.5817 62.9482 25.9189 62.9645 26.122C62.9807 26.3253 63.0292 26.4995 63.1107 26.6456C63.1752 26.8084 63.2892 26.9344 63.4517 27.0235C63.6143 27.113 63.8013 27.1575 64.0123 27.1575C64.1588 27.1575 64.3007 27.1375 64.4388 27.0966C64.5764 27.056 64.7594 26.9709 64.9869 26.8406L65.1334 27.0115C64.2883 27.7265 63.5577 28.2336 62.9408 28.5343ZM58.6516 21.6989C58.1801 21.8618 57.8311 21.9878 57.6035 22.0765C57.3762 22.1664 57.1486 22.3003 56.9216 22.4789C56.515 22.7553 56.2226 23.0964 56.0443 23.5021C55.8654 23.9086 55.776 24.4202 55.776 25.0373C55.776 25.7684 55.898 26.3289 56.1419 26.719C56.3854 27.1086 56.7346 27.3036 57.1895 27.3036C57.6442 27.3036 58.0017 27.1415 58.2617 26.8166C58.5213 26.4915 58.6516 26.0447 58.6516 25.476V21.6989Z" fill="black" fill-opacity="0.4"/>
<path d="M65.0512 28.6438V28.3514C65.4735 28.3192 65.7861 28.2666 65.9895 28.1932C66.1925 28.1206 66.3671 27.9949 66.5134 27.8166C66.6267 27.655 66.7081 27.416 66.757 27.0999C66.8057 26.7841 66.8301 26.2451 66.8301 25.4837V15.4954C66.8301 14.7664 66.7972 14.2278 66.7326 13.8795C66.6675 13.5312 66.5375 13.2273 66.3429 12.9681C66.1636 12.7252 65.9566 12.5509 65.7214 12.4458C65.4859 12.3407 65.1649 12.2796 64.7588 12.2632L64.7103 11.9959C65.0349 11.9313 65.3149 11.8752 65.5509 11.826C65.7861 11.7776 66.0175 11.725 66.2453 11.668C66.4726 11.6114 66.7198 11.5504 66.9871 11.4858C67.2537 11.4211 67.5729 11.3401 67.9444 11.2426C68.3319 11.1454 68.6556 11.0603 68.9136 10.9874C69.1721 10.9146 69.4103 10.842 69.6287 10.769C69.8463 10.6956 70.0687 10.623 70.2947 10.5499C70.5211 10.4772 70.7955 10.3924 71.1185 10.2948V25.4837C71.1185 25.8565 71.1226 26.1723 71.1309 26.4317C71.1389 26.6909 71.1554 26.9056 71.1795 27.0754C71.204 27.2456 71.2365 27.3873 71.2771 27.5008C71.3176 27.6145 71.3705 27.72 71.4356 27.8166C71.565 27.9949 71.7317 28.1206 71.935 28.1932C72.138 28.2666 72.4591 28.3192 72.8977 28.3514V28.6438H65.0512Z" fill="black" fill-opacity="0.4"/>
<path d="M80.7558 28.5458C80.0977 28.8224 79.4295 28.961 78.75 28.961C77.797 28.961 76.9971 28.7003 76.3515 28.1796C75.9473 27.8542 75.6647 27.447 75.5032 26.9584C75.3419 26.4705 75.2611 25.7782 75.2611 24.8827V17.5811H72.264C72.605 17.4347 72.9054 17.2969 73.1655 17.1667C73.4252 17.037 73.665 16.907 73.8841 16.777C74.1036 16.647 74.3231 16.509 74.5422 16.3625C74.7616 16.2165 75.017 16.0379 75.3094 15.8264C76.0365 15.2904 76.6904 14.7464 77.2721 14.1937C77.5142 13.9667 77.7282 13.7595 77.9142 13.5727C78.1 13.386 78.277 13.191 78.4473 12.9876C78.617 12.7846 78.7864 12.5654 78.9563 12.3299C79.1258 12.0943 79.3236 11.8143 79.5496 11.4889V16.46H82.62L82.0108 17.5811H79.5496V24.6144C79.5496 25.5419 79.7038 26.2054 80.0127 26.6046C80.3212 27.0034 80.8413 27.2027 81.5723 27.2027C81.7994 27.2027 82.0108 27.1867 82.2058 27.1538C82.4009 27.1213 82.6525 27.0483 82.9611 26.9339L83.1075 27.1293C82.1976 27.7969 81.4138 28.2691 80.7558 28.5458Z" fill="black" fill-opacity="0.4"/>
<path d="M91.7334 28.6438V28.3514C92.188 28.3027 92.4925 28.1647 92.647 27.9372C92.8014 27.7098 92.8785 27.2547 92.8785 26.5726V20.1393C92.8785 19.7007 92.8579 19.3717 92.8171 19.1526C92.7763 18.9331 92.6905 18.7345 92.5593 18.5556C92.4443 18.3934 92.2892 18.263 92.0927 18.1656C91.8963 18.068 91.6916 18.0195 91.4791 18.0195C91.2009 18.0195 90.9107 18.0889 90.608 18.2265C90.3048 18.3646 89.9652 18.5961 89.5891 18.9211V26.7186C89.5891 26.9136 89.5971 27.0766 89.6132 27.2061C89.6292 27.3363 89.6457 27.4417 89.6621 27.523C89.6778 27.6046 89.7023 27.6855 89.7352 27.7667C89.8163 27.9455 89.9301 28.0795 90.0761 28.1687C90.2226 28.2581 90.4418 28.3192 90.7343 28.3514V28.6438H83.3509V28.3514C83.822 28.3192 84.1712 28.2666 84.3986 28.1932C84.6262 28.1206 84.813 27.9949 84.9592 27.8166C85.0892 27.6385 85.1786 27.3957 85.2272 27.0878C85.2762 26.78 85.3002 26.2451 85.3002 25.4837V15.4954C85.3002 14.7664 85.2673 14.2278 85.2028 13.8795C85.1376 13.5312 85.0158 13.2273 84.8372 12.9681C84.6583 12.7252 84.4512 12.5509 84.216 12.4458C83.9803 12.3407 83.6512 12.2796 83.2291 12.2632L83.2046 11.9959C83.546 11.9313 83.8462 11.8706 84.1064 11.814C84.3661 11.7572 84.6138 11.7004 84.8492 11.6439C85.0849 11.587 85.3279 11.5259 85.5785 11.4613C85.829 11.3967 86.1156 11.3237 86.4392 11.2426C86.7781 11.1454 87.0727 11.0643 87.3232 10.9994C87.5737 10.9347 87.8121 10.8664 88.0382 10.793C88.2643 10.72 88.4984 10.6474 88.7409 10.5743C88.9829 10.5016 89.2656 10.4082 89.5891 10.2948V18.5573C89.8163 18.3631 90.0112 18.201 90.1737 18.0713C90.3358 17.9421 90.4823 17.8285 90.6123 17.7309C90.7423 17.6341 90.8643 17.5452 90.9778 17.4641C91.0913 17.3833 91.2213 17.2941 91.3678 17.1968C91.9363 16.8242 92.4681 16.5525 92.9639 16.3824C93.4591 16.2129 93.9666 16.1275 94.4867 16.1275C95.3802 16.1275 96.0543 16.4032 96.5094 16.9535C96.7369 17.2292 96.8992 17.5571 96.9965 17.9381C97.094 18.3185 97.1429 18.8495 97.1429 19.5298V25.9697L97.1673 26.5777C97.1831 26.9336 97.1955 27.1893 97.2039 27.3431C97.2118 27.4968 97.2564 27.6385 97.3378 27.7682C97.4354 27.9463 97.577 28.08 97.764 28.169C97.9506 28.2581 98.2311 28.3192 98.605 28.3514V28.6438H91.7334Z" fill="black" fill-opacity="0.4"/>
<path d="M109.68 26.3119C109.412 26.8572 109.038 27.3252 108.559 27.7159C108.08 28.1063 107.507 28.4116 106.841 28.6315C106.175 28.8506 105.452 28.9609 104.673 28.9609C104.445 28.9609 104.222 28.953 104.003 28.9382C103.783 28.9233 103.543 28.8929 103.283 28.8483C103.024 28.803 102.739 28.7458 102.431 28.676C102.122 28.6059 101.757 28.5061 101.334 28.3758C101.057 28.2948 100.834 28.2298 100.664 28.1809C100.493 28.1323 100.335 28.0836 100.189 28.0347C100.042 27.9863 99.9007 27.9373 99.7622 27.8887C99.6246 27.8398 99.4576 27.775 99.2631 27.6937L99.0194 22.8446H99.2631C99.6531 23.7381 100.079 24.5462 100.542 25.2689C101.005 25.992 101.492 26.6055 102.004 27.1087C102.516 27.6127 103.036 27.9983 103.563 28.2663C104.091 28.5344 104.616 28.6684 105.135 28.6684C105.672 28.6684 106.101 28.5058 106.427 28.1801C106.751 27.8547 106.914 27.4315 106.914 26.9104C106.914 26.3735 106.748 25.9342 106.414 25.592C106.081 25.2503 105.484 24.9327 104.623 24.6397L103.43 24.2245C101.87 23.6877 100.757 23.0976 100.091 22.4545C99.4252 21.8118 99.0921 21.0427 99.0921 20.147C99.0921 19.5776 99.2257 19.0486 99.4939 18.5608C99.7622 18.0725 100.128 17.6493 100.591 17.291C101.054 16.9327 101.602 16.652 102.235 16.4486C102.869 16.2451 103.559 16.1433 104.307 16.1433C104.956 16.1433 105.615 16.1922 106.281 16.2893C106.946 16.3868 107.734 16.5658 108.644 16.8258L108.888 20.8219H108.644C108.384 20.1883 108.075 19.6033 107.718 19.0672C107.361 18.5315 106.979 18.0684 106.573 17.6784C106.167 17.2884 105.752 16.9839 105.33 16.7648C104.907 16.5453 104.502 16.4358 104.112 16.4358C103.64 16.4358 103.239 16.5946 102.906 16.9119C102.573 17.2297 102.406 17.616 102.406 18.0713C102.406 19.0482 103.177 19.7888 104.721 20.2935L106.378 20.8302C107.678 21.2539 108.62 21.7585 109.205 22.3443C109.789 22.9303 110.082 23.6625 110.082 24.5415C110.082 25.1765 109.947 25.7666 109.68 26.3119Z" fill="black" fill-opacity="0.4"/>
<path d="M110.448 28.6437V28.3513C110.886 28.3191 111.206 28.2662 111.409 28.1932C111.613 28.1198 111.779 27.9942 111.909 27.8152C112.039 27.6367 112.129 27.393 112.178 27.0842C112.226 26.7759 112.25 26.2397 112.25 25.4759V21.4794C112.25 21.1223 112.242 20.8094 112.226 20.5413C112.209 20.2733 112.181 20.0417 112.14 19.8471C112.1 19.6521 112.051 19.4812 111.994 19.3351C111.937 19.189 111.86 19.051 111.763 18.921C111.584 18.6936 111.377 18.5274 111.141 18.4214C110.905 18.3159 110.577 18.2469 110.155 18.2145L110.13 17.9705C110.455 17.9059 110.735 17.8448 110.971 17.7879C111.206 17.7309 111.438 17.6699 111.666 17.6049C111.893 17.5403 112.14 17.4712 112.409 17.3978C112.677 17.3249 112.997 17.2317 113.371 17.1177C113.745 17.0043 114.062 16.9103 114.321 16.8377C114.581 16.7643 114.824 16.6912 115.052 16.6183C115.279 16.5452 115.507 16.4682 115.734 16.3866C115.962 16.3057 116.23 16.2081 116.539 16.0942V25.4759C116.539 25.8499 116.543 26.1664 116.552 26.426C116.559 26.6865 116.575 26.9015 116.6 27.072C116.624 27.2427 116.661 27.385 116.71 27.4985C116.758 27.6125 116.815 27.7176 116.88 27.8152C117.009 27.9942 117.176 28.1198 117.38 28.1932C117.582 28.2662 117.904 28.3191 118.342 28.3513V28.6437H110.448ZM116.503 13.7914C116.364 14.1083 116.177 14.3805 115.942 14.608C115.706 14.8356 115.431 15.0183 115.113 15.1562C114.797 15.294 114.459 15.3631 114.102 15.3631C113.745 15.3631 113.412 15.294 113.103 15.1562C112.795 15.0183 112.523 14.8356 112.287 14.608C112.051 14.3805 111.864 14.1083 111.727 13.7914C111.588 13.4748 111.519 13.1377 111.519 12.7803C111.519 12.4231 111.588 12.0897 111.727 11.7811C111.864 11.4726 112.047 11.2004 112.275 10.9649C112.502 10.7294 112.774 10.5424 113.091 10.4045C113.408 10.2665 113.745 10.1974 114.102 10.1974C114.459 10.1974 114.797 10.2665 115.113 10.4045C115.431 10.5424 115.706 10.7254 115.942 10.9526C116.177 11.1805 116.364 11.4521 116.503 11.7687C116.64 12.0858 116.71 12.4231 116.71 12.7803C116.71 13.1377 116.64 13.4748 116.503 13.7914Z" fill="black" fill-opacity="0.4"/>
<path d="M133.888 28.6438V28.3514C134.343 28.3028 134.648 28.1648 134.802 27.9372C134.956 27.7099 135.034 27.2548 135.034 26.5726V20.4074C135.034 19.8392 135.013 19.4082 134.973 19.1161C134.932 18.8236 134.853 18.5881 134.739 18.4092C134.641 18.247 134.489 18.117 134.285 18.0196C134.08 17.922 133.872 17.8731 133.658 17.8731C133.38 17.8731 133.101 17.9424 132.823 18.0805C132.545 18.2184 132.226 18.45 131.865 18.7746V26.5726C131.865 26.9136 131.882 27.1939 131.915 27.4132C131.947 27.6327 132.004 27.8077 132.086 27.9372C132.166 28.0674 132.28 28.1648 132.426 28.2297C132.573 28.2947 132.767 28.3352 133.011 28.3514V28.6438H126.457V28.3514C126.684 28.3352 126.871 28.2947 127.017 28.2297C127.163 28.1648 127.276 28.0674 127.358 27.9372C127.439 27.8077 127.495 27.6327 127.529 27.4132C127.561 27.1939 127.577 26.9136 127.577 26.5726V20.4074C127.577 19.8553 127.556 19.4448 127.516 19.1771C127.476 18.9087 127.39 18.6696 127.261 18.4581C127.163 18.2795 127.013 18.1412 126.81 18.044C126.606 17.9465 126.383 17.8975 126.14 17.8975C125.864 17.8975 125.591 17.9626 125.323 18.0926C125.055 18.2229 124.75 18.45 124.409 18.7746V26.5726C124.409 26.9136 124.425 27.1939 124.459 27.4132C124.49 27.6327 124.547 27.8077 124.629 27.9372C124.71 28.0674 124.828 28.1648 124.982 28.2297C125.136 28.2947 125.327 28.3352 125.554 28.3514V28.6438H118.147V28.3514C118.618 28.3196 118.968 28.2669 119.194 28.194C119.422 28.1208 119.609 27.9957 119.755 27.8174C119.902 27.6392 119.995 27.3967 120.035 27.0894C120.076 26.7818 120.096 26.2483 120.096 25.4876V21.5069C120.096 21.1509 120.088 20.8397 120.072 20.5729C120.056 20.3058 120.032 20.0751 119.999 19.8808C119.967 19.687 119.922 19.5167 119.865 19.371C119.808 19.2257 119.731 19.0876 119.634 18.9583C119.455 18.7324 119.248 18.5662 119.012 18.461C118.777 18.3558 118.448 18.2872 118.025 18.2546L118.001 18.0119C118.18 17.9797 118.338 17.9475 118.476 17.9151C118.614 17.8826 118.724 17.8505 118.804 17.8176C119.194 17.7212 119.569 17.628 119.926 17.539C120.283 17.4498 120.641 17.3527 120.998 17.2475C121.355 17.1428 121.729 17.0292 122.119 16.9076C122.508 16.7866 122.94 16.645 123.41 16.4828L124.409 16.1432V18.4581C124.556 18.3117 124.686 18.182 124.8 18.0681C124.912 17.9544 125.026 17.853 125.14 17.7635C125.254 17.6744 125.372 17.5849 125.494 17.4955C125.616 17.4065 125.765 17.3049 125.945 17.1909C126.513 16.8174 127.036 16.5494 127.514 16.3868C127.993 16.2247 128.49 16.1432 129.006 16.1432C130.622 16.1432 131.575 16.9149 131.865 18.4581C132.044 18.2959 132.199 18.1535 132.329 18.0316C132.459 17.91 132.581 17.8 132.695 17.7026C132.808 17.6051 132.918 17.5159 133.023 17.4346C133.129 17.3535 133.247 17.2725 133.377 17.1909C133.896 16.8338 134.416 16.5695 134.936 16.3989C135.455 16.2283 135.976 16.1432 136.496 16.1432C138.364 16.1432 139.298 17.2921 139.298 19.5898V25.973L139.322 26.58C139.338 26.936 139.351 27.1905 139.359 27.3443C139.367 27.4984 139.412 27.6392 139.493 27.7689C139.591 27.9471 139.732 28.0804 139.92 28.1696C140.106 28.2587 140.386 28.3196 140.76 28.3514V28.6438H133.888Z" fill="black" fill-opacity="0.4"/>
<path d="M154.684 24.7085C154.383 25.5615 153.971 26.3045 153.45 26.9382C152.929 27.5717 152.318 28.0673 151.617 28.4244C150.917 28.7816 150.159 28.9609 149.345 28.9609C148.871 28.9609 148.46 28.8955 148.111 28.7658C147.76 28.6358 147.373 28.4087 146.949 28.0833V30.3094C146.949 30.679 146.953 30.9876 146.961 31.2373C146.969 31.4856 146.99 31.6984 147.022 31.8753C147.055 32.0521 147.096 32.1964 147.144 32.3088C147.193 32.4212 147.258 32.5256 147.339 32.6217C147.486 32.7985 147.68 32.9226 147.924 32.9952C148.168 33.0672 148.549 33.1194 149.07 33.152V33.4441H140.394V33.152C140.946 33.103 141.344 33.0347 141.588 32.9455C141.832 32.8565 142.043 32.6984 142.222 32.4716C142.384 32.2934 142.49 32.0506 142.539 31.7428C142.57 31.6132 142.595 31.4832 142.612 31.3543C142.627 31.2243 142.64 31.0704 142.648 30.8922C142.657 30.7141 142.661 30.4868 142.661 30.2115V21.5132C142.661 21.1567 142.652 20.8449 142.636 20.5775C142.62 20.3103 142.595 20.0795 142.563 19.8852C142.53 19.6909 142.486 19.5208 142.429 19.375C142.372 19.2289 142.295 19.0913 142.197 18.9616C142.018 18.7349 141.811 18.5687 141.576 18.4639C141.34 18.3588 141.011 18.2897 140.589 18.2569L140.565 18.014C140.874 17.9493 141.146 17.8888 141.382 17.8322C141.617 17.7752 141.848 17.7142 142.076 17.6496C142.303 17.5849 142.55 17.516 142.817 17.443C143.084 17.3703 143.411 17.2775 143.8 17.1639C144.187 17.0503 144.51 16.9575 144.768 16.8846C145.027 16.8112 145.265 16.7385 145.484 16.6655C145.702 16.5928 145.924 16.5157 146.15 16.4346C146.376 16.3539 146.642 16.2565 146.949 16.1433V17.727C147.616 17.1585 148.24 16.7524 148.819 16.5085C149.397 16.2648 149.996 16.1433 150.615 16.1433C151.283 16.1433 151.894 16.2856 152.448 16.5694C153.001 16.8539 153.478 17.2519 153.878 17.7635C154.277 18.2751 154.586 18.8846 154.806 19.5912C155.026 20.2978 155.136 21.0818 155.136 21.9426C155.136 22.9337 154.986 23.8557 154.684 24.7085ZM149.991 18.9088C149.598 17.975 149.059 17.5076 148.372 17.5076C148.176 17.5076 147.979 17.5484 147.783 17.6294C147.587 17.711 147.309 17.8649 146.949 18.0925V27.6933C147.309 28.0512 147.71 28.2298 148.151 28.2298C148.92 28.2298 149.517 27.7506 149.942 26.7921C150.367 25.8335 150.58 24.4933 150.58 22.7712C150.58 21.1304 150.383 19.8432 149.991 18.9088Z" fill="black" fill-opacity="0.4"/>
<path d="M154.844 28.6438V28.3514C155.266 28.3192 155.578 28.2666 155.782 28.1932C155.985 28.1206 156.16 27.9949 156.306 27.8166C156.419 27.655 156.501 27.416 156.55 27.0999C156.598 26.7841 156.623 26.2451 156.623 25.4837V15.4954C156.623 14.7664 156.59 14.2278 156.526 13.8795C156.461 13.5312 156.33 13.2273 156.135 12.9681C155.957 12.7252 155.749 12.5509 155.515 12.4458C155.279 12.3407 154.958 12.2796 154.552 12.2632L154.503 11.9959C154.828 11.9313 155.108 11.8752 155.344 11.826C155.578 11.7776 155.81 11.725 156.038 11.668C156.265 11.6114 156.513 11.5504 156.78 11.4858C157.046 11.4211 157.366 11.3401 157.737 11.2426C158.125 11.1454 158.448 11.0603 158.707 10.9874C158.965 10.9146 159.203 10.842 159.421 10.769C159.639 10.6956 159.861 10.623 160.087 10.5499C160.314 10.4772 160.588 10.3924 160.911 10.2948V25.4837C160.911 25.8565 160.915 26.1723 160.924 26.4317C160.932 26.6909 160.949 26.9056 160.972 27.0754C160.997 27.2456 161.029 27.3873 161.069 27.5008C161.111 27.6145 161.163 27.72 161.229 27.8166C161.358 27.9949 161.524 28.1206 161.728 28.1932C161.931 28.2666 162.251 28.3192 162.69 28.3514V28.6438H154.844Z" fill="black" fill-opacity="0.4"/>
<path d="M174.66 24.879C174.546 25.147 174.434 25.3871 174.319 25.598C174.205 25.8091 174.079 26.0122 173.941 26.2072C173.803 26.4021 173.646 26.6132 173.467 26.8408C172.898 27.5229 172.216 28.0469 171.42 28.4126C170.624 28.778 169.747 28.9606 168.789 28.9606C167.878 28.9606 167.03 28.8021 166.242 28.4855C165.454 28.1684 164.771 27.7299 164.195 27.1693C163.619 26.6092 163.167 25.9475 162.843 25.1836C162.517 24.4204 162.356 23.5918 162.356 22.6979C162.356 21.7886 162.527 20.9355 162.866 20.1394C163.209 19.3437 163.679 18.6492 164.28 18.056C164.881 17.463 165.583 16.9959 166.388 16.655C167.192 16.3135 168.057 16.1433 168.982 16.1433C169.796 16.1433 170.542 16.2649 171.225 16.5085C171.908 16.7524 172.508 17.1019 173.029 17.5562C173.548 18.0116 173.974 18.5637 174.307 19.2133C174.64 19.8634 174.856 20.5864 174.953 21.3821H166.888C166.904 24.4204 168.26 25.9391 170.958 25.9391C171.981 25.9391 172.848 25.6875 173.565 25.1836C173.841 25.0051 174.06 24.8224 174.222 24.6351C174.384 24.4489 174.588 24.1684 174.831 23.7948L175.05 23.892C174.905 24.2819 174.774 24.611 174.66 24.879ZM170.64 20.3753C170.64 20.1785 170.637 20.0025 170.628 19.8462C170.62 19.6902 170.611 19.5464 170.603 19.4152C170.596 19.2842 170.583 19.1367 170.567 18.972C170.501 18.0857 170.339 17.4411 170.08 17.0388C169.82 16.6371 169.446 16.4354 168.959 16.4354C168.277 16.4354 167.761 16.8339 167.411 17.6299C167.062 18.4264 166.888 19.58 166.888 21.0896H170.64V20.3753Z" fill="black" fill-opacity="0.4"/>
</svg>
