<svg width="187" height="44" viewBox="0 0 187 44" fill="none" xmlns="http://www.w3.org/2000/svg">
<path d="M40.3221 18.5246C40.3221 13.1583 43.3352 11.8925 48.3986 11.8925H56.8549C63.2349 11.8925 64.1207 14.1947 64.1207 17.7647V18.3478H58.6004C58.6004 16.5251 57.5621 16.2976 55.766 16.2976H49.6644C46.828 16.2976 46.0945 16.9803 46.0945 20.1196V22.3974C46.0945 25.5386 46.828 26.2213 49.6644 26.2213H55.6644C57.1334 26.2213 58.6004 25.9938 58.6004 24.2219V23.6896H51.613V19.8921H64.2223V25.1079C64.2223 30.3725 61.4876 30.6265 55.1584 30.6265H48.3986C43.3352 30.6265 40.3221 29.3606 40.3221 23.9943V18.5246Z" fill="black" fill-opacity="0.4"/>
<path d="M65.9722 12.0941H86.0223V16.3469H71.5922V19.2849H85.2644V23.0825H71.5922V26.0186H86.3515V30.4237H65.9722V12.0941Z" fill="black" fill-opacity="0.4"/>
<path d="M88.1013 12.094H93.7233V30.4236H88.1013V12.094Z" fill="black" fill-opacity="0.4"/>
<path d="M95.4731 18.5246C95.4731 13.1583 98.486 11.8925 103.55 11.8925H110.157C118.156 11.8925 119.197 13.6135 119.143 18.803H113.524V18.297C113.524 16.9803 112.563 16.6004 110.891 16.6004H104.765C101.802 16.6004 101.246 17.9942 101.246 20.272V22.2469C101.246 24.9047 101.802 25.9185 104.461 25.9185H110.461C112.993 25.9185 113.752 25.6646 113.752 23.3849H119.371V25.1079C119.371 28.1963 118.258 30.6265 112.612 30.6265H103.55C98.486 30.6265 95.4731 29.3606 95.4731 23.9943V18.5246Z" fill="black" fill-opacity="0.4"/>
<path d="M126.894 22.2467C126.894 24.9043 127.45 25.9182 130.11 25.9182H137.299C139.956 25.9182 140.513 24.9043 140.513 22.2467V20.2716C140.513 17.9938 139.956 16.6001 136.996 16.6001H130.412C127.45 16.6001 126.894 17.9938 126.894 20.2716V22.2467ZM121.121 18.5243C121.121 13.158 124.134 11.8921 129.198 11.8921H138.209C143.274 11.8921 146.287 13.158 146.287 18.5243V23.994C146.287 29.3603 143.274 30.6261 138.209 30.6261H129.198C124.134 30.6261 121.121 29.3603 121.121 23.994V18.5243Z" fill="black" fill-opacity="0.4"/>
</svg>
