<svg width="188" height="44" viewBox="0 0 188 44" fill="none" xmlns="http://www.w3.org/2000/svg">
<mask id="mask0_187_298" style="mask-type:luminance" maskUnits="userSpaceOnUse" x="35" y="2" width="117" height="39">
<path d="M151.882 2.3335H35.507V40.8966H151.882V2.3335Z" fill="white"/>
</mask>
<g mask="url(#mask0_187_298)">
<path d="M89.2146 19.992C86.199 19.992 85.96 17.6955 85.96 17.0183C85.96 16.2153 86.1428 14.7217 88.102 14.0026C90.0604 13.2844 90.4833 13.1997 91.8787 12.7624V12.4244C91.8787 11.748 91.8787 11.6214 91.7234 11.1842C91.4843 10.4089 90.7233 9.88774 89.666 9.88774C88.6659 9.88774 87.8058 10.4517 87.4115 11.2832L86.8476 10.945C87.1858 9.70489 88.4678 8.46473 90.6662 8.46473C92.1883 8.46473 93.2446 8.9019 93.8646 9.86013C94.3295 10.6354 94.3857 11.6776 94.3857 12.7348C94.3857 13.6931 94.3295 14.7503 94.3295 15.6095C94.3295 16.1734 94.2733 16.723 94.2733 17.0326C94.2733 17.8079 94.4285 18.4279 95.0485 18.4279C95.3305 18.4279 95.3867 18.3289 95.6125 18.1889L95.9505 18.626C95.3867 19.4014 94.7105 20.0214 93.597 20.0214C92.7378 20.0214 92.1178 19.5842 91.8634 18.8803C91.511 19.3737 90.5957 19.9938 89.2146 19.9938V19.992ZM91.8778 14.1436C90.3986 14.5808 89.8623 14.8199 89.4404 15.0457C88.764 15.3837 88.4822 16.0038 88.4822 16.8068C88.4822 17.427 88.7212 18.427 90.1586 18.427C90.6234 18.427 91.2996 18.328 91.9197 17.906V14.1293H91.8778V14.1436ZM66.9788 19.3996C66.9788 18.2862 66.9788 17.3422 66.8797 16.201H67.5561C67.5561 16.9193 67.7389 17.4412 68.0771 17.7794C68.5419 18.3004 69.6553 18.6386 70.6555 18.6386C72.7547 18.6386 73.7558 17.8356 73.7558 16.102C73.7558 14.6227 72.8538 14.0026 71.6137 13.1283L71.4307 12.973L70.0925 12.0711C68.2323 10.8308 67.2741 9.87261 67.2741 7.91423C67.2741 6.95601 67.6542 3.79939 72.2908 3.79939C73.4881 3.79939 75.0102 3.95463 75.9264 4.08132C75.9264 4.23657 75.8703 4.94052 75.8703 5.5606C75.8703 6.27882 75.8702 6.46262 75.9264 7.32181H75.3626C75.3626 6.54649 75.1235 6.08164 74.7988 5.7435C74.3616 5.30632 73.3757 5.06721 72.3185 5.06721C69.8383 5.06721 69.5563 6.30737 69.5563 7.2656C69.5563 8.56198 70.2326 9.02682 71.6985 9.98501L73.3749 11.0985C74.7979 12.0567 76.137 12.9587 76.137 15.3544C76.137 19.3701 72.3605 19.793 70.7821 19.793C69.3306 19.9902 68.119 19.7788 66.9779 19.3987L66.9788 19.3996ZM96.9926 9.18295C97.5565 9.23915 98.4157 9.18295 99.2473 9.0277C99.9655 8.87247 100.205 8.78859 100.726 8.56287L100.966 8.71811V9.5773C101.53 9.14012 102.642 8.52004 104.221 8.52004C106.236 8.52004 107.532 9.47827 107.898 11.1547C107.997 11.5919 108.053 12.5778 108.053 13.1702V16.425C108.053 18.2424 108.152 18.7786 108.49 19.1025C108.673 19.2577 109.054 19.4406 109.604 19.4406V19.9617C108.885 19.9055 107.589 19.8627 106.842 19.8627C105.842 19.8627 104.699 19.9189 104.079 19.9617V19.4406C104.643 19.3844 104.981 19.2015 105.192 19.0606C105.531 18.7224 105.572 18.1023 105.629 16.7069C105.629 16.2698 105.686 15.4106 105.686 14.7904C105.686 13.9875 105.686 13.114 105.587 12.2539C105.432 10.8308 104.685 10.1546 103.233 10.1546C102.233 10.1546 101.613 10.3936 101.134 10.6194V16.4535C101.134 18.2709 101.233 18.8072 101.571 19.131C101.755 19.2862 102.192 19.4692 102.629 19.4692V19.9902C101.726 19.934 100.613 19.8912 99.9095 19.8912C98.4299 19.8912 97.9509 19.9474 97.0908 19.9902V19.4406C97.5556 19.4406 98.049 19.2577 98.288 18.9758C98.6264 18.5957 98.6677 17.6375 98.6677 15.7772V12.4653C98.6677 11.07 98.6117 10.507 98.429 10.2108C98.2738 9.97165 97.908 9.77358 97.1327 9.77358V9.15351H97.0337V9.18205H96.9918L96.9926 9.18295ZM110.816 19.371C111.281 19.371 111.774 19.2158 112.014 18.9062C112.352 18.5261 112.394 17.5678 112.394 15.7077V10.1411H110.97V9.52109C111.59 9.28198 112.112 9.00004 112.394 8.74577C112.394 7.74561 112.45 6.49117 112.577 5.77205C113.014 3.47551 114.492 2.3335 117.015 2.3335C118.129 2.3335 119.157 2.71358 119.833 3.23552L119.889 3.47462L118.776 4.99673H118.494C118.114 4.09471 117.536 3.57366 116.536 3.57366C116.198 3.57366 115.733 3.67269 115.423 3.95374C114.958 4.41858 114.859 5.15108 114.859 6.58842V8.7306H117.339V10.126H114.859V16.2983C114.859 17.7775 114.915 18.4967 115.098 18.7786C115.38 19.2434 116.394 19.2997 116.859 19.2997V19.8636C116.055 19.8074 114.76 19.7645 113.843 19.7645C112.448 19.7645 111.547 19.8207 110.828 19.8636L110.813 19.3701L110.816 19.371ZM123.625 20.0759C120.243 20.0759 118.229 17.9765 118.229 14.4389C118.229 11.6767 119.707 8.46383 123.865 8.46383C127.248 8.46383 129.262 10.5632 129.262 14.1008C129.262 16.863 127.769 20.0759 123.625 20.0759ZM123.766 9.74682C123.09 9.74682 122.568 9.92969 122.188 10.2679C121.286 11.0432 120.85 12.3672 120.85 14.3265C120.85 15.1019 121.005 18.8214 123.724 18.8214C124.401 18.8214 124.921 18.6386 125.303 18.3004C126.204 17.5251 126.641 16.201 126.641 14.2418C126.627 13.4807 126.5 9.74682 123.766 9.74682ZM130.403 9.12674C131.179 9.18295 131.981 9.07053 132.84 8.94383C133.517 8.8448 133.954 8.70472 134.179 8.56375L134.362 8.66279V9.62102C134.883 9.09997 135.757 8.56375 136.94 8.56375C137.8 8.56375 138.364 8.80287 138.898 9.24005V9.5782L137.94 11.3118H137.475C137.193 10.7907 136.616 10.3116 135.616 10.3116C135.15 10.3116 134.756 10.4106 134.418 10.6498V16.3429C134.418 17.8221 134.474 18.4851 134.657 18.7803C134.939 19.2453 135.898 19.3015 136.418 19.2453V19.8653C135.643 19.8091 134.319 19.7663 133.402 19.7663C132.345 19.7663 131.26 19.7663 130.387 19.8653V19.3015C131.007 19.2453 131.345 19.1185 131.584 18.8366C131.922 18.4565 131.965 17.5402 131.965 15.638V12.5376C131.965 11.1422 131.965 10.5792 131.725 10.283C131.542 10.044 131.161 9.90297 130.429 9.90297V9.18473L130.401 9.12853L130.403 9.12674ZM146.044 3.01157C146.72 3.01157 147.566 2.85632 148.679 2.67342C149.298 2.5744 149.679 2.43431 149.876 2.39149L150.059 2.49052C149.96 3.39254 149.96 5.46424 149.96 6.92924V16.0038C149.96 17.3422 149.96 18.2022 150.142 18.4842C150.325 18.7233 150.706 18.9213 151.439 18.9213V19.4852C150.721 19.4852 149.916 19.5842 149.058 19.7243C148.494 19.8234 148.058 19.9073 147.818 20.0063L147.536 19.9073V18.949C146.972 19.3862 145.916 20.0063 144.435 20.0063C141.378 20.0063 139.419 17.9069 139.419 14.6093C139.419 13.4959 139.601 12.5099 139.983 11.5937C140.941 9.5782 142.857 8.43706 145.281 8.43706C146.183 8.43706 146.957 8.5361 147.423 8.61996V6.26634C147.423 4.87093 147.423 4.16698 147.184 3.82883C147.029 3.58972 146.804 3.49068 145.987 3.44875V2.99819H146.043V3.01246L146.044 3.01157ZM145.65 18.4414C146.425 18.4414 146.945 18.3424 147.467 18.0042V10.5641C147.284 10.3812 146.607 9.78875 145.268 9.78875C143.127 9.78875 142.07 11.2681 142.07 14.3398C142.028 15.622 142.408 18.4414 145.65 18.4414ZM84.8608 18.7795C84.5226 19.2167 83.6634 20.0759 81.8452 20.0759C80.0269 20.0759 79.1677 19.4558 78.7449 18.0604C78.5619 17.5394 78.5619 16.4401 78.5619 15.8057C78.5619 14.0446 78.5619 12.6072 78.6182 10.9299V10.1546H77.1247V9.71738C77.6885 9.47827 78.1248 9.25254 78.5201 8.94206C79.3793 8.26576 79.9431 7.46277 80.5774 6.26455H81.0422V8.74488H84.8188V10.1402H81.0422V15.9744C81.0422 17.7357 81.3804 18.6939 83.0006 18.6939C83.7759 18.6939 84.2969 18.4547 84.5788 18.2567L84.8608 18.7777V18.7795Z" fill="black" fill-opacity="0.4"/>
<path d="M137.829 29.2076C137.645 29.2076 137.392 29.2638 137.265 29.3906C137.11 29.4896 137.11 29.6296 137.11 29.7287C137.11 29.9116 137.166 30.0668 137.293 30.4469L138.35 33.2092C138.505 33.6464 138.632 33.9845 138.688 34.2093L139.985 30.4326C140.14 29.9954 140.167 29.9116 140.167 29.7144C140.167 29.6154 140.11 29.5315 140.012 29.4324C139.857 29.3334 139.673 29.2496 139.448 29.2496V28.8124C139.603 28.8124 139.913 28.8124 140.068 28.8686C140.223 28.8686 140.505 28.9248 140.744 28.9248C141.209 28.9248 141.886 28.8686 142.168 28.8686V29.3058C141.984 29.362 141.547 29.2496 141.168 30.3631L138.448 37.6202C138.068 38.6775 137.546 39.9739 135.685 39.9739C134.91 39.9739 134.389 39.7909 133.952 39.41V39.2271L134.628 38.4241H134.811C134.995 38.8613 135.375 39.0442 135.925 39.0442C136.784 39.0442 137.165 38.2688 137.742 36.7476L137.897 36.3104L135.615 30.3497C135.615 30.2934 135.558 30.1945 135.515 30.1106C135.459 29.9553 135.333 29.6733 135.333 29.6733C135.177 29.3915 134.952 29.2933 134.656 29.2933V28.8561C135.093 28.9123 135.853 28.9123 136.234 28.9123C136.473 28.9123 136.854 28.9123 137.235 28.8561C137.417 28.8561 137.755 28.7999 137.911 28.7999V29.1799H137.855V29.2085H137.826L137.829 29.2076ZM112.521 29.1086C112.986 29.1648 113.521 29.0524 114.043 28.9534C114.481 28.8543 114.719 28.7981 114.902 28.7142L115.057 28.7704V29.3906C115.395 29.0524 115.917 28.7142 116.677 28.7142C117.241 28.7142 117.579 28.8695 117.918 29.1514V29.3906L117.354 30.504H117.072C116.89 30.1659 116.551 29.8839 115.875 29.8839C115.593 29.8839 115.354 29.9829 115.1 30.123V33.7159C115.1 34.6742 115.156 35.1114 115.255 35.2942C115.437 35.5762 116.03 35.6324 116.368 35.6324V36.0124C115.903 35.9562 115.03 35.9562 114.452 35.9562C113.775 35.9562 113.056 35.9562 112.535 36.0553V35.6752C112.915 35.6752 113.155 35.52 113.31 35.3933C113.55 35.1542 113.55 34.5903 113.55 33.3359V31.3204C113.55 30.4612 113.55 30.0802 113.395 29.8973C113.296 29.742 113.015 29.6582 112.591 29.6582V29.1372H112.521V29.1086ZM80.7032 36.0419C78.6878 36.0419 77.5047 35.4218 77.0676 34.0835C76.8284 33.4072 76.8284 32.5614 76.8284 31.8851V28.0665C76.8284 26.9254 76.7722 26.7282 76.5465 26.5444C76.4474 26.4453 76.2084 26.3615 75.8702 26.3053V25.9252C76.335 25.9814 77.1666 26.0242 77.6314 26.0242C78.4344 26.0242 78.9278 26.0242 79.4488 25.9252V26.3624C79.1106 26.3624 78.885 26.4614 78.6734 26.6443C78.4344 26.8834 78.4344 27.3206 78.4344 28.5608V31.9431C78.4344 33.9586 78.6172 35.255 80.8718 35.255C83.1264 35.255 83.3092 33.9167 83.3092 31.8727V28.1521C83.3092 27.0111 83.253 26.8139 83.0274 26.63C82.872 26.531 82.6472 26.4471 82.351 26.3909V26.0109C82.7882 26.0109 83.3512 26.0671 83.9293 26.0671C84.4504 26.0671 84.9865 26.0671 85.6058 25.968V26.4052C85.2676 26.4052 85.0418 26.5043 84.8304 26.6871C84.5913 26.9263 84.5913 27.3635 84.5913 28.6036V31.4783C84.5913 32.3803 84.5913 33.3948 84.3094 34.1978C83.8588 35.4236 82.7026 36.0437 80.7023 36.0437L80.7032 36.0419ZM94.3294 35.6047C94.7096 35.5485 94.9495 35.5057 95.1324 35.3228C95.3716 35.0837 95.3716 34.5198 95.3716 33.2654V31.2499C95.3716 30.3907 95.3716 29.9535 95.2163 29.7706C95.1173 29.6154 94.9343 29.5315 94.4133 29.4886V29.0515C94.6952 29.1077 95.4706 28.9953 96.0335 28.8963C96.3154 28.8401 96.5974 28.741 96.8088 28.6571L96.964 28.8124C96.9079 29.2772 96.9078 30.2916 96.9078 31.6309V33.6883C96.9078 34.6466 96.964 35.0837 97.0631 35.2666C97.2183 35.4495 97.5003 35.6047 97.9223 35.6047V35.9429C97.5422 35.8867 96.8088 35.8867 96.1888 35.8867C95.4706 35.8867 94.7096 35.9429 94.3286 35.9857V35.6057L94.3294 35.6047ZM96.0906 27.4313C95.5268 27.4313 95.1886 27.0931 95.1886 26.5721C95.1886 26.0511 95.5687 25.67 96.1468 25.67C96.725 25.67 97.0488 26.0082 97.0488 26.5292C97.0346 27.0931 96.6545 27.4313 96.0906 27.4313ZM124.54 35.6047C124.92 35.5485 125.16 35.5057 125.344 35.3228C125.583 35.0837 125.583 34.5198 125.583 33.2654V31.2499C125.583 30.3907 125.583 29.9535 125.427 29.7706C125.328 29.6154 125.145 29.5315 124.625 29.4886V29.0515C124.907 29.1077 125.682 28.9953 126.245 28.8963C126.527 28.8401 126.865 28.741 127.02 28.6571L127.175 28.8124C127.119 29.2772 127.119 30.2916 127.119 31.6309V33.6883C127.119 34.6466 127.175 35.0837 127.274 35.2666C127.43 35.4495 127.712 35.6047 128.133 35.6047V35.9429C127.696 35.8867 126.992 35.8867 126.372 35.8867C125.654 35.8867 124.893 35.9429 124.512 35.9857V35.6057L124.54 35.6047ZM126.302 27.4313C125.738 27.4313 125.4 27.0931 125.4 26.5721C125.4 26.0511 125.78 25.67 126.358 25.67C126.936 25.67 127.26 26.0082 127.26 26.5292C127.26 27.0931 126.866 27.4313 126.302 27.4313ZM118.748 35.7028C118.748 34.9846 118.692 34.2236 118.649 33.8427H119.114C119.114 34.2227 119.213 34.5609 119.396 34.7446C119.678 35.0828 120.016 35.2095 120.637 35.2095H120.735C121.51 35.2095 121.933 34.8714 121.933 34.2093C121.933 33.6883 121.595 33.434 121.031 33.0959L120.031 32.4758C119.51 32.1376 118.889 31.6728 118.889 30.6584C118.889 29.8554 119.228 29.2352 119.889 28.8972C120.326 28.658 121.003 28.658 121.313 28.658C121.877 28.658 122.708 28.7571 123.173 28.841C123.117 29.0238 123.117 29.5172 123.117 29.7002C123.117 29.8554 123.117 30.5032 123.173 30.6584H122.708C122.708 30.3764 122.609 30.0944 122.426 29.8554C122.243 29.6163 121.806 29.4753 121.285 29.4753C120.567 29.4753 120.171 29.7572 120.171 30.3773C120.171 30.8421 120.551 31.0955 120.889 31.3355H120.946L121.904 31.8994C122.524 32.2795 123.327 32.7586 123.327 33.8578C123.327 35.7181 121.594 36 120.607 36C120.044 35.9857 119.423 35.9438 118.747 35.7037L118.748 35.7028ZM133.756 35.238C133.517 35.4772 132.981 36.041 131.839 36.041C130.698 36.041 130.106 35.661 129.881 34.7446C129.782 34.4065 129.782 33.6873 129.782 33.3216V29.7564H128.824V29.4744C129.204 29.3191 129.444 29.1925 129.726 29.0096C130.247 28.5723 130.628 28.0513 131.064 27.276H131.403V28.8543H133.783V29.7135H131.403V33.434C131.403 34.5475 131.585 35.1952 132.643 35.1952C133.107 35.1952 133.445 35.0399 133.643 34.9133L133.755 35.2371L133.756 35.238ZM101.431 28.8266C101.276 28.8266 100.967 28.8266 100.755 28.8828C100.375 28.8828 99.9793 28.9391 99.6973 28.9391C99.1766 28.9391 98.4014 28.8828 98.1756 28.8828V29.32C98.2747 29.32 98.6401 29.2638 98.8936 29.7572C98.9929 29.9401 99.0489 30.0954 99.0764 30.1945C99.1333 30.2934 99.1756 30.3773 99.1756 30.4335L101.473 36.1686L102.191 36.0134L104.727 30.3764C104.727 30.3202 104.784 30.2774 104.826 30.1935C104.882 30.1373 104.882 30.0382 105.066 29.7564C105.221 29.4744 105.53 29.3191 105.784 29.3191V28.8819C105.502 28.8819 104.881 28.9382 104.388 28.9382C104.149 28.9382 103.923 28.9382 103.669 28.8819C103.487 28.8819 103.205 28.8257 102.993 28.8257V29.2059C103.232 29.2059 103.458 29.3049 103.557 29.3887C103.613 29.445 103.713 29.5717 103.713 29.6707C103.713 29.8259 103.657 29.9527 103.53 30.3889L102.134 33.7712C102.078 33.5883 101.979 33.3064 101.852 32.9121L100.894 30.3755C100.739 29.9954 100.711 29.8545 100.711 29.6573C100.711 29.5583 100.711 29.4744 100.81 29.4182C100.966 29.2629 101.191 29.179 101.43 29.179V28.799V28.8275L101.431 28.8266ZM85.8181 29.1086C86.1981 29.1648 86.7201 29.1086 87.2411 29.0096C87.6783 28.9105 87.8611 28.8543 88.1993 28.7276L88.3545 28.8266V29.3906C88.6927 29.1086 89.468 28.7142 90.4119 28.7142C91.7082 28.7142 92.5112 29.3343 92.7654 30.3907C92.8216 30.6726 92.8645 31.2927 92.8645 31.6871V33.7445C92.8645 34.8856 92.9207 35.2238 93.1464 35.478C93.2455 35.5771 93.5265 35.661 93.8227 35.661V35.9991C93.3579 35.9991 92.5264 35.9429 92.0615 35.9429C91.3853 35.9429 90.6662 35.9991 90.3004 36.0419V35.7037C90.6385 35.6475 90.8643 35.5485 91.0186 35.4647C91.2014 35.2817 91.2576 34.8445 91.3005 33.9854V32.7452C91.3005 32.2242 91.3005 31.6318 91.2443 31.125C91.1452 30.2229 90.6804 29.7867 89.7651 29.7867C89.145 29.7867 88.7078 29.942 88.4268 30.0686V33.8167C88.4268 34.9579 88.483 35.296 88.7087 35.5504C88.8077 35.6493 89.0888 35.7332 89.3849 35.7332V36.0714C88.7649 35.9161 88.0467 35.9161 87.5677 35.9161C86.6095 35.9161 86.3275 35.9161 85.8065 36.0152V35.677C86.0884 35.677 86.4265 35.578 86.5818 35.395C86.7647 35.156 86.8209 34.5358 86.8209 33.3377V31.3222C86.8209 30.463 86.8209 30.082 86.6657 29.8991C86.5666 29.7439 86.3275 29.6171 85.8627 29.66V29.1246H85.8207V29.1104L85.8181 29.1086ZM109.04 36.0419C106.898 36.0419 105.728 34.8018 105.728 32.5472C105.728 32.1671 105.827 28.6723 109.067 28.6723C110.026 28.6723 110.885 29.0524 111.266 29.7295C111.703 30.4059 111.731 31.0679 111.731 31.646V32.0832H107.292C107.292 32.4632 107.348 32.7595 107.391 32.9852C107.63 34.3806 108.391 35.0426 109.745 35.0426C110.52 35.0426 110.985 34.8874 111.421 34.6055L111.604 34.9436C111.153 35.578 110.195 36.0428 109.039 36.0428L109.04 36.0419ZM107.32 31.2651H110.083C110.083 30.4059 109.928 29.4477 108.687 29.4477C107.602 29.5039 107.376 30.5325 107.32 31.2651Z" fill="black" fill-opacity="0.4"/>
<path d="M59.1294 19.9072C57.8037 18.5886 56.4815 17.2655 55.1619 15.9406C55.0585 15.837 54.9567 15.7916 54.8095 15.7924C53.7299 15.7978 52.6504 15.7933 51.5709 15.7978C51.4362 15.7978 51.322 15.7666 51.2086 15.6978C50.8625 15.4873 50.5154 15.2776 50.2522 14.9601C50.221 14.9225 50.1916 14.8823 50.1612 14.8431C50.5101 14.8922 50.8518 14.9431 51.1935 14.9877C51.3139 15.0038 51.4379 14.9984 51.5584 15.0163C51.7092 15.0377 51.8644 15.0546 52.0063 15.1055C52.4318 15.2589 52.8083 15.018 52.8297 14.5657C52.8315 14.5282 52.8297 14.4898 52.8297 14.4381H59.265V7.3058C58.819 6.87487 58.3612 6.43322 57.9036 5.99247C57.1631 5.2796 56.4234 4.56673 55.682 3.85386C55.2931 3.48002 54.9031 3.10709 54.5142 2.73325C54.4687 2.68953 54.4276 2.63957 54.3839 2.59229H41.3884C41.1672 2.81355 40.9486 3.03839 40.7229 3.25608C39.6825 4.25892 38.6396 5.25908 37.5984 6.26013C37.2604 6.5849 36.9231 6.91055 36.584 7.23442C36.5573 7.2603 36.5215 7.27635 36.4904 7.29777V20.0643C36.5429 20.1098 36.5992 20.1518 36.6483 20.2008C37.9758 21.5266 39.3034 22.8534 40.6274 24.1827C40.7264 24.2826 40.8255 24.3228 40.9647 24.3201C41.4723 24.313 41.98 24.3175 42.4876 24.3175H42.7097C42.7008 24.3978 42.6946 24.454 42.6874 24.5093C42.6535 24.769 42.7954 24.9848 43.0523 25.0366C43.1692 25.0607 43.2941 25.0545 43.4154 25.0526C43.5359 25.0499 43.6555 25.0348 43.775 25.0259C43.7821 25.0384 43.7893 25.0499 43.7965 25.0624C43.7652 25.0928 43.7393 25.1339 43.7027 25.1525C43.6225 25.1927 43.5359 25.2185 43.4539 25.2543C43.2388 25.3488 43.0764 25.4961 43.0005 25.7379C42.9435 25.7405 42.8873 25.7467 42.8311 25.7467C40.7746 25.7467 38.7181 25.7467 36.6616 25.7467C36.6045 25.7467 36.5466 25.7388 36.4895 25.7351V32.292C36.5724 32.358 36.6616 32.4178 36.7375 32.4909C38.057 33.7596 39.3747 35.0311 40.6925 36.3015C40.928 36.5291 41.1636 36.7565 41.4035 36.9885H54.3786C56.0104 35.4183 57.643 33.8462 59.2794 32.2714V32.0564C59.2794 28.1299 59.2785 24.2032 59.2829 20.2767C59.2829 20.1214 59.2365 20.0161 59.1285 19.9082L59.1294 19.9072ZM58.5674 32.1617C57.7456 32.9478 56.9275 33.7373 56.1076 34.5252C55.4964 35.1131 54.8836 35.6993 54.275 36.2899C54.1814 36.3809 54.0841 36.4176 53.9521 36.4176C49.9159 36.4139 45.8797 36.4139 41.8425 36.4176C41.6927 36.4176 41.5891 36.3684 41.4883 36.2703C40.9361 35.7323 40.3812 35.197 39.8262 34.6625C38.9519 33.8203 38.0776 32.9771 37.2005 32.1385C37.105 32.0475 37.0641 31.9556 37.0641 31.8209C37.0702 30.0597 37.0702 28.2985 37.072 26.5373C37.072 26.4748 37.072 26.4115 37.072 26.3294H43.7161C43.7233 26.3151 43.7304 26.3009 43.7375 26.2874C43.6697 26.2294 43.5956 26.1768 43.5359 26.1108C43.4779 26.0466 43.4172 25.9743 43.3914 25.894C43.3575 25.7905 43.4244 25.6772 43.5654 25.629C43.7768 25.5576 43.9954 25.5023 44.2149 25.4631C44.6609 25.3845 45.0472 25.2043 45.3372 24.8475C45.3898 24.7832 45.4344 24.7109 45.4728 24.6378C45.5585 24.4754 45.5192 24.3344 45.3605 24.2443C45.2114 24.1595 45.0499 24.1435 44.9001 24.2309C44.4353 24.5021 43.9329 24.6404 43.3986 24.669C43.2941 24.6743 43.1888 24.6627 43.0479 24.6573C43.1299 24.2987 43.2504 24.0052 43.5243 23.7491C43.4279 23.7447 43.3735 23.7393 43.3182 23.7393C42.6044 23.7393 41.8916 23.7358 41.1779 23.7419C41.0511 23.7429 40.9638 23.7036 40.8755 23.6153C39.646 22.3814 38.4148 21.1492 37.1809 19.9198C37.1024 19.8422 37.0641 19.7655 37.0641 19.6521C37.0667 15.6604 37.0667 11.6696 37.0667 7.67784V7.57167C37.4066 7.24424 37.7475 6.91412 38.0901 6.5849C38.8769 5.82831 39.6648 5.07172 40.4525 4.31513C40.8049 3.97698 41.1582 3.63973 41.5062 3.29801C41.6044 3.20166 41.7069 3.16508 41.847 3.16508C45.8769 3.16865 49.9069 3.16865 53.937 3.16508C54.085 3.16508 54.1877 3.21148 54.2911 3.3114C55.7196 4.68985 57.1505 6.06652 58.5834 7.44052C58.6789 7.53153 58.7217 7.62432 58.7217 7.75814C58.7182 9.71832 58.719 11.6794 58.719 13.6396V13.8519H52.0072C52.1258 14.008 52.2346 14.1401 52.3301 14.2802C52.3791 14.3524 52.4237 14.4372 52.4399 14.522C52.4729 14.7048 52.3257 14.8226 52.1561 14.7468C51.9635 14.6602 51.7618 14.6407 51.5557 14.629C50.9115 14.5933 50.2745 14.5246 49.6883 14.224C49.6518 14.2052 49.6045 14.2087 49.5545 14.1999C49.4483 14.3899 49.5064 14.5603 49.5974 14.7174C49.7856 15.043 50.0193 15.3401 50.3245 15.5578C50.7152 15.837 51.1301 16.0842 51.5396 16.3358C51.5986 16.3724 51.6878 16.3706 51.7626 16.3715C52.7013 16.3733 53.6399 16.3751 54.5775 16.3706C54.7167 16.3706 54.8158 16.409 54.9157 16.5089C56.1352 17.7347 57.3575 18.9571 58.5834 20.1767C58.6824 20.2758 58.7226 20.3739 58.7217 20.5131C58.7182 24.28 58.7182 28.046 58.7217 31.8129C58.7217 31.9636 58.6717 32.0626 58.5674 32.1617Z" fill="black" fill-opacity="0.4"/>
<path d="M49.2754 8.25933C49.518 8.47436 49.501 8.59658 49.2201 8.74469C49.1915 8.75986 49.163 8.77502 49.137 8.79376C49.0648 8.84461 48.9774 8.88387 48.98 9.01859C49.0299 9.04625 49.0889 9.08015 49.1477 9.11317C49.4654 9.28982 49.7544 9.50217 49.9605 9.8073C50.0631 9.9599 50.015 10.0518 49.8312 10.0598C49.7036 10.0651 49.5742 10.0535 49.4475 10.0366C49.2129 10.0054 49.162 10.1436 49.179 10.3043C49.187 10.3845 49.2155 10.4667 49.2522 10.5389C49.3163 10.6647 49.4324 10.7352 49.5581 10.7914C49.8338 10.9136 50.1158 11.0242 50.3816 11.167C50.5539 11.2598 50.718 11.3829 50.8527 11.5239C50.9937 11.6711 50.933 11.8415 50.7349 11.8871C50.6074 11.9164 50.4682 11.912 50.3361 11.9049C50.1381 11.8941 49.9409 11.8532 49.7437 11.8522C49.5742 11.8522 49.4029 11.8871 49.2655 11.9977C49.2682 12.1324 49.3369 12.2091 49.4288 12.259C49.5635 12.3322 49.7 12.4099 49.8464 12.4536C50.3344 12.599 50.7653 12.8488 51.1695 13.1504C51.2694 13.2244 51.3675 13.2521 51.4889 13.2512C52.1384 13.2476 52.7869 13.2503 53.4364 13.2494C54.9273 13.2468 56.419 13.2441 57.9098 13.2405C57.9723 13.2405 58.0348 13.2352 58.1168 13.2316C58.1168 13.1433 58.1168 13.0674 58.1168 12.9925C58.1168 11.3535 58.1142 9.71452 58.1213 8.07554C58.1213 7.90423 58.0651 7.79003 57.9465 7.67672C57.2756 7.03969 56.6117 6.39551 55.9444 5.75402C55.3056 5.13929 54.6624 4.52902 54.0289 3.90894C53.9263 3.80901 53.8255 3.776 53.6889 3.776C49.8258 3.77868 45.9627 3.77779 42.0996 3.77779C42.0736 3.77779 42.0478 3.78046 42.0228 3.77779C41.9318 3.76797 41.8676 3.80634 41.8025 3.86968C40.4704 5.15356 39.1366 6.43655 37.8001 7.71597C37.7136 7.79896 37.6761 7.87926 37.6761 7.99881C37.6787 11.7916 37.6787 15.5834 37.6761 19.3762C37.6761 19.4957 37.7136 19.5788 37.7965 19.6626C38.9154 20.7806 40.0315 21.8993 41.1449 23.0226C41.2395 23.1181 41.334 23.152 41.4661 23.1511C42.3591 23.1457 43.2531 23.1378 44.1462 23.1538C44.4834 23.1601 44.7859 23.0833 45.0937 22.9593C45.5398 22.7791 45.5674 22.391 45.5335 21.9609C45.5326 21.9457 45.5094 21.9332 45.5166 21.9404C45.3301 21.9404 45.1651 21.9511 45.0027 21.9369C44.8626 21.9253 44.7252 21.8833 44.5869 21.8565C44.2916 21.7994 44.0016 21.7806 43.7215 21.9288C43.6645 21.9592 43.5904 21.9564 43.5315 21.968C43.4575 21.8583 43.5074 21.7762 43.544 21.696C43.7509 21.24 44.1212 20.9456 44.5495 20.7225C45.0241 20.4754 45.4693 20.1846 45.9002 19.8696C46.0706 19.7456 46.2036 19.5867 46.2884 19.3985C46.3419 19.2798 46.3695 19.1407 46.3739 19.0104C46.3802 18.8177 46.2473 18.7472 46.0787 18.8337C46.0501 18.848 46.0225 18.865 45.9966 18.8837C45.4434 19.2861 44.8332 19.3031 44.1971 19.1487C44.1756 19.0283 44.173 19.0086 44.2452 18.9274C44.3942 18.7588 44.5459 18.5919 44.7556 18.4938C44.9242 18.4153 45.0954 18.3412 45.2596 18.2538C45.4292 18.1637 45.6013 18.0727 45.7521 17.9567C45.9653 17.7916 46.1028 17.5668 46.1545 17.2964C46.1706 17.2135 46.1857 17.1287 46.0626 17.0627C45.9885 17.0993 45.8877 17.1287 45.8101 17.1894C45.488 17.4392 45.1151 17.5115 44.7226 17.5088C44.2238 17.5062 43.8036 17.6596 43.4967 18.0736C43.4334 18.1584 43.3575 18.2449 43.229 18.2467C43.1086 18.153 43.1193 18.0183 43.1354 17.8943C43.1693 17.6203 43.2121 17.3473 43.262 17.076C43.3869 16.4043 43.7384 15.8975 44.3496 15.571C44.644 15.4139 44.9224 15.2275 45.2043 15.0481C45.5005 14.8598 45.7405 14.6073 45.9484 14.3281C46.035 14.2113 46.1081 14.0765 46.1536 13.9391C46.2125 13.7598 46.2134 13.5742 46.0528 13.3967C45.9779 13.4501 45.9065 13.4993 45.8369 13.5501C45.728 13.6286 45.6308 13.7419 45.5094 13.7821C45.1374 13.9052 44.7574 14.0051 44.3567 13.94C44.1159 13.9007 43.883 13.9258 43.6626 14.0373C43.6394 14.0489 43.6162 14.0596 43.5921 14.0685C43.4244 14.1265 43.2889 14.0239 43.3138 13.8463C43.3254 13.7669 43.3602 13.684 43.4074 13.6188C43.4789 13.5216 43.5654 13.4323 43.6555 13.3511C44.1114 12.9407 44.6253 12.6106 45.1553 12.3073C45.5621 12.0744 45.9858 11.8727 46.3918 11.639C46.5265 11.5614 46.6487 11.4436 46.7451 11.3196C46.8914 11.1322 46.8013 10.928 46.5649 10.8994C46.4614 10.8869 46.3507 10.9181 46.2464 10.9413C46.1215 10.9689 46.0011 11.0305 45.8761 11.0386C45.6585 11.0537 45.4399 11.043 45.2213 11.0341C45.1499 11.0305 45.0803 10.9966 44.9741 10.9654C45.0294 10.869 45.0589 10.7923 45.1107 10.7343C45.257 10.5692 45.4327 10.4407 45.6362 10.3515C45.8422 10.2614 46.0483 10.1722 46.2517 10.0776C46.4329 9.99379 46.5479 9.8528 46.5801 9.65385C46.6148 9.44061 46.5176 9.33622 46.3053 9.35317C46.2089 9.3603 46.1135 9.37816 46.0171 9.37726C45.9314 9.37637 45.8458 9.35584 45.7334 9.34068C45.7584 9.24611 45.7619 9.17294 45.7958 9.11942C45.8503 9.03376 45.9181 8.95346 45.9913 8.88208C46.2624 8.61889 46.5693 8.41457 46.9387 8.31197C47.0564 8.27896 47.1725 8.23613 47.2037 8.08446C47.1296 7.98899 47.0234 7.96758 46.9156 7.95598C46.7817 7.9417 46.6452 7.94081 46.5131 7.91583C46.4507 7.90423 46.3642 7.86052 46.349 7.81144C46.3347 7.76505 46.3829 7.67672 46.4302 7.63746C46.5623 7.52594 46.7103 7.43404 46.8459 7.32697C47.0217 7.18779 47.1992 7.04861 47.3598 6.89337C47.474 6.78362 47.4589 6.7069 47.3384 6.60161C47.251 6.52577 47.1555 6.45975 47.069 6.38303C47.0074 6.32949 46.937 6.27596 46.9619 6.15105C47.011 6.13767 47.0699 6.10911 47.1288 6.10822C47.292 6.10734 47.3982 6.02347 47.4598 5.88607C47.5177 5.75759 47.5651 5.62376 47.6025 5.48814C47.6605 5.27759 47.7042 5.06345 47.7577 4.85201C47.7756 4.78152 47.7792 4.69408 47.8996 4.68516C47.9156 4.75385 47.9326 4.82167 47.9477 4.88948C47.9986 5.10806 48.0406 5.32933 48.1021 5.54525C48.161 5.75313 48.2645 5.92354 48.5232 5.92175C48.5767 5.92175 48.6312 5.96547 48.6838 5.98867C48.6464 6.16086 48.5135 6.22243 48.4224 6.317C48.2645 6.48117 48.2975 6.6605 48.5098 6.73901C48.5981 6.77203 48.6972 6.78095 48.7918 6.79612C48.9729 6.82555 49.0139 6.91388 48.8961 7.05664C48.823 7.14496 48.7302 7.21634 48.6419 7.29039C48.4759 7.4278 48.4563 7.51166 48.5928 7.67672C48.6901 7.79449 48.8087 7.89531 48.9265 7.99435C49.0389 8.08892 49.1692 8.16387 49.2798 8.26111L49.2754 8.25933Z" fill="black" fill-opacity="0.4"/>
<path d="M54.6242 17.0915C54.5448 17.012 54.4671 16.979 54.3547 16.9799C53.6989 16.9844 53.0441 16.9817 52.3882 16.9826C52.3383 16.9826 52.2883 16.987 52.2249 16.9906C52.2455 17.0424 52.2598 17.0834 52.2785 17.1226C52.4551 17.4858 52.531 17.8766 52.5801 18.2727C52.6059 18.4877 52.4953 18.5939 52.283 18.5502C52.1473 18.5225 52.018 18.4592 51.8877 18.4066C51.7869 18.3655 51.6923 18.3093 51.5906 18.2719C51.1275 18.1023 50.6618 17.9363 50.1978 17.7695C50.1193 17.741 50.0425 17.7061 49.9614 17.6866C49.8311 17.6553 49.7222 17.7044 49.6295 17.7963C49.5376 17.8873 49.5751 17.9872 49.6134 18.0827C49.7366 18.3905 49.9275 18.6421 50.2246 18.8009C50.3656 18.8768 50.5101 18.9481 50.6564 19.0133C51.0106 19.1703 51.3453 19.3603 51.628 19.6289C51.6967 19.694 51.7637 19.768 51.8092 19.851C51.8948 20.0045 51.8145 20.1169 51.637 20.1062C51.612 20.1044 51.5843 20.1027 51.562 20.0919C51.3444 19.9903 51.123 20.017 50.9018 20.0696C50.5832 20.1455 50.2781 20.1088 49.981 19.9733C49.8588 19.9171 49.7321 19.8707 49.6036 19.8287C49.5483 19.8109 49.4841 19.8171 49.4279 19.8117C49.3779 19.9287 49.4207 20.0098 49.4626 20.0884C49.5733 20.2953 49.725 20.4667 49.9177 20.6031C50.3468 20.9092 50.7867 21.1965 51.2587 21.4347C51.993 21.804 52.3668 22.4393 52.5408 23.2137C52.5559 23.2806 52.5373 23.3547 52.5336 23.4689C52.3945 23.4118 52.2794 23.393 52.2017 23.3289C51.9992 23.1602 51.7717 23.1094 51.5192 23.1254C51.1035 23.1513 50.7493 23.0202 50.461 22.7141C50.4236 22.674 50.3611 22.6571 50.3112 22.6302C50.1184 22.9505 50.2219 23.3958 50.5154 23.5662C50.6038 23.6171 50.7019 23.651 50.7956 23.6929C51.1346 23.8464 51.4773 23.9927 51.811 24.1568C51.9591 24.2299 52.0992 24.3281 52.224 24.437C52.4846 24.6636 52.6211 24.9616 52.7015 25.3443C52.5666 25.3497 52.4667 25.3622 52.3686 25.3578C51.8351 25.33 51.33 25.1998 50.8652 24.9268C50.693 24.8259 50.5182 24.8465 50.3575 24.958C50.2299 25.0463 50.1934 25.1775 50.271 25.3086C50.3424 25.4291 50.4218 25.5495 50.5182 25.6503C50.8108 25.9537 51.1811 26.0991 51.5933 26.1616C51.7824 26.1901 51.9743 26.2312 52.1509 26.3016C52.3998 26.4007 52.4632 26.6005 52.3401 26.8361C52.2901 26.9315 52.2196 27.0181 52.1482 27.0993C51.9698 27.3001 51.9608 27.4811 52.142 27.6783C52.2017 27.7426 52.2802 27.7907 52.3552 27.8398C52.4997 27.9344 52.6532 28.0183 52.7942 28.1182C53.011 28.2734 53.2109 28.4555 53.3054 28.708C53.4571 29.1166 53.5892 29.5323 53.7132 29.9507C53.7507 30.0766 53.7462 30.2185 53.7373 30.3523C53.7275 30.5021 53.6302 30.5718 53.4839 30.5325C53.3679 30.5012 53.252 30.454 53.1484 30.3915C52.9066 30.2461 52.6773 30.0793 52.4328 29.9365C52.1286 29.759 51.8217 29.5823 51.5032 29.4333C51.2328 29.3066 50.9402 29.2673 50.6377 29.3093C50.4726 29.3316 50.304 29.3271 50.138 29.337C49.8026 29.3556 49.5055 29.2585 49.2423 29.0497C49.1531 28.9791 49.0576 28.8829 48.9353 28.9337C48.797 28.9916 48.8238 29.1362 48.8238 29.2557C48.822 30.0401 48.822 30.8243 48.8238 31.6076C48.8238 31.8904 48.8158 32.1741 48.8381 32.4552C48.9041 33.2957 49.2476 33.971 50.023 34.3797C50.3504 34.5528 50.6269 34.7901 50.8679 35.072C50.9384 35.1542 51.0196 35.2318 51.1105 35.2897C51.579 35.5877 52.0885 35.7769 52.6452 35.8037C53.0172 35.8215 53.3902 35.809 53.7632 35.8171C53.864 35.8188 53.93 35.7786 53.9978 35.7117C54.4403 35.2817 54.8856 34.8553 55.3299 34.4279C56.2195 33.5731 57.1072 32.7176 57.9994 31.8654C58.0851 31.7834 58.1208 31.7004 58.1208 31.5799C58.1181 27.9684 58.1181 24.3558 58.1208 20.7441C58.1208 20.6237 58.0833 20.5416 57.9994 20.4586C56.8735 19.3398 55.7492 18.2183 54.6277 17.095L54.6242 17.0915Z" fill="black" fill-opacity="0.4"/>
<path d="M46.6305 27.7185C46.5145 27.8086 46.4021 27.9068 46.2995 28.012C46.1336 28.1825 45.9408 28.3065 45.7124 28.3653C45.5269 28.4136 45.3368 28.4475 45.1467 28.4724C44.9183 28.5036 44.6765 28.4831 44.4598 28.5474C43.7192 28.7695 43.0455 29.1211 42.5004 29.6849C42.4263 29.7616 42.3505 29.8303 42.2328 29.7938C42.1194 29.759 42.0828 29.6608 42.0542 29.56C42.0436 29.5234 42.0436 29.4842 42.0418 29.4458C42.0266 29.0729 42.3773 28.0379 42.6154 27.7515C42.868 27.4481 43.1945 27.2474 43.5452 27.0806C43.6174 27.0467 43.6862 27.0065 43.7567 26.9691C43.7522 26.9601 43.7477 26.9512 43.7442 26.9423H37.6922C37.6895 27.0074 37.6842 27.0636 37.6842 27.1198C37.6806 28.5848 37.6815 30.0498 37.6708 31.5157C37.6699 31.6879 37.7288 31.8021 37.8483 31.9145C38.3256 32.3633 38.7968 32.8183 39.2697 33.2725C40.1128 34.0826 40.9551 34.8936 41.7946 35.7064C41.8651 35.7742 41.9329 35.8064 42.031 35.8045C42.4228 35.8001 42.8154 35.8064 43.207 35.8019C43.7147 35.7957 44.1609 35.6217 44.5427 35.2853C44.8157 35.0443 45.0263 34.7526 45.2092 34.4422C45.4171 34.0906 45.6723 33.7802 45.9747 33.5062C46.1175 33.3769 46.2549 33.2404 46.403 33.1182C46.6118 32.9468 46.7224 32.7229 46.7929 32.4695C46.8929 32.1073 46.9223 31.7343 46.9259 31.3631C46.9384 30.181 46.9366 28.9988 46.9384 27.8157C46.9384 27.7551 46.9231 27.6953 46.9161 27.6382C46.7867 27.6025 46.7036 27.6614 46.6305 27.7185Z" fill="black" fill-opacity="0.4"/>
</g>
</svg>
