<svg width="188" height="44" viewBox="0 0 188 44" fill="none" xmlns="http://www.w3.org/2000/svg">
<mask id="mask0_187_309" style="mask-type:luminance" maskUnits="userSpaceOnUse" x="55" y="6" width="78" height="31">
<path d="M132.972 6.87744H55.0764V36.3524H132.972V6.87744Z" fill="white"/>
</mask>
<g mask="url(#mask0_187_309)">
<path d="M118.609 34.7407C118.554 34.7407 118.501 34.7188 118.463 34.6798C118.423 34.6409 118.402 34.588 118.402 34.5329V9.49203C118.402 9.39375 118.47 9.30853 118.567 9.28858L122.907 8.38485C122.938 8.37854 122.968 8.37906 122.999 8.38638C123.029 8.39369 123.057 8.40763 123.081 8.42715C123.105 8.44668 123.124 8.47131 123.137 8.49925C123.151 8.5272 123.158 8.55773 123.157 8.58866V34.5329C123.157 34.588 123.135 34.6409 123.097 34.6798C123.058 34.7188 123.004 34.7407 122.949 34.7407H118.609ZM64.0521 35.2705C62.3184 35.2705 60.7703 34.8462 59.4078 33.9983C58.0453 33.15 56.9679 31.9903 56.1752 30.5187C55.3824 29.047 54.9861 27.3759 54.9861 25.505C54.9861 23.6344 55.3824 21.9757 56.1752 20.529C56.9679 19.0571 58.0453 17.91 59.4078 17.0867C60.7703 16.2385 62.3184 15.8145 64.0521 15.8145C65.4396 15.8145 66.6534 16.0763 67.6935 16.6004C68.5275 17.0199 69.2343 17.5759 69.8135 18.2686C69.9447 18.4256 70.2204 18.3368 70.2204 18.1318V9.04161C70.2204 8.94334 70.2893 8.85848 70.3858 8.83853L74.7262 7.93443C74.7564 7.92813 74.7876 7.92864 74.8176 7.93592C74.8477 7.94319 74.8757 7.95706 74.8996 7.97651C74.9235 7.99595 74.9429 8.02049 74.9561 8.04835C74.9695 8.0762 74.9764 8.10666 74.9765 8.13752V34.613C74.9765 34.6681 74.9546 34.721 74.9155 34.76C74.8766 34.799 74.8238 34.8208 74.7687 34.8208H70.9116C70.8634 34.8208 70.8168 34.8041 70.7795 34.7734C70.7424 34.7428 70.717 34.7002 70.7077 34.6529L70.3125 32.6347C70.2773 32.456 70.0431 32.403 69.9269 32.543C69.3732 33.2113 68.6784 33.8087 67.8421 34.3345C66.8761 34.9582 65.6126 35.2705 64.0521 35.2705ZM65.0556 31.0797C66.5914 31.0797 67.8421 30.5683 68.8082 29.5456C69.799 28.4983 70.2947 27.1638 70.2947 25.5423C70.2947 23.9209 69.799 22.5991 68.8082 21.5764C67.8421 20.529 66.5914 20.005 65.0556 20.005C63.5445 20.005 62.2937 20.5164 61.3026 21.539C60.3115 22.5617 59.8165 23.8836 59.8165 25.505C59.8165 27.1264 60.3119 28.4606 61.3026 29.5087C62.2937 30.5556 63.5445 31.0797 65.0556 31.0797ZM86.5734 35.273C84.7156 35.273 83.0685 34.8741 81.6316 34.0759C80.1949 33.2778 79.0678 32.1553 78.2504 30.7087C77.4329 29.2617 77.0243 27.5906 77.0243 25.695C77.0243 23.7744 77.4207 22.0656 78.2134 20.5693C79.0308 19.0726 80.1455 17.9124 81.5574 17.0896C82.9941 16.2414 84.6786 15.8175 86.6107 15.8175C88.4193 15.8175 90.0168 16.2163 91.4038 17.0145C92.7913 17.8127 93.8687 18.9105 94.6364 20.3075C95.4292 21.679 95.8255 23.213 95.8255 24.9095C95.8255 25.1836 95.8133 25.4705 95.7886 25.7697C95.7886 26.0094 95.7805 26.2571 95.7646 26.5131C95.7612 26.5654 95.738 26.6143 95.6997 26.6501C95.6615 26.6858 95.611 26.7056 95.5586 26.7053H81.9657C81.9373 26.7051 81.9092 26.7108 81.8832 26.7222C81.857 26.7335 81.8337 26.7501 81.8145 26.7711C81.7953 26.792 81.7807 26.8167 81.7716 26.8437C81.7625 26.8705 81.7593 26.8991 81.7618 26.9273C81.8946 28.2684 82.3838 29.3292 83.2294 30.11C84.1459 30.9332 85.2483 31.3448 86.5367 31.3448C87.5025 31.3448 88.3075 31.1327 88.9517 30.7087C89.5819 30.2855 90.0577 29.7521 90.3805 29.1072C90.4167 29.0347 90.4899 28.9876 90.5709 28.9876H94.99C95.0222 28.9873 95.054 28.9946 95.0827 29.009C95.1115 29.0234 95.1364 29.0445 95.1555 29.0703C95.1745 29.0962 95.1871 29.1263 95.1923 29.1581C95.1974 29.1899 95.195 29.2224 95.1851 29.253C94.8316 30.3221 94.2771 31.3064 93.522 32.205C92.7293 33.153 91.7381 33.9012 90.5495 34.4498C89.3853 34.9989 88.0599 35.273 86.5734 35.273ZM86.6107 19.7087C85.4467 19.7087 84.4186 20.0453 83.5268 20.7187C82.6899 21.3272 82.1364 22.2436 81.867 23.4676C81.8608 23.4973 81.8611 23.528 81.8683 23.5575C81.8755 23.587 81.8891 23.6144 81.9084 23.6379C81.9277 23.6613 81.9518 23.6802 81.9793 23.6931C82.0068 23.7058 82.0369 23.7123 82.0672 23.712H90.7742C90.8939 23.712 90.9897 23.6108 90.9773 23.4919C90.8649 22.3724 90.4254 21.473 89.6574 20.7937C88.84 20.0703 87.8246 19.7087 86.6107 19.7087ZM107.263 35.2734C105.405 35.2734 103.759 34.8745 102.321 34.0763C100.885 33.2781 99.7582 32.1556 98.9408 30.709C98.1232 29.2625 97.7145 27.5909 97.7145 25.6954C97.7145 23.7747 98.1109 22.066 98.9033 20.5696C99.7208 19.073 100.835 17.9128 102.248 17.09C103.684 16.2417 105.368 15.8177 107.301 15.8177C109.109 15.8177 110.707 16.2167 112.094 17.0149C113.481 17.8131 114.558 18.9109 115.326 20.3078C116.119 21.6793 116.516 23.2134 116.516 24.9099C116.516 25.184 116.503 25.4709 116.479 25.7701C116.479 26.0098 116.47 26.2579 116.455 26.5135C116.451 26.5657 116.428 26.6146 116.389 26.6503C116.351 26.6861 116.301 26.7058 116.249 26.7057H102.655C102.628 26.7055 102.599 26.7112 102.573 26.7225C102.547 26.7339 102.524 26.7505 102.504 26.7714C102.486 26.7924 102.471 26.817 102.462 26.844C102.452 26.8709 102.449 26.8994 102.452 26.9277C102.585 28.2688 103.074 29.3295 103.92 30.1103C104.837 30.9335 105.939 31.3452 107.226 31.3452C108.193 31.3452 108.997 31.133 109.642 30.709C110.272 30.2858 110.748 29.7524 111.07 29.1075C111.107 29.035 111.179 28.9879 111.261 28.9879H115.68C115.819 28.9879 115.919 29.1214 115.875 29.2533C115.522 30.3225 114.967 31.3067 114.212 32.2054C113.419 33.1534 112.428 33.9018 111.239 34.4502C110.075 34.9993 108.75 35.2734 107.263 35.2734ZM107.301 19.709C106.136 19.709 105.109 20.0456 104.217 20.719C103.381 21.3279 102.826 22.244 102.557 23.468C102.55 23.4977 102.551 23.5283 102.558 23.5578C102.565 23.5873 102.579 23.6148 102.599 23.6383C102.617 23.6617 102.642 23.6806 102.669 23.6934C102.697 23.7062 102.727 23.7127 102.757 23.7124H111.464C111.584 23.7124 111.68 23.6112 111.668 23.4923C111.556 22.3728 111.116 21.4734 110.347 20.7941C109.53 20.0706 108.515 19.709 107.301 19.709Z" fill="black" fill-opacity="0.4"/>
<path d="M129.39 34.7461C131.158 34.7461 132.591 33.3024 132.591 31.5219C132.591 29.7412 131.158 28.2975 129.39 28.2975C127.621 28.2975 126.188 29.7408 126.188 31.5215C126.188 33.302 127.621 34.7461 129.39 34.7461Z" fill="black" fill-opacity="0.4"/>
</g>
</svg>
