<svg width="71" height="72" viewBox="0 0 71 72" fill="none" xmlns="http://www.w3.org/2000/svg">
<path d="M11.6253 57.7783C8.50365 48.4082 17.4843 35.4377 29.3465 27.4062C41.2567 19.3285 56.0485 16.2359 63.9246 21.8672C71.8007 27.4523 72.7612 41.7614 68.4869 52.6548C64.2127 63.5481 54.6557 71.0258 42.3133 71.9028C29.9228 72.826 14.7469 67.1023 11.6253 57.7783Z" fill="#E6FFF9"/>
<path d="M36.498 54.346H25.422C24.412 54.346 23.598 53.526 23.598 52.522V51.24C23.61 50.138 23.556 49.364 23.44 48.932C22.818 46.654 21.172 44.744 19.578 42.892C19.052 42.286 18.556 41.708 18.1 41.126C15.806 38.208 14.586 34.712 14.586 31.004C14.586 21.952 21.954 14.59 31.006 14.59C40.056 14.59 47.422 21.952 47.422 31.004C47.422 34.714 46.208 38.214 43.908 41.13C43.506 41.646 43.042 42.186 42.558 42.756C40.926 44.676 39.104 46.818 38.476 49.08C38.366 49.484 38.312 50.21 38.32 51.226V52.518C38.32 53.526 37.506 54.346 36.498 54.346ZM27.25 50.694H34.674C34.694 49.274 34.832 48.574 34.958 48.118C35.804 45.072 37.9 42.598 39.75 40.426C40.236 39.854 40.662 39.354 41.04 38.878C42.826 36.606 43.772 33.888 43.772 31.006C43.772 23.966 38.048 18.238 31.008 18.238C23.968 18.238 18.24 23.966 18.24 31.006C18.24 33.882 19.184 36.602 20.972 38.874C21.394 39.414 21.856 39.944 22.346 40.51C24.032 42.468 26.122 44.894 26.966 47.976C27.09 48.458 27.234 49.192 27.25 50.694Z" fill="#009A77"/>
<path d="M36.498 59.176H25.422C24.412 59.176 23.598 58.358 23.598 57.348C23.598 56.34 24.412 55.526 25.422 55.526H36.498C37.506 55.526 38.32 56.34 38.32 57.348C38.32 58.358 37.506 59.176 36.498 59.176Z" fill="#009A77"/>
<path d="M33.73 64H28.192C27.182 64 26.364 63.182 26.364 62.176C26.364 61.168 27.182 60.348 28.192 60.348H33.73C34.734 60.348 35.554 61.168 35.554 62.176C35.554 63.182 34.734 64 33.73 64Z" fill="#009A77"/>
<path d="M60.19 32.83H52.894C51.886 32.83 51.066 32.016 51.066 31.006C51.066 29.998 51.886 29.182 52.894 29.182H60.19C61.198 29.182 62.012 29.998 62.012 31.006C62.012 32.016 61.198 32.83 60.19 32.83Z" fill="#009A77"/>
<path d="M9.12 32.83H1.822C0.813999 32.83 0 32.016 0 31.006C0 29.998 0.813999 29.182 1.822 29.182H9.118C10.126 29.182 10.946 29.998 10.946 31.006C10.948 32.016 10.128 32.83 9.12 32.83Z" fill="#009A77"/>
<path d="M31.006 10.948C29.996 10.948 29.178 10.134 29.178 9.124V1.824C29.178 0.818 29.996 0 31.006 0C32.016 0 32.83 0.818 32.83 1.824V9.122C32.83 10.132 32.016 10.948 31.006 10.948Z" fill="#009A77"/>
<path d="M51.634 53.466C51.17 53.466 50.704 53.288 50.346 52.93L45.188 47.77C44.476 47.06 44.476 45.902 45.188 45.188C45.902 44.476 47.056 44.48 47.768 45.192L52.926 50.35C53.64 51.064 53.64 52.222 52.926 52.934C52.57 53.292 52.106 53.466 51.634 53.466Z" fill="#009A77"/>
<path d="M15.526 17.358C15.062 17.358 14.594 17.18 14.234 16.822L9.07999 11.666C8.36599 10.952 8.36599 9.79399 9.07999 9.07999C9.79399 8.36799 10.948 8.36799 11.66 9.07999L16.818 14.238C17.532 14.95 17.532 16.11 16.818 16.822C16.462 17.18 15.996 17.358 15.526 17.358Z" fill="#009A77"/>
<path d="M10.37 53.466C9.904 53.466 9.43799 53.292 9.07999 52.934C8.36599 52.222 8.36599 51.064 9.07999 50.35L14.242 45.188C14.95 44.476 16.104 44.476 16.818 45.188C17.532 45.902 17.532 47.06 16.818 47.774L11.66 52.934C11.302 53.29 10.838 53.466 10.37 53.466Z" fill="#009A77"/>
<path d="M46.482 17.358C46.016 17.358 45.55 17.18 45.19 16.822C44.482 16.11 44.482 14.954 45.19 14.242L50.348 9.08401C51.056 8.37201 52.218 8.36801 52.928 9.08001C53.642 9.79401 53.642 10.948 52.928 11.662L47.774 16.818C47.418 17.176 46.952 17.358 46.482 17.358Z" fill="#009A77"/>
</svg>
