<svg width="193" height="42" viewBox="0 0 193 42" fill="none" xmlns="http://www.w3.org/2000/svg">
<path d="M23.3712 5.84131H24.9026V31.1107H21.7654V11.6558L13.1568 20.5567L4.65776 11.7984V31.1107H1.52057V5.84131H3.09112L13.2351 16.322L23.3712 5.84131Z" fill="black" stroke="black" stroke-width="0.892537" stroke-miterlimit="10"/>
<path d="M38.3287 31.3266C36.9657 31.3266 35.7006 31.0916 34.5335 30.6253C33.3664 30.1591 32.3637 29.5079 31.5256 28.6679C30.6874 27.8318 30.0412 26.8492 29.5908 25.724C29.1404 24.5989 28.9171 23.416 28.9171 22.1714C28.9171 20.8806 29.1482 19.6668 29.6103 18.5301C30.0725 17.3934 30.7305 16.3993 31.5804 15.5516C32.4303 14.7039 33.4486 14.045 34.6275 13.5787C35.8064 13.1125 37.0675 12.8774 38.4031 12.8774C40.3731 12.8774 42.0769 13.4169 43.5103 14.4919L42.633 16.8231C42.0494 16.3685 41.3915 16.0332 40.663 15.8174C39.9345 15.6017 39.2138 15.4938 38.5088 15.4938C37.8039 15.4938 37.0597 15.6094 36.2842 15.8329C35.5048 16.0602 34.7881 16.4417 34.1301 16.9811C33.4721 17.5206 32.9199 18.2257 32.4695 19.1004C32.0191 19.9751 31.7958 20.9846 31.7958 22.1329C31.7958 24.0248 32.4225 25.5969 33.6758 26.853C34.9291 28.1092 36.5153 28.7373 38.4383 28.7373C40.3614 28.7373 41.9594 28.1708 43.2362 27.0341C44.513 25.8974 45.1514 24.4217 45.1514 22.6029V13.1279H48.1084V31.1108H45.261V27.8433C44.6775 28.8952 43.7727 29.7391 42.5429 30.3749C41.3131 31.0068 39.9071 31.3266 38.3287 31.3266Z" fill="black" stroke="black" stroke-width="0.892537" stroke-miterlimit="10"/>
<path d="M52.8123 31.1106V13.1276H55.7301V16.3952C56.1453 15.6284 56.721 14.9464 57.4613 14.3491C58.2015 13.7519 59.0123 13.3319 59.8857 13.093C60.763 12.8541 61.5776 12.7346 62.3296 12.7346C64.566 12.7346 66.348 13.4166 67.6758 14.7807C68.9996 16.1447 69.6654 18.0366 69.6654 20.4526V31.1144H66.7084V20.7069C66.7084 19.0809 66.2345 17.7823 65.2866 16.8113C64.3388 15.8403 63.109 15.3587 61.6011 15.3587C59.9248 15.3587 58.5383 15.8865 57.4417 16.9385C56.349 17.9904 55.8006 19.366 55.8006 21.0653V31.1144H52.8123V31.1106Z" fill="black" stroke="black" stroke-width="0.892537" stroke-miterlimit="10"/>
<path d="M88.9507 22.6607C88.9351 24.4525 88.3006 25.909 87.0394 27.0341C85.7626 28.1708 84.1647 28.7373 82.2416 28.7373C80.3186 28.7373 78.7323 28.1092 77.479 26.853C76.2257 25.5969 75.5991 24.0248 75.5991 22.1329C75.5991 20.9846 75.8223 19.9751 76.2727 19.1004C76.7231 18.2257 77.2754 17.5206 77.9334 16.9811C78.5913 16.4417 79.3081 16.0602 80.0875 15.8329C80.8669 15.6055 81.6071 15.4938 82.3121 15.4938C83.0171 15.4938 83.7338 15.6017 84.4662 15.8174C85.1947 16.0332 85.8527 16.3685 86.4363 16.8231L87.3136 14.4919C85.8801 13.4169 84.1764 12.8774 82.2063 12.8774C80.8669 12.8774 79.6097 13.1125 78.4308 13.5787C77.2519 14.045 76.2375 14.7039 75.3837 15.5516C74.5338 16.3993 73.8758 17.3934 73.4136 18.5301C72.9514 19.6668 72.7204 20.8806 72.7204 22.1714C72.7204 23.416 72.9436 24.5989 73.394 25.724C73.8444 26.8492 74.4868 27.8318 75.3288 28.6679C76.167 29.504 77.1696 30.1591 78.3368 30.6253C79.5039 31.0916 80.769 31.3266 82.1319 31.3266C83.7142 31.3266 85.1164 31.0107 86.3462 30.3749C87.576 29.7429 88.4807 28.8991 89.0643 27.8433V31.1108H91.9117V22.6646C90.9129 22.6607 89.9612 22.6607 88.9507 22.6607Z" fill="black" stroke="black" stroke-width="0.892537" stroke-miterlimit="10"/>
<path d="M104.617 39.0793V36.4591C105.616 36.4591 106.564 36.2896 107.464 35.9582C108.365 35.623 109.149 35.1451 109.818 34.5209C110.488 33.8967 111.005 33.1762 111.369 32.3477C111.733 31.5231 111.918 30.6446 111.918 29.7083V27.8048C111.283 28.8798 110.363 29.7391 109.145 30.371C107.927 31.0068 106.54 31.3228 104.985 31.3228C103.986 31.3228 102.952 31.1686 101.883 30.8565C100.814 30.5444 99.7605 29.9664 98.7265 29.1149C97.6925 28.2672 96.9209 27.2075 96.4078 25.9398C95.8987 24.6721 95.6402 23.416 95.6402 22.1714C95.6402 20.8806 95.8713 19.6668 96.3334 18.5301C96.7956 17.3934 97.4536 16.3993 98.3035 15.5516C99.1534 14.7039 100.164 14.045 101.331 13.5787C102.498 13.1125 103.763 12.8774 105.126 12.8774C107.143 12.8774 108.835 13.4285 110.198 14.5266L109.321 16.8578C108.737 16.38 108.075 16.0332 107.331 15.8174C106.591 15.6017 105.878 15.4938 105.197 15.4938C103.25 15.4938 101.652 16.1296 100.399 17.3973C99.1455 18.665 98.5189 20.2332 98.5189 22.0982C98.5189 22.7686 98.6207 23.4815 98.8283 24.2329C99.0359 24.9881 99.4001 25.6932 99.921 26.3521C100.442 27.011 101.143 27.5736 102.02 28.0398C102.898 28.5061 103.943 28.7411 105.158 28.7411C106.325 28.7411 107.449 28.4945 108.534 28.0051C109.615 27.5158 110.445 26.8222 111.013 25.9244C111.585 25.0266 111.871 24.1134 111.871 23.1771V13.1279H114.828V29.6042C114.828 30.8488 114.585 32.0433 114.099 33.1954C113.613 34.3437 112.924 35.3494 112.039 36.2086C111.15 37.0718 110.069 37.7576 108.792 38.274C107.519 38.7864 106.125 39.0523 104.617 39.0793Z" fill="black" stroke="black" stroke-width="0.892537" stroke-miterlimit="10"/>
<path d="M127.858 31.3264C126.472 31.3264 125.187 31.0914 124.008 30.6251C122.829 30.1589 121.819 29.5116 120.981 28.687C120.143 27.8624 119.488 26.8798 119.03 25.7431C118.568 24.6064 118.337 23.4042 118.337 22.1365C118.337 20.8688 118.568 19.6666 119.03 18.5299C119.492 17.3932 120.143 16.4068 120.981 15.5706C121.819 14.7345 122.829 14.0756 124.008 13.5978C125.187 13.12 126.46 12.8811 127.823 12.8811C129.159 12.8811 130.412 13.1162 131.579 13.5824C132.746 14.0486 133.757 14.7114 134.607 15.5745L126.91 25.2653L124.94 23.7934L131.07 16.2912C130.655 16.0292 130.157 15.8173 129.574 15.6631C128.99 15.509 128.418 15.4281 127.858 15.4281C126.934 15.4281 126.057 15.5976 125.23 15.929C124.404 16.2642 123.691 16.7382 123.096 17.347C122.5 17.9558 122.038 18.6763 121.709 19.5009C121.38 20.3255 121.216 21.204 121.216 22.1404C121.216 24.0323 121.842 25.6083 123.096 26.8798C124.349 28.1475 125.935 28.7833 127.858 28.7833C128.904 28.7833 129.871 28.5791 130.76 28.1745C131.649 27.7661 132.398 27.2035 133.005 26.4868L135.049 28.2439C134.199 29.1995 133.157 29.9547 131.928 30.5057C130.698 31.049 129.343 31.3264 127.858 31.3264Z" fill="black" stroke="black" stroke-width="0.892537" stroke-miterlimit="10"/>
<path d="M148.855 28.4905H149.583V31.1107H148.855C146.156 31.1107 144.088 30.4056 142.651 28.9914C141.218 27.5812 140.497 25.6546 140.497 23.2116V16.3221H137.689V13.8445H140.646V6.05713H143.419V13.8445H148.052V16.3221H143.419V23.2116C143.419 26.7296 145.228 28.4905 148.855 28.4905Z" fill="url(#paint0_linear_187_12)"/>
<path d="M151.808 30.9643V12.9814H154.726V16.3914C155.02 15.8404 155.443 15.2663 156.003 14.6691C156.563 14.0718 157.299 13.5747 158.212 13.1779C159.124 12.7848 160.068 12.5845 161.04 12.5845V15.3858C160.358 15.3858 159.661 15.4936 158.94 15.7094C158.223 15.9252 157.558 16.2913 156.951 16.8037C156.344 17.3201 155.83 17.9713 155.419 18.7612C155.004 19.5511 154.8 20.4604 154.8 21.4892V30.9643H151.808Z" fill="url(#paint1_linear_187_12)"/>
<path d="M163.01 9.14356V6.02246H166.511V9.14356H163.01ZM163.264 30.9643V12.9814H166.256V30.9643H163.264Z" fill="url(#paint2_linear_187_12)"/>
<path d="M186.54 12.9814L179.534 21.813L186.54 30.9644H182.965L177.712 24.1095L172.276 30.9644H168.7L183 12.9814H186.54ZM176.396 17.9714L174.61 20.3025L168.845 12.9814H172.456L176.396 17.9714Z" fill="url(#paint3_linear_187_12)"/>
<path d="M90.4312 19.6321C91.5019 19.6321 92.3699 18.7781 92.3699 17.7247C92.3699 16.6713 91.5019 15.8174 90.4312 15.8174C89.3605 15.8174 88.4925 16.6713 88.4925 17.7247C88.4925 18.7781 89.3605 19.6321 90.4312 19.6321Z" fill="url(#paint4_linear_187_12)"/>
<defs>
<linearGradient id="paint0_linear_187_12" x1="148.355" y1="17.0452" x2="161.568" y2="10.57" gradientUnits="userSpaceOnUse">
<stop stop-color="#5852A3"/>
<stop offset="1" stop-color="#4FC6DF"/>
</linearGradient>
<linearGradient id="paint1_linear_187_12" x1="151.249" y1="22.9496" x2="164.461" y2="16.4745" gradientUnits="userSpaceOnUse">
<stop stop-color="#5852A3"/>
<stop offset="1" stop-color="#4FC6DF"/>
</linearGradient>
<linearGradient id="paint2_linear_187_12" x1="152.001" y1="24.4845" x2="165.213" y2="18.0093" gradientUnits="userSpaceOnUse">
<stop stop-color="#5852A3"/>
<stop offset="1" stop-color="#4FC6DF"/>
</linearGradient>
<linearGradient id="paint3_linear_187_12" x1="155.849" y1="32.3364" x2="169.061" y2="25.8612" gradientUnits="userSpaceOnUse">
<stop stop-color="#5852A3"/>
<stop offset="1" stop-color="#4FC6DF"/>
</linearGradient>
<linearGradient id="paint4_linear_187_12" x1="88.6072" y1="18.5078" x2="92.4226" y2="16.823" gradientUnits="userSpaceOnUse">
<stop stop-color="#5852A3"/>
<stop offset="0.1062" stop-color="#5859A6"/>
<stop offset="0.2971" stop-color="#576BAE"/>
<stop offset="0.5507" stop-color="#5686BD"/>
<stop offset="0.8539" stop-color="#53AFD3"/>
<stop offset="1" stop-color="#4FC6DF"/>
</linearGradient>
</defs>
</svg>
